# MagicaVoxel @ Ephtracy

# group
o 

# material
mtllib apple.mtl
usemtl palette

# normals
vn -1 0 0
vn 1 0 0
vn 0 0 1
vn 0 0 -1
vn 0 -1 0
vn 0 1 0

# texcoords
vt 0.306641 0.5
vt 0.970703 0.5
vt 0.974609 0.5
vt 0.978516 0.5

# verts
v -0.9 1.1 0.3
v -0.9 1.1 0.2
v -0.9 1.2 0.3
v -0.9 1.2 0.2
v -0.8 1.2 0.3
v -0.8 1.2 0.2
v -0.8 1.3 0.3
v -0.8 1.3 0.2
v -0.7 0.2 0.5
v -0.7 0.2 -5.96046e-08
v -0.7 0.7 0.5
v -0.7 0.7 -5.96046e-08
v -0.7 1 0.3
v -0.7 1 0.2
v -0.7 1.1 0.3
v -0.7 1.1 0.2
v -0.7 1.3 0.3
v -0.7 1.3 0.2
v -0.7 1.4 0.3
v -0.7 1.4 0.2
v -0.6 0.1 0.4
v -0.6 0.1 0.1
v -0.6 0.2 0.6
v -0.6 0.2 0.5
v -0.6 0.2 0.4
v -0.6 0.2 0.1
v -0.6 0.2 -5.96046e-08
v -0.6 0.2 -0.1
v -0.6 0.7 0.6
v -0.6 0.7 0.5
v -0.6 0.7 0.4
v -0.6 0.7 0.1
v -0.6 0.7 -5.96046e-08
v -0.6 0.7 -0.1
v -0.6 0.8 0.4
v -0.6 0.8 0.1
v -0.6 0.9 0.3
v -0.6 0.9 0.2
v -0.6 1 0.3
v -0.6 1 0.2
v -0.5 0 0.4
v -0.5 0 0.1
v -0.5 0.1 0.5
v -0.5 0.1 0.4
v -0.5 0.1 0.1
v -0.5 0.1 -5.96046e-08
v -0.5 0.2 0.7
v -0.5 0.2 0.6
v -0.5 0.2 0.5
v -0.5 0.2 0.4
v -0.5 0.2 0.1
v -0.5 0.2 -5.96046e-08
v -0.5 0.2 -0.1
v -0.5 0.2 -0.2
v -0.5 0.7 0.7
v -0.5 0.7 0.6
v -0.5 0.7 0.5
v -0.5 0.7 0.4
v -0.5 0.7 0.1
v -0.5 0.7 -5.96046e-08
v -0.5 0.7 -0.1
v -0.5 0.7 -0.2
v -0.5 0.8 0.5
v -0.5 0.8 0.4
v -0.5 0.8 0.1
v -0.5 0.8 -5.96046e-08
v -0.4 0 0.5
v -0.4 0 0.4
v -0.4 0 0.1
v -0.4 0 -5.96046e-08
v -0.4 0.1 0.6
v -0.4 0.1 0.5
v -0.4 0.1 0.4
v -0.4 0.1 0.1
v -0.4 0.1 -5.96046e-08
v -0.4 0.1 -0.1
v -0.4 0.2 0.6
v -0.4 0.2 0.5
v -0.4 0.2 -5.96046e-08
v -0.4 0.2 -0.1
v -0.4 0.7 0.6
v -0.4 0.7 0.5
v -0.4 0.7 -5.96046e-08
v -0.4 0.7 -0.1
v -0.4 0.8 0.6
v -0.4 0.8 0.5
v -0.4 0.8 -5.96046e-08
v -0.4 0.8 -0.1
v -0.3 0.8 0.3
v -0.3 0.8 0.2
v -0.3 0.9 0.3
v -0.3 0.9 0.2
v -0.3 1 0.3
v -0.3 1 0.2
v -0.3 1.1 0.3
v -0.3 1.1 0.2
v -0.2 1.1 0.3
v -0.2 1.1 0.2
v -0.2 1.2 0.3
v -0.2 1.2 0.2
v -0.6 1.3 0.3
v -0.6 1.3 0.2
v -0.6 1.4 0.3
v -0.6 1.4 0.2
v -0.5 1.2 0.3
v -0.5 1.2 0.2
v -0.5 1.3 0.3
v -0.5 1.3 0.2
v -0.4 1 0.3
v -0.4 1 0.2
v -0.4 1.2 0.3
v -0.4 1.2 0.2
v -0.2 0.8 0.3
v -0.2 0.8 0.2
v -0.2 1 0.3
v -0.2 1 0.2
v -0.1 0 0.5
v -0.1 0 0.4
v -0.1 0 0.1
v -0.1 0 -5.96046e-08
v -0.1 0.1 0.6
v -0.1 0.1 0.5
v -0.1 0.1 0.4
v -0.1 0.1 0.1
v -0.1 0.1 -5.96046e-08
v -0.1 0.1 -0.1
v -0.1 0.2 0.6
v -0.1 0.2 0.5
v -0.1 0.2 -5.96046e-08
v -0.1 0.2 -0.1
v -0.1 0.7 0.6
v -0.1 0.7 0.5
v -0.1 0.7 -5.96046e-08
v -0.1 0.7 -0.1
v -0.1 0.8 0.6
v -0.1 0.8 0.5
v -0.1 0.8 -5.96046e-08
v -0.1 0.8 -0.1
v -0.1 1 0.3
v -0.1 1 0.2
v -0.1 1.2 0.3
v -0.1 1.2 0.2
v 0 0 0.4
v 0 0 0.1
v 0 0.1 0.5
v 0 0.1 0.4
v 0 0.1 0.1
v 0 0.1 -5.96046e-08
v 0 0.2 0.7
v 0 0.2 0.6
v 0 0.2 0.5
v 0 0.2 0.4
v 0 0.2 0.1
v 0 0.2 -5.96046e-08
v 0 0.2 -0.1
v 0 0.2 -0.2
v 0 0.7 0.7
v 0 0.7 0.6
v 0 0.7 0.5
v 0 0.7 0.4
v 0 0.7 0.1
v 0 0.7 -5.96046e-08
v 0 0.7 -0.1
v 0 0.7 -0.2
v 0 0.8 0.5
v 0 0.8 0.4
v 0 0.8 0.1
v 0 0.8 -5.96046e-08
v 0.1 0.1 0.4
v 0.1 0.1 0.1
v 0.1 0.2 0.6
v 0.1 0.2 0.5
v 0.1 0.2 0.4
v 0.1 0.2 0.1
v 0.1 0.2 -5.96046e-08
v 0.1 0.2 -0.1
v 0.1 0.7 0.6
v 0.1 0.7 0.5
v 0.1 0.7 0.4
v 0.1 0.7 0.1
v 0.1 0.7 -5.96046e-08
v 0.1 0.7 -0.1
v 0.1 0.8 0.4
v 0.1 0.8 0.1
v 0.2 0.2 0.5
v 0.2 0.2 -5.96046e-08
v 0.2 0.7 0.5
v 0.2 0.7 -5.96046e-08
v -0.5 0.2 0.7
v -0.5 0.7 0.7
v 0 0.2 0.7
v 0 0.7 0.7
v -0.6 0.2 0.6
v -0.6 0.7 0.6
v -0.5 0.2 0.6
v -0.5 0.7 0.6
v -0.4 0.1 0.6
v -0.4 0.2 0.6
v -0.4 0.7 0.6
v -0.4 0.8 0.6
v -0.1 0.1 0.6
v -0.1 0.2 0.6
v -0.1 0.7 0.6
v -0.1 0.8 0.6
v 0 0.2 0.6
v 0 0.7 0.6
v 0.1 0.2 0.6
v 0.1 0.7 0.6
v -0.7 0.2 0.5
v -0.7 0.7 0.5
v -0.6 0.2 0.5
v -0.6 0.7 0.5
v -0.5 0.1 0.5
v -0.5 0.2 0.5
v -0.5 0.7 0.5
v -0.5 0.8 0.5
v -0.4 0 0.5
v -0.4 0.1 0.5
v -0.4 0.2 0.5
v -0.4 0.7 0.5
v -0.4 0.8 0.5
v -0.1 0 0.5
v -0.1 0.1 0.5
v -0.1 0.2 0.5
v -0.1 0.7 0.5
v -0.1 0.8 0.5
v 0 0.1 0.5
v 0 0.2 0.5
v 0 0.7 0.5
v 0 0.8 0.5
v 0.1 0.2 0.5
v 0.1 0.7 0.5
v 0.2 0.2 0.5
v 0.2 0.7 0.5
v -0.6 0.1 0.4
v -0.6 0.2 0.4
v -0.6 0.7 0.4
v -0.6 0.8 0.4
v -0.5 0 0.4
v -0.5 0.1 0.4
v -0.5 0.2 0.4
v -0.5 0.7 0.4
v -0.5 0.8 0.4
v -0.4 0 0.4
v -0.4 0.1 0.4
v -0.1 0 0.4
v -0.1 0.1 0.4
v 0 0 0.4
v 0 0.1 0.4
v 0 0.2 0.4
v 0 0.7 0.4
v 0 0.8 0.4
v 0.1 0.1 0.4
v 0.1 0.2 0.4
v 0.1 0.7 0.4
v 0.1 0.8 0.4
v -0.9 1.1 0.3
v -0.9 1.2 0.3
v -0.8 1.2 0.3
v -0.8 1.3 0.3
v -0.7 1 0.3
v -0.7 1.1 0.3
v -0.7 1.3 0.3
v -0.7 1.4 0.3
v -0.6 0.9 0.3
v -0.6 1 0.3
v -0.6 1.3 0.3
v -0.6 1.4 0.3
v -0.5 1.2 0.3
v -0.5 1.3 0.3
v -0.4 1 0.3
v -0.4 1.2 0.3
v -0.3 0.8 0.3
v -0.3 0.9 0.3
v -0.3 1 0.3
v -0.3 1.1 0.3
v -0.2 0.8 0.3
v -0.2 1 0.3
v -0.2 1.1 0.3
v -0.2 1.2 0.3
v -0.1 1 0.3
v -0.1 1.2 0.3
v -0.9 1.1 0.2
v -0.9 1.2 0.2
v -0.8 1.2 0.2
v -0.8 1.3 0.2
v -0.7 1 0.2
v -0.7 1.1 0.2
v -0.7 1.3 0.2
v -0.7 1.4 0.2
v -0.6 0.9 0.2
v -0.6 1 0.2
v -0.6 1.3 0.2
v -0.6 1.4 0.2
v -0.5 1.2 0.2
v -0.5 1.3 0.2
v -0.4 1 0.2
v -0.4 1.2 0.2
v -0.3 0.8 0.2
v -0.3 0.9 0.2
v -0.3 1 0.2
v -0.3 1.1 0.2
v -0.2 0.8 0.2
v -0.2 1 0.2
v -0.2 1.1 0.2
v -0.2 1.2 0.2
v -0.1 1 0.2
v -0.1 1.2 0.2
v -0.6 0.1 0.1
v -0.6 0.2 0.1
v -0.6 0.7 0.1
v -0.6 0.8 0.1
v -0.5 0 0.1
v -0.5 0.1 0.1
v -0.5 0.2 0.1
v -0.5 0.7 0.1
v -0.5 0.8 0.1
v -0.4 0 0.1
v -0.4 0.1 0.1
v -0.1 0 0.1
v -0.1 0.1 0.1
v 0 0 0.1
v 0 0.1 0.1
v 0 0.2 0.1
v 0 0.7 0.1
v 0 0.8 0.1
v 0.1 0.1 0.1
v 0.1 0.2 0.1
v 0.1 0.7 0.1
v 0.1 0.8 0.1
v -0.7 0.2 -5.96046e-08
v -0.7 0.7 -5.96046e-08
v -0.6 0.2 -5.96046e-08
v -0.6 0.7 -5.96046e-08
v -0.5 0.1 -5.96046e-08
v -0.5 0.2 -5.96046e-08
v -0.5 0.7 -5.96046e-08
v -0.5 0.8 -5.96046e-08
v -0.4 0 -5.96046e-08
v -0.4 0.1 -5.96046e-08
v -0.4 0.2 -5.96046e-08
v -0.4 0.7 -5.96046e-08
v -0.4 0.8 -5.96046e-08
v -0.1 0 -5.96046e-08
v -0.1 0.1 -5.96046e-08
v -0.1 0.2 -5.96046e-08
v -0.1 0.7 -5.96046e-08
v -0.1 0.8 -5.96046e-08
v 0 0.1 -5.96046e-08
v 0 0.2 -5.96046e-08
v 0 0.7 -5.96046e-08
v 0 0.8 -5.96046e-08
v 0.1 0.2 -5.96046e-08
v 0.1 0.7 -5.96046e-08
v 0.2 0.2 -5.96046e-08
v 0.2 0.7 -5.96046e-08
v -0.6 0.2 -0.1
v -0.6 0.7 -0.1
v -0.5 0.2 -0.1
v -0.5 0.7 -0.1
v -0.4 0.1 -0.1
v -0.4 0.2 -0.1
v -0.4 0.7 -0.1
v -0.4 0.8 -0.1
v -0.1 0.1 -0.1
v -0.1 0.2 -0.1
v -0.1 0.7 -0.1
v -0.1 0.8 -0.1
v 0 0.2 -0.1
v 0 0.7 -0.1
v 0.1 0.2 -0.1
v 0.1 0.7 -0.1
v -0.5 0.2 -0.2
v -0.5 0.7 -0.2
v 0 0.2 -0.2
v 0 0.7 -0.2
v -0.4 0 0.5
v -0.1 0 0.5
v -0.5 0 0.4
v -0.4 0 0.4
v -0.1 0 0.4
v 0 0 0.4
v -0.5 0 0.1
v -0.4 0 0.1
v -0.1 0 0.1
v 0 0 0.1
v -0.4 0 -5.96046e-08
v -0.1 0 -5.96046e-08
v -0.4 0.1 0.6
v -0.1 0.1 0.6
v -0.5 0.1 0.5
v -0.4 0.1 0.5
v -0.1 0.1 0.5
v 0 0.1 0.5
v -0.6 0.1 0.4
v -0.5 0.1 0.4
v -0.4 0.1 0.4
v -0.1 0.1 0.4
v 0 0.1 0.4
v 0.1 0.1 0.4
v -0.6 0.1 0.1
v -0.5 0.1 0.1
v -0.4 0.1 0.1
v -0.1 0.1 0.1
v 0 0.1 0.1
v 0.1 0.1 0.1
v -0.5 0.1 -5.96046e-08
v -0.4 0.1 -5.96046e-08
v -0.1 0.1 -5.96046e-08
v 0 0.1 -5.96046e-08
v -0.4 0.1 -0.1
v -0.1 0.1 -0.1
v -0.5 0.2 0.7
v 0 0.2 0.7
v -0.6 0.2 0.6
v -0.5 0.2 0.6
v -0.4 0.2 0.6
v -0.1 0.2 0.6
v 0 0.2 0.6
v 0.1 0.2 0.6
v -0.7 0.2 0.5
v -0.6 0.2 0.5
v -0.5 0.2 0.5
v -0.4 0.2 0.5
v -0.1 0.2 0.5
v 0 0.2 0.5
v 0.1 0.2 0.5
v 0.2 0.2 0.5
v -0.6 0.2 0.4
v -0.5 0.2 0.4
v 0 0.2 0.4
v 0.1 0.2 0.4
v -0.6 0.2 0.1
v -0.5 0.2 0.1
v 0 0.2 0.1
v 0.1 0.2 0.1
v -0.7 0.2 -5.96046e-08
v -0.6 0.2 -5.96046e-08
v -0.5 0.2 -5.96046e-08
v -0.4 0.2 -5.96046e-08
v -0.1 0.2 -5.96046e-08
v 0 0.2 -5.96046e-08
v 0.1 0.2 -5.96046e-08
v 0.2 0.2 -5.96046e-08
v -0.6 0.2 -0.1
v -0.5 0.2 -0.1
v -0.4 0.2 -0.1
v -0.1 0.2 -0.1
v 0 0.2 -0.1
v 0.1 0.2 -0.1
v -0.5 0.2 -0.2
v 0 0.2 -0.2
v -0.6 0.9 0.3
v -0.3 0.9 0.3
v -0.6 0.9 0.2
v -0.3 0.9 0.2
v -0.7 1 0.3
v -0.6 1 0.3
v -0.2 1 0.3
v -0.1 1 0.3
v -0.7 1 0.2
v -0.6 1 0.2
v -0.2 1 0.2
v -0.1 1 0.2
v -0.9 1.1 0.3
v -0.7 1.1 0.3
v -0.9 1.1 0.2
v -0.7 1.1 0.2
v -0.5 0.7 0.7
v 0 0.7 0.7
v -0.6 0.7 0.6
v -0.5 0.7 0.6
v -0.4 0.7 0.6
v -0.1 0.7 0.6
v 0 0.7 0.6
v 0.1 0.7 0.6
v -0.7 0.7 0.5
v -0.6 0.7 0.5
v -0.5 0.7 0.5
v -0.4 0.7 0.5
v -0.1 0.7 0.5
v 0 0.7 0.5
v 0.1 0.7 0.5
v 0.2 0.7 0.5
v -0.6 0.7 0.4
v -0.5 0.7 0.4
v 0 0.7 0.4
v 0.1 0.7 0.4
v -0.6 0.7 0.1
v -0.5 0.7 0.1
v 0 0.7 0.1
v 0.1 0.7 0.1
v -0.7 0.7 -5.96046e-08
v -0.6 0.7 -5.96046e-08
v -0.5 0.7 -5.96046e-08
v -0.4 0.7 -5.96046e-08
v -0.1 0.7 -5.96046e-08
v 0 0.7 -5.96046e-08
v 0.1 0.7 -5.96046e-08
v 0.2 0.7 -5.96046e-08
v -0.6 0.7 -0.1
v -0.5 0.7 -0.1
v -0.4 0.7 -0.1
v -0.1 0.7 -0.1
v 0 0.7 -0.1
v 0.1 0.7 -0.1
v -0.5 0.7 -0.2
v 0 0.7 -0.2
v -0.4 0.8 0.6
v -0.1 0.8 0.6
v -0.5 0.8 0.5
v -0.4 0.8 0.5
v -0.1 0.8 0.5
v 0 0.8 0.5
v -0.6 0.8 0.4
v -0.5 0.8 0.4
v 0 0.8 0.4
v 0.1 0.8 0.4
v -0.3 0.8 0.3
v -0.2 0.8 0.3
v -0.3 0.8 0.2
v -0.2 0.8 0.2
v -0.6 0.8 0.1
v -0.5 0.8 0.1
v 0 0.8 0.1
v 0.1 0.8 0.1
v -0.5 0.8 -5.96046e-08
v -0.4 0.8 -5.96046e-08
v -0.1 0.8 -5.96046e-08
v 0 0.8 -5.96046e-08
v -0.4 0.8 -0.1
v -0.1 0.8 -0.1
v -0.4 1 0.3
v -0.3 1 0.3
v -0.4 1 0.2
v -0.3 1 0.2
v -0.3 1.1 0.3
v -0.2 1.1 0.3
v -0.3 1.1 0.2
v -0.2 1.1 0.2
v -0.9 1.2 0.3
v -0.8 1.2 0.3
v -0.5 1.2 0.3
v -0.4 1.2 0.3
v -0.2 1.2 0.3
v -0.1 1.2 0.3
v -0.9 1.2 0.2
v -0.8 1.2 0.2
v -0.5 1.2 0.2
v -0.4 1.2 0.2
v -0.2 1.2 0.2
v -0.1 1.2 0.2
v -0.8 1.3 0.3
v -0.7 1.3 0.3
v -0.6 1.3 0.3
v -0.5 1.3 0.3
v -0.8 1.3 0.2
v -0.7 1.3 0.2
v -0.6 1.3 0.2
v -0.5 1.3 0.2
v -0.7 1.4 0.3
v -0.6 1.4 0.3
v -0.7 1.4 0.2
v -0.6 1.4 0.2

# faces
f 3/4/1 2/4/1 1/4/1
f 4/4/1 2/4/1 3/4/1
f 7/4/1 6/4/1 5/4/1
f 8/4/1 6/4/1 7/4/1
f 11/2/1 10/2/1 9/2/1
f 12/2/1 10/2/1 11/2/1
f 15/4/1 14/4/1 13/4/1
f 16/4/1 14/4/1 15/4/1
f 19/4/1 18/4/1 17/4/1
f 20/4/1 18/4/1 19/4/1
f 25/2/1 22/2/1 21/2/1
f 26/2/1 22/2/1 25/2/1
f 29/2/1 24/2/1 23/2/1
f 30/2/1 24/2/1 29/2/1
f 33/2/1 28/2/1 27/2/1
f 34/2/1 28/2/1 33/2/1
f 35/2/1 32/2/1 31/2/1
f 36/2/1 32/2/1 35/2/1
f 39/4/1 38/4/1 37/4/1
f 40/4/1 38/4/1 39/4/1
f 44/2/1 42/2/1 41/2/1
f 45/2/1 42/2/1 44/2/1
f 49/2/1 44/2/1 43/2/1
f 50/2/1 44/2/1 49/2/1
f 51/2/1 46/2/1 45/2/1
f 52/2/1 46/2/1 51/2/1
f 55/2/1 48/2/1 47/2/1
f 56/2/1 48/2/1 55/2/1
f 61/2/1 54/2/1 53/2/1
f 62/2/1 54/2/1 61/2/1
f 63/2/1 58/2/1 57/2/1
f 64/2/1 58/2/1 63/2/1
f 65/2/1 60/2/1 59/2/1
f 66/2/1 60/2/1 65/2/1
f 72/2/1 68/2/1 67/2/1
f 73/2/1 68/2/1 72/2/1
f 74/2/1 70/2/1 69/2/1
f 75/2/1 70/2/1 74/2/1
f 77/2/1 72/2/1 71/2/1
f 78/2/1 72/2/1 77/2/1
f 79/2/1 76/2/1 75/2/1
f 80/2/1 76/2/1 79/2/1
f 85/2/1 82/2/1 81/2/1
f 86/2/1 82/2/1 85/2/1
f 87/2/1 84/2/1 83/2/1
f 88/2/1 84/2/1 87/2/1
f 91/3/1 90/3/1 89/3/1
f 92/3/1 90/3/1 91/3/1
f 95/3/1 94/3/1 93/3/1
f 96/3/1 94/3/1 95/3/1
f 99/3/1 98/3/1 97/3/1
f 100/3/1 98/3/1 99/3/1
f 101/4/2 102/4/2 103/4/2
f 103/4/2 102/4/2 104/4/2
f 105/4/2 106/4/2 107/4/2
f 107/4/2 106/4/2 108/4/2
f 109/4/2 110/4/2 111/4/2
f 111/4/2 110/4/2 112/4/2
f 113/3/2 114/3/2 115/3/2
f 115/3/2 114/3/2 116/3/2
f 117/2/2 118/2/2 122/2/2
f 122/2/2 118/2/2 123/2/2
f 119/2/2 120/2/2 124/2/2
f 124/2/2 120/2/2 125/2/2
f 121/2/2 122/2/2 127/2/2
f 127/2/2 122/2/2 128/2/2
f 125/2/2 126/2/2 129/2/2
f 129/2/2 126/2/2 130/2/2
f 131/2/2 132/2/2 135/2/2
f 135/2/2 132/2/2 136/2/2
f 133/2/2 134/2/2 137/2/2
f 137/2/2 134/2/2 138/2/2
f 139/3/2 140/3/2 141/3/2
f 141/3/2 140/3/2 142/3/2
f 143/2/2 144/2/2 146/2/2
f 146/2/2 144/2/2 147/2/2
f 145/2/2 146/2/2 151/2/2
f 151/2/2 146/2/2 152/2/2
f 147/2/2 148/2/2 153/2/2
f 153/2/2 148/2/2 154/2/2
f 149/2/2 150/2/2 157/2/2
f 157/2/2 150/2/2 158/2/2
f 155/2/2 156/2/2 163/2/2
f 163/2/2 156/2/2 164/2/2
f 159/2/2 160/2/2 165/2/2
f 165/2/2 160/2/2 166/2/2
f 161/2/2 162/2/2 167/2/2
f 167/2/2 162/2/2 168/2/2
f 169/2/2 170/2/2 173/2/2
f 173/2/2 170/2/2 174/2/2
f 171/2/2 172/2/2 177/2/2
f 177/2/2 172/2/2 178/2/2
f 175/2/2 176/2/2 181/2/2
f 181/2/2 176/2/2 182/2/2
f 179/2/2 180/2/2 183/2/2
f 183/2/2 180/2/2 184/2/2
f 185/2/2 186/2/2 187/2/2
f 187/2/2 186/2/2 188/2/2
f 191/2/3 190/2/3 189/2/3
f 192/2/3 190/2/3 191/2/3
f 195/2/3 194/2/3 193/2/3
f 196/2/3 194/2/3 195/2/3
f 201/2/3 198/2/3 197/2/3
f 202/2/3 198/2/3 201/2/3
f 203/2/3 200/2/3 199/2/3
f 204/2/3 200/2/3 203/2/3
f 207/2/3 206/2/3 205/2/3
f 208/2/3 206/2/3 207/2/3
f 211/2/3 210/2/3 209/2/3
f 212/2/3 210/2/3 211/2/3
f 218/2/3 214/2/3 213/2/3
f 219/2/3 214/2/3 218/2/3
f 220/2/3 216/2/3 215/2/3
f 221/2/3 216/2/3 220/2/3
f 222/2/3 218/2/3 217/2/3
f 223/2/3 218/2/3 222/2/3
f 227/2/3 224/2/3 223/2/3
f 228/2/3 224/2/3 227/2/3
f 229/2/3 226/2/3 225/2/3
f 230/2/3 226/2/3 229/2/3
f 233/2/3 232/2/3 231/2/3
f 234/2/3 232/2/3 233/2/3
f 240/2/3 236/2/3 235/2/3
f 241/2/3 236/2/3 240/2/3
f 242/2/3 238/2/3 237/2/3
f 243/2/3 238/2/3 242/2/3
f 244/2/3 240/2/3 239/2/3
f 245/2/3 240/2/3 244/2/3
f 248/2/3 247/2/3 246/2/3
f 249/2/3 247/2/3 248/2/3
f 253/2/3 250/2/3 249/2/3
f 254/2/3 250/2/3 253/2/3
f 255/2/3 252/2/3 251/2/3
f 256/2/3 252/2/3 255/2/3
f 259/4/3 258/4/3 257/4/3
f 262/4/3 259/4/3 257/4/3
f 262/4/3 260/4/3 259/4/3
f 263/4/3 260/4/3 262/4/3
f 266/4/3 262/4/3 261/4/3
f 266/4/3 264/4/3 263/4/3
f 266/4/3 263/4/3 262/4/3
f 267/4/3 264/4/3 266/4/3
f 268/4/3 264/4/3 267/4/3
f 269/4/3 266/4/3 265/4/3
f 269/4/3 267/4/3 266/4/3
f 270/4/3 267/4/3 269/4/3
f 271/4/3 269/4/3 265/4/3
f 272/4/3 269/4/3 271/4/3
f 274/4/3 271/4/3 265/4/3
f 275/4/3 271/4/3 274/4/3
f 277/3/3 274/3/3 273/3/3
f 277/3/3 276/3/3 275/3/3
f 277/3/3 275/3/3 274/3/3
f 278/3/3 276/3/3 277/3/3
f 279/3/3 276/3/3 278/3/3
f 281/3/3 280/3/3 279/3/3
f 281/3/3 279/3/3 278/3/3
f 282/3/3 280/3/3 281/3/3
f 283/4/4 284/4/4 285/4/4
f 283/4/4 285/4/4 288/4/4
f 285/4/4 286/4/4 288/4/4
f 288/4/4 286/4/4 289/4/4
f 287/4/4 288/4/4 292/4/4
f 289/4/4 290/4/4 292/4/4
f 288/4/4 289/4/4 292/4/4
f 292/4/4 290/4/4 293/4/4
f 293/4/4 290/4/4 294/4/4
f 291/4/4 292/4/4 295/4/4
f 292/4/4 293/4/4 295/4/4
f 295/4/4 293/4/4 296/4/4
f 291/4/4 295/4/4 297/4/4
f 297/4/4 295/4/4 298/4/4
f 291/4/4 297/4/4 300/4/4
f 300/4/4 297/4/4 301/4/4
f 299/3/4 300/3/4 303/3/4
f 301/3/4 302/3/4 303/3/4
f 300/3/4 301/3/4 303/3/4
f 303/3/4 302/3/4 304/3/4
f 304/3/4 302/3/4 305/3/4
f 305/3/4 306/3/4 307/3/4
f 304/3/4 305/3/4 307/3/4
f 307/3/4 306/3/4 308/3/4
f 309/2/4 310/2/4 314/2/4
f 314/2/4 310/2/4 315/2/4
f 311/2/4 312/2/4 316/2/4
f 316/2/4 312/2/4 317/2/4
f 313/2/4 314/2/4 318/2/4
f 318/2/4 314/2/4 319/2/4
f 320/2/4 321/2/4 322/2/4
f 322/2/4 321/2/4 323/2/4
f 323/2/4 324/2/4 327/2/4
f 327/2/4 324/2/4 328/2/4
f 325/2/4 326/2/4 329/2/4
f 329/2/4 326/2/4 330/2/4
f 331/2/4 332/2/4 333/2/4
f 333/2/4 332/2/4 334/2/4
f 335/2/4 336/2/4 340/2/4
f 340/2/4 336/2/4 341/2/4
f 337/2/4 338/2/4 342/2/4
f 342/2/4 338/2/4 343/2/4
f 339/2/4 340/2/4 344/2/4
f 344/2/4 340/2/4 345/2/4
f 345/2/4 346/2/4 349/2/4
f 349/2/4 346/2/4 350/2/4
f 347/2/4 348/2/4 351/2/4
f 351/2/4 348/2/4 352/2/4
f 353/2/4 354/2/4 355/2/4
f 355/2/4 354/2/4 356/2/4
f 357/2/4 358/2/4 359/2/4
f 359/2/4 358/2/4 360/2/4
f 361/2/4 362/2/4 365/2/4
f 365/2/4 362/2/4 366/2/4
f 363/2/4 364/2/4 367/2/4
f 367/2/4 364/2/4 368/2/4
f 369/2/4 370/2/4 371/2/4
f 371/2/4 370/2/4 372/2/4
f 373/2/4 374/2/4 375/2/4
f 375/2/4 374/2/4 376/2/4
f 380/2/5 378/2/5 377/2/5
f 381/2/5 378/2/5 380/2/5
f 383/2/5 380/2/5 379/2/5
f 383/2/5 382/2/5 381/2/5
f 383/2/5 381/2/5 380/2/5
f 384/2/5 382/2/5 383/2/5
f 385/2/5 382/2/5 384/2/5
f 386/2/5 382/2/5 385/2/5
f 387/2/5 385/2/5 384/2/5
f 388/2/5 385/2/5 387/2/5
f 392/2/5 390/2/5 389/2/5
f 393/2/5 390/2/5 392/2/5
f 396/2/5 392/2/5 391/2/5
f 397/2/5 392/2/5 396/2/5
f 398/2/5 394/2/5 393/2/5
f 399/2/5 394/2/5 398/2/5
f 401/2/5 396/2/5 395/2/5
f 402/2/5 396/2/5 401/2/5
f 405/2/5 400/2/5 399/2/5
f 406/2/5 400/2/5 405/2/5
f 407/2/5 403/2/5 402/2/5
f 408/2/5 403/2/5 407/2/5
f 409/2/5 405/2/5 404/2/5
f 410/2/5 405/2/5 409/2/5
f 411/2/5 409/2/5 408/2/5
f 412/2/5 409/2/5 411/2/5
f 416/2/5 414/2/5 413/2/5
f 417/2/5 414/2/5 416/2/5
f 418/2/5 414/2/5 417/2/5
f 419/2/5 414/2/5 418/2/5
f 422/2/5 416/2/5 415/2/5
f 422/2/5 417/2/5 416/2/5
f 423/2/5 417/2/5 422/2/5
f 424/2/5 417/2/5 423/2/5
f 425/2/5 419/2/5 418/2/5
f 425/2/5 420/2/5 419/2/5
f 426/2/5 420/2/5 425/2/5
f 427/2/5 420/2/5 426/2/5
f 429/2/5 423/2/5 422/2/5
f 429/2/5 422/2/5 421/2/5
f 430/2/5 423/2/5 429/2/5
f 431/2/5 428/2/5 427/2/5
f 431/2/5 427/2/5 426/2/5
f 432/2/5 428/2/5 431/2/5
f 433/2/5 429/2/5 421/2/5
f 436/2/5 428/2/5 432/2/5
f 437/2/5 434/2/5 433/2/5
f 437/2/5 433/2/5 421/2/5
f 438/2/5 434/2/5 437/2/5
f 439/2/5 434/2/5 438/2/5
f 442/2/5 436/2/5 435/2/5
f 443/2/5 428/2/5 436/2/5
f 443/2/5 436/2/5 442/2/5
f 444/2/5 428/2/5 443/2/5
f 445/2/5 440/2/5 439/2/5
f 445/2/5 439/2/5 438/2/5
f 446/2/5 440/2/5 445/2/5
f 447/2/5 440/2/5 446/2/5
f 448/2/5 442/2/5 441/2/5
f 448/2/5 443/2/5 442/2/5
f 449/2/5 443/2/5 448/2/5
f 450/2/5 443/2/5 449/2/5
f 451/2/5 447/2/5 446/2/5
f 451/2/5 449/2/5 448/2/5
f 451/2/5 448/2/5 447/2/5
f 452/2/5 449/2/5 451/2/5
f 455/4/5 454/4/5 453/4/5
f 456/4/5 454/4/5 455/4/5
f 461/4/5 458/4/5 457/4/5
f 462/4/5 458/4/5 461/4/5
f 463/3/5 460/3/5 459/3/5
f 464/3/5 460/3/5 463/3/5
f 467/4/5 466/4/5 465/4/5
f 468/4/5 466/4/5 467/4/5
f 469/2/6 470/2/6 472/2/6
f 472/2/6 470/2/6 473/2/6
f 473/2/6 470/2/6 474/2/6
f 474/2/6 470/2/6 475/2/6
f 471/2/6 472/2/6 478/2/6
f 472/2/6 473/2/6 478/2/6
f 478/2/6 473/2/6 479/2/6
f 479/2/6 473/2/6 480/2/6
f 474/2/6 475/2/6 481/2/6
f 475/2/6 476/2/6 481/2/6
f 481/2/6 476/2/6 482/2/6
f 482/2/6 476/2/6 483/2/6
f 478/2/6 479/2/6 485/2/6
f 477/2/6 478/2/6 485/2/6
f 485/2/6 479/2/6 486/2/6
f 483/2/6 484/2/6 487/2/6
f 482/2/6 483/2/6 487/2/6
f 487/2/6 484/2/6 488/2/6
f 477/2/6 485/2/6 489/2/6
f 488/2/6 484/2/6 492/2/6
f 489/2/6 490/2/6 493/2/6
f 477/2/6 489/2/6 493/2/6
f 493/2/6 490/2/6 494/2/6
f 494/2/6 490/2/6 495/2/6
f 491/2/6 492/2/6 498/2/6
f 492/2/6 484/2/6 499/2/6
f 498/2/6 492/2/6 499/2/6
f 499/2/6 484/2/6 500/2/6
f 495/2/6 496/2/6 501/2/6
f 494/2/6 495/2/6 501/2/6
f 501/2/6 496/2/6 502/2/6
f 502/2/6 496/2/6 503/2/6
f 497/2/6 498/2/6 504/2/6
f 498/2/6 499/2/6 504/2/6
f 504/2/6 499/2/6 505/2/6
f 505/2/6 499/2/6 506/2/6
f 502/2/6 503/2/6 507/2/6
f 504/2/6 505/2/6 507/2/6
f 503/2/6 504/2/6 507/2/6
f 507/2/6 505/2/6 508/2/6
f 509/2/6 510/2/6 512/2/6
f 512/2/6 510/2/6 513/2/6
f 511/2/6 512/2/6 516/2/6
f 513/2/6 514/2/6 516/2/6
f 512/2/6 513/2/6 516/2/6
f 516/2/6 514/2/6 517/2/6
f 515/2/6 516/2/6 519/2/6
f 517/2/6 518/2/6 519/2/6
f 516/2/6 517/2/6 519/2/6
f 519/2/6 518/2/6 520/2/6
f 515/2/6 519/2/6 521/2/6
f 520/2/6 518/2/6 522/2/6
f 515/2/6 521/2/6 523/2/6
f 521/2/6 522/2/6 523/2/6
f 523/2/6 522/2/6 524/2/6
f 522/2/6 518/2/6 525/2/6
f 524/2/6 522/2/6 525/2/6
f 525/2/6 518/2/6 526/2/6
f 524/2/6 525/2/6 527/2/6
f 527/2/6 525/2/6 528/2/6
f 528/2/6 525/2/6 529/2/6
f 529/2/6 525/2/6 530/2/6
f 528/2/6 529/2/6 531/2/6
f 531/2/6 529/2/6 532/2/6
f 533/4/6 534/4/6 535/4/6
f 535/4/6 534/4/6 536/4/6
f 537/3/6 538/3/6 539/3/6
f 539/3/6 538/3/6 540/3/6
f 541/4/6 542/4/6 547/4/6
f 547/4/6 542/4/6 548/4/6
f 543/4/6 544/4/6 549/4/6
f 549/4/6 544/4/6 550/4/6
f 545/3/6 546/3/6 551/3/6
f 551/3/6 546/3/6 552/3/6
f 553/4/6 554/4/6 557/4/6
f 557/4/6 554/4/6 558/4/6
f 555/4/6 556/4/6 559/4/6
f 559/4/6 556/4/6 560/4/6
f 561/4/6 562/4/6 563/4/6
f 563/4/6 562/4/6 564/4/6
