# MagicaVoxel @ Ephtracy

# group
o 

# material
mtllib car1.mtl
usemtl palette

# normals
vn -1 0 0
vn 1 0 0
vn 0 0 1
vn 0 0 -1
vn 0 -1 0
vn 0 1 0

# texcoords
vt 0.193359 0.5
vt 0.970703 0.5
vt 0.978516 0.5
vt 0.982422 0.5

# verts
v -0.8 0.2 0.3
v -0.8 0.2 0.0999998
v -0.8 0.2 -0.1
v -0.8 0.2 -0.3
v -0.8 0.3 0.3
v -0.8 0.3 0.0999998
v -0.8 0.3 -0.1
v -0.8 0.3 -0.3
v -0.8 0.5 0.3
v -0.8 0.5 -0.3
v -0.7 0.1 0.3
v -0.7 0.1 0.0999998
v -0.7 0.1 -0.1
v -0.7 0.1 -0.3
v -0.7 0.2 0.3
v -0.7 0.2 0.0999998
v -0.7 0.2 -0.1
v -0.7 0.2 -0.3
v -0.6 0 0.3
v -0.6 0 0.0999998
v -0.6 0 -0.1
v -0.6 0 -0.3
v -0.6 0.1 0.3
v -0.6 0.1 0.0999998
v -0.6 0.1 -0.1
v -0.6 0.1 -0.3
v -0.5 0.5 0.3
v -0.5 0.5 0.2
v -0.5 0.5 -0.2
v -0.5 0.5 -0.3
v -0.5 0.7 0.3
v -0.5 0.7 0.2
v -0.5 0.7 -0.2
v -0.5 0.7 -0.3
v 0.2 0.1 0.3
v 0.2 0.1 0.0999998
v 0.2 0.1 -0.1
v 0.2 0.1 -0.3
v 0.2 0.2 0.3
v 0.2 0.2 0.0999998
v 0.2 0.2 -0.1
v 0.2 0.2 -0.3
v 0.3 0 0.3
v 0.3 0 0.0999998
v 0.3 0 -0.1
v 0.3 0 -0.3
v 0.3 0.1 0.3
v 0.3 0.1 0.0999998
v 0.3 0.1 -0.1
v 0.3 0.1 -0.3
v -0.3 0 0.3
v -0.3 0 0.0999998
v -0.3 0 -0.1
v -0.3 0 -0.3
v -0.3 0.1 0.3
v -0.3 0.1 0.0999998
v -0.3 0.1 -0.1
v -0.3 0.1 -0.3
v -0.2 0.1 0.3
v -0.2 0.1 0.0999998
v -0.2 0.1 -0.1
v -0.2 0.1 -0.3
v -0.2 0.2 0.3
v -0.2 0.2 0.0999998
v -0.2 0.2 -0.1
v -0.2 0.2 -0.3
v 0.6 0 0.3
v 0.6 0 0.0999998
v 0.6 0 -0.1
v 0.6 0 -0.3
v 0.6 0.1 0.3
v 0.6 0.1 0.0999998
v 0.6 0.1 -0.1
v 0.6 0.1 -0.3
v 0.6 0.5 0.3
v 0.6 0.5 0.2
v 0.6 0.5 -0.2
v 0.6 0.5 -0.3
v 0.6 0.6 0.2
v 0.6 0.6 -0.2
v 0.6 0.7 0.3
v 0.6 0.7 -0.3
v 0.7 0.1 0.3
v 0.7 0.1 0.0999998
v 0.7 0.1 -0.1
v 0.7 0.1 -0.3
v 0.7 0.2 0.3
v 0.7 0.2 0.0999998
v 0.7 0.2 -0.1
v 0.7 0.2 -0.3
v 0.8 0.2 0.3
v 0.8 0.2 0.0999998
v 0.8 0.2 -0.1
v 0.8 0.2 -0.3
v 0.8 0.3 0.3
v 0.8 0.3 0.0999998
v 0.8 0.3 -0.1
v 0.8 0.3 -0.3
v 0.8 0.4 0.2
v 0.8 0.4 -0.2
v 0.8 0.5 0.3
v 0.8 0.5 0.2
v 0.8 0.5 -0.2
v 0.8 0.5 -0.3
v -0.8 0.2 0.3
v -0.8 0.3 0.3
v -0.8 0.5 0.3
v -0.7 0.1 0.3
v -0.7 0.2 0.3
v -0.7 0.3 0.3
v -0.6 0 0.3
v -0.6 0.1 0.3
v -0.6 0.2 0.3
v -0.6 0.3 0.3
v -0.5 0.5 0.3
v -0.5 0.7 0.3
v -0.4 0.4 0.3
v -0.4 0.6 0.3
v -0.3 0 0.3
v -0.3 0.1 0.3
v -0.3 0.2 0.3
v -0.3 0.3 0.3
v -0.2 0.1 0.3
v -0.2 0.2 0.3
v 5.96046e-08 0.4 0.3
v 5.96046e-08 0.6 0.3
v 0.1 0.4 0.3
v 0.1 0.6 0.3
v 0.2 0.1 0.3
v 0.2 0.2 0.3
v 0.3 0 0.3
v 0.3 0.1 0.3
v 0.3 0.2 0.3
v 0.3 0.3 0.3
v 0.5 0.4 0.3
v 0.5 0.6 0.3
v 0.6 0 0.3
v 0.6 0.1 0.3
v 0.6 0.2 0.3
v 0.6 0.3 0.3
v 0.6 0.5 0.3
v 0.6 0.7 0.3
v 0.7 0.1 0.3
v 0.7 0.2 0.3
v 0.7 0.3 0.3
v 0.8 0.2 0.3
v 0.8 0.3 0.3
v 0.8 0.5 0.3
v -0.7 0.1 -0.1
v -0.7 0.2 -0.1
v -0.6 0 -0.1
v -0.6 0.1 -0.1
v -0.3 0 -0.1
v -0.3 0.1 -0.1
v -0.2 0.1 -0.1
v -0.2 0.2 -0.1
v 0.2 0.1 -0.1
v 0.2 0.2 -0.1
v 0.3 0 -0.1
v 0.3 0.1 -0.1
v 0.6 0 -0.1
v 0.6 0.1 -0.1
v 0.7 0.1 -0.1
v 0.7 0.2 -0.1
v -0.7 0.1 0.0999998
v -0.7 0.2 0.0999998
v -0.6 0 0.0999998
v -0.6 0.1 0.0999998
v -0.3 0 0.0999998
v -0.3 0.1 0.0999998
v -0.2 0.1 0.0999998
v -0.2 0.2 0.0999998
v 0.2 0.1 0.0999998
v 0.2 0.2 0.0999998
v 0.3 0 0.0999998
v 0.3 0.1 0.0999998
v 0.6 0 0.0999998
v 0.6 0.1 0.0999998
v 0.7 0.1 0.0999998
v 0.7 0.2 0.0999998
v -0.8 0.2 -0.3
v -0.8 0.3 -0.3
v -0.8 0.5 -0.3
v -0.7 0.1 -0.3
v -0.7 0.2 -0.3
v -0.7 0.3 -0.3
v -0.6 0 -0.3
v -0.6 0.1 -0.3
v -0.6 0.2 -0.3
v -0.6 0.3 -0.3
v -0.5 0.5 -0.3
v -0.5 0.7 -0.3
v -0.4 0.4 -0.3
v -0.4 0.6 -0.3
v -0.3 0 -0.3
v -0.3 0.1 -0.3
v -0.3 0.2 -0.3
v -0.3 0.3 -0.3
v -0.2 0.1 -0.3
v -0.2 0.2 -0.3
v 5.96046e-08 0.4 -0.3
v 5.96046e-08 0.6 -0.3
v 0.1 0.4 -0.3
v 0.1 0.6 -0.3
v 0.2 0.1 -0.3
v 0.2 0.2 -0.3
v 0.3 0 -0.3
v 0.3 0.1 -0.3
v 0.3 0.2 -0.3
v 0.3 0.3 -0.3
v 0.5 0.4 -0.3
v 0.5 0.6 -0.3
v 0.6 0 -0.3
v 0.6 0.1 -0.3
v 0.6 0.2 -0.3
v 0.6 0.3 -0.3
v 0.6 0.5 -0.3
v 0.6 0.7 -0.3
v 0.7 0.1 -0.3
v 0.7 0.2 -0.3
v 0.7 0.3 -0.3
v 0.8 0.2 -0.3
v 0.8 0.3 -0.3
v 0.8 0.5 -0.3
v -0.6 0 0.3
v -0.3 0 0.3
v 0.3 0 0.3
v 0.6 0 0.3
v -0.6 0 0.0999998
v -0.3 0 0.0999998
v 0.3 0 0.0999998
v 0.6 0 0.0999998
v -0.6 0 -0.1
v -0.3 0 -0.1
v 0.3 0 -0.1
v 0.6 0 -0.1
v -0.6 0 -0.3
v -0.3 0 -0.3
v 0.3 0 -0.3
v 0.6 0 -0.3
v -0.7 0.1 0.3
v -0.6 0.1 0.3
v -0.3 0.1 0.3
v -0.2 0.1 0.3
v 0.2 0.1 0.3
v 0.3 0.1 0.3
v 0.6 0.1 0.3
v 0.7 0.1 0.3
v -0.7 0.1 0.0999998
v -0.6 0.1 0.0999998
v -0.3 0.1 0.0999998
v -0.2 0.1 0.0999998
v 0.2 0.1 0.0999998
v 0.3 0.1 0.0999998
v 0.6 0.1 0.0999998
v 0.7 0.1 0.0999998
v -0.7 0.1 -0.1
v -0.6 0.1 -0.1
v -0.3 0.1 -0.1
v -0.2 0.1 -0.1
v 0.2 0.1 -0.1
v 0.3 0.1 -0.1
v 0.6 0.1 -0.1
v 0.7 0.1 -0.1
v -0.7 0.1 -0.3
v -0.6 0.1 -0.3
v -0.3 0.1 -0.3
v -0.2 0.1 -0.3
v 0.2 0.1 -0.3
v 0.3 0.1 -0.3
v 0.6 0.1 -0.3
v 0.7 0.1 -0.3
v -0.8 0.2 0.3
v -0.7 0.2 0.3
v -0.2 0.2 0.3
v 0.2 0.2 0.3
v 0.7 0.2 0.3
v 0.8 0.2 0.3
v -0.8 0.2 0.0999998
v -0.7 0.2 0.0999998
v -0.2 0.2 0.0999998
v 0.2 0.2 0.0999998
v 0.7 0.2 0.0999998
v 0.8 0.2 0.0999998
v -0.8 0.2 -0.1
v -0.7 0.2 -0.1
v -0.2 0.2 -0.1
v 0.2 0.2 -0.1
v 0.7 0.2 -0.1
v 0.8 0.2 -0.1
v -0.8 0.2 -0.3
v -0.7 0.2 -0.3
v -0.2 0.2 -0.3
v 0.2 0.2 -0.3
v 0.7 0.2 -0.3
v 0.8 0.2 -0.3
v -0.8 0.5 0.3
v -0.5 0.5 0.3
v 0.6 0.5 0.3
v 0.8 0.5 0.3
v -0.5 0.5 0.2
v 0.6 0.5 0.2
v 0.8 0.5 0.2
v -0.5 0.5 -0.2
v 0.6 0.5 -0.2
v 0.8 0.5 -0.2
v -0.8 0.5 -0.3
v -0.5 0.5 -0.3
v 0.6 0.5 -0.3
v 0.8 0.5 -0.3
v -0.5 0.7 0.3
v 0.6 0.7 0.3
v -0.5 0.7 0.2
v -0.4 0.7 0.2
v -0.5 0.7 -0.2
v -0.4 0.7 -0.2
v -0.5 0.7 -0.3
v 0.6 0.7 -0.3

# faces
f 5/4/1 2/4/1 1/4/1
f 6/2/1 3/2/1 2/2/1
f 6/4/1 2/4/1 5/4/1
f 7/4/1 4/4/1 3/4/1
f 7/2/1 3/2/1 6/2/1
f 8/4/1 4/4/1 7/4/1
f 9/2/1 6/2/1 5/2/1
f 9/2/1 7/2/1 6/2/1
f 9/2/1 8/2/1 7/2/1
f 10/2/1 8/2/1 9/2/1
f 15/1/1 12/1/1 11/1/1
f 16/1/1 12/1/1 15/1/1
f 17/1/1 14/1/1 13/1/1
f 18/1/1 14/1/1 17/1/1
f 23/1/1 20/1/1 19/1/1
f 24/1/1 20/1/1 23/1/1
f 25/1/1 22/1/1 21/1/1
f 26/1/1 22/1/1 25/1/1
f 31/2/1 28/2/1 27/2/1
f 32/3/1 29/3/1 28/3/1
f 32/2/1 28/2/1 31/2/1
f 33/2/1 30/2/1 29/2/1
f 33/3/1 29/3/1 32/3/1
f 34/2/1 30/2/1 33/2/1
f 39/1/1 36/1/1 35/1/1
f 40/1/1 36/1/1 39/1/1
f 41/1/1 38/1/1 37/1/1
f 42/1/1 38/1/1 41/1/1
f 47/1/1 44/1/1 43/1/1
f 48/1/1 44/1/1 47/1/1
f 49/1/1 46/1/1 45/1/1
f 50/1/1 46/1/1 49/1/1
f 51/1/2 52/1/2 55/1/2
f 55/1/2 52/1/2 56/1/2
f 53/1/2 54/1/2 57/1/2
f 57/1/2 54/1/2 58/1/2
f 59/1/2 60/1/2 63/1/2
f 63/1/2 60/1/2 64/1/2
f 61/1/2 62/1/2 65/1/2
f 65/1/2 62/1/2 66/1/2
f 67/1/2 68/1/2 71/1/2
f 71/1/2 68/1/2 72/1/2
f 69/1/2 70/1/2 73/1/2
f 73/1/2 70/1/2 74/1/2
f 75/2/2 76/2/2 79/2/2
f 76/3/2 77/3/2 79/3/2
f 77/2/2 78/2/2 80/2/2
f 79/3/2 77/3/2 80/3/2
f 75/2/2 79/2/2 81/2/2
f 79/2/2 80/2/2 81/2/2
f 80/2/2 78/2/2 82/2/2
f 81/2/2 80/2/2 82/2/2
f 83/1/2 84/1/2 87/1/2
f 87/1/2 84/1/2 88/1/2
f 85/1/2 86/1/2 89/1/2
f 89/1/2 86/1/2 90/1/2
f 91/4/2 92/4/2 95/4/2
f 92/2/2 93/2/2 96/2/2
f 95/4/2 92/4/2 96/4/2
f 93/4/2 94/4/2 97/4/2
f 96/2/2 93/2/2 97/2/2
f 97/4/2 94/4/2 98/4/2
f 95/2/2 96/2/2 99/2/2
f 96/2/2 97/2/2 99/2/2
f 97/2/2 98/2/2 99/2/2
f 99/2/2 98/2/2 100/2/2
f 95/2/2 99/2/2 101/2/2
f 99/3/2 100/3/2 102/3/2
f 101/2/2 99/2/2 102/2/2
f 100/2/2 98/2/2 103/2/2
f 102/3/2 100/3/2 103/3/2
f 103/2/2 98/2/2 104/2/2
f 109/4/3 106/4/3 105/4/3
f 110/2/3 107/2/3 106/2/3
f 110/4/3 106/4/3 109/4/3
f 112/1/3 109/1/3 108/1/3
f 113/2/3 110/2/3 109/2/3
f 113/1/3 109/1/3 112/1/3
f 114/2/3 107/2/3 110/2/3
f 114/2/3 110/2/3 113/2/3
f 115/2/3 107/2/3 114/2/3
f 117/2/3 115/2/3 114/2/3
f 117/2/3 116/2/3 115/2/3
f 118/2/3 116/2/3 117/2/3
f 119/1/3 113/1/3 112/1/3
f 119/1/3 112/1/3 111/1/3
f 119/1/3 114/1/3 113/1/3
f 120/1/3 114/1/3 119/1/3
f 121/1/3 114/1/3 120/1/3
f 122/2/3 117/2/3 114/2/3
f 122/1/3 114/1/3 121/1/3
f 123/1/3 121/1/3 120/1/3
f 124/2/3 122/2/3 121/2/3
f 124/1/3 121/1/3 123/1/3
f 125/3/3 118/3/3 117/3/3
f 125/2/3 122/2/3 124/2/3
f 125/2/3 117/2/3 122/2/3
f 126/2/3 116/2/3 118/2/3
f 126/3/3 118/3/3 125/3/3
f 127/2/3 125/2/3 124/2/3
f 127/2/3 126/2/3 125/2/3
f 128/2/3 116/2/3 126/2/3
f 128/2/3 126/2/3 127/2/3
f 130/2/3 127/2/3 124/2/3
f 132/1/3 130/1/3 129/1/3
f 133/2/3 127/2/3 130/2/3
f 133/1/3 130/1/3 132/1/3
f 134/2/3 127/2/3 133/2/3
f 135/3/3 128/3/3 127/3/3
f 135/2/3 127/2/3 134/2/3
f 136/2/3 116/2/3 128/2/3
f 136/3/3 128/3/3 135/3/3
f 137/1/3 134/1/3 133/1/3
f 137/1/3 132/1/3 131/1/3
f 137/1/3 133/1/3 132/1/3
f 138/1/3 134/1/3 137/1/3
f 139/1/3 134/1/3 138/1/3
f 140/2/3 135/2/3 134/2/3
f 140/1/3 134/1/3 139/1/3
f 140/2/3 136/2/3 135/2/3
f 141/2/3 136/2/3 140/2/3
f 142/2/3 116/2/3 136/2/3
f 142/2/3 136/2/3 141/2/3
f 143/1/3 139/1/3 138/1/3
f 144/2/3 141/2/3 140/2/3
f 144/1/3 139/1/3 143/1/3
f 144/2/3 140/2/3 139/2/3
f 145/2/3 141/2/3 144/2/3
f 146/4/3 145/4/3 144/4/3
f 147/2/3 141/2/3 145/2/3
f 147/4/3 145/4/3 146/4/3
f 148/2/3 141/2/3 147/2/3
f 152/1/3 150/1/3 149/1/3
f 153/1/3 152/1/3 151/1/3
f 154/1/3 150/1/3 152/1/3
f 154/1/3 152/1/3 153/1/3
f 155/1/3 150/1/3 154/1/3
f 156/1/3 150/1/3 155/1/3
f 160/1/3 158/1/3 157/1/3
f 161/1/3 160/1/3 159/1/3
f 162/1/3 158/1/3 160/1/3
f 162/1/3 160/1/3 161/1/3
f 163/1/3 158/1/3 162/1/3
f 164/1/3 158/1/3 163/1/3
f 165/1/4 166/1/4 168/1/4
f 167/1/4 168/1/4 169/1/4
f 168/1/4 166/1/4 170/1/4
f 169/1/4 168/1/4 170/1/4
f 170/1/4 166/1/4 171/1/4
f 171/1/4 166/1/4 172/1/4
f 173/1/4 174/1/4 176/1/4
f 175/1/4 176/1/4 177/1/4
f 176/1/4 174/1/4 178/1/4
f 177/1/4 176/1/4 178/1/4
f 178/1/4 174/1/4 179/1/4
f 179/1/4 174/1/4 180/1/4
f 181/4/4 182/4/4 185/4/4
f 182/2/4 183/2/4 186/2/4
f 185/4/4 182/4/4 186/4/4
f 184/1/4 185/1/4 188/1/4
f 185/2/4 186/2/4 189/2/4
f 188/1/4 185/1/4 189/1/4
f 186/2/4 183/2/4 190/2/4
f 189/2/4 186/2/4 190/2/4
f 190/2/4 183/2/4 191/2/4
f 190/2/4 191/2/4 193/2/4
f 191/2/4 192/2/4 193/2/4
f 193/2/4 192/2/4 194/2/4
f 188/1/4 189/1/4 195/1/4
f 187/1/4 188/1/4 195/1/4
f 189/1/4 190/1/4 195/1/4
f 195/1/4 190/1/4 196/1/4
f 196/1/4 190/1/4 197/1/4
f 190/2/4 193/2/4 198/2/4
f 197/1/4 190/1/4 198/1/4
f 196/1/4 197/1/4 199/1/4
f 197/2/4 198/2/4 200/2/4
f 199/1/4 197/1/4 200/1/4
f 193/3/4 194/3/4 201/3/4
f 200/2/4 198/2/4 201/2/4
f 198/2/4 193/2/4 201/2/4
f 194/2/4 192/2/4 202/2/4
f 201/3/4 194/3/4 202/3/4
f 200/2/4 201/2/4 203/2/4
f 201/2/4 202/2/4 203/2/4
f 202/2/4 192/2/4 204/2/4
f 203/2/4 202/2/4 204/2/4
f 200/2/4 203/2/4 206/2/4
f 205/1/4 206/1/4 208/1/4
f 206/2/4 203/2/4 209/2/4
f 208/1/4 206/1/4 209/1/4
f 209/2/4 203/2/4 210/2/4
f 203/3/4 204/3/4 211/3/4
f 210/2/4 203/2/4 211/2/4
f 204/2/4 192/2/4 212/2/4
f 211/3/4 204/3/4 212/3/4
f 209/1/4 210/1/4 213/1/4
f 207/1/4 208/1/4 213/1/4
f 208/1/4 209/1/4 213/1/4
f 213/1/4 210/1/4 214/1/4
f 214/1/4 210/1/4 215/1/4
f 210/2/4 211/2/4 216/2/4
f 215/1/4 210/1/4 216/1/4
f 211/2/4 212/2/4 216/2/4
f 216/2/4 212/2/4 217/2/4
f 212/2/4 192/2/4 218/2/4
f 217/2/4 212/2/4 218/2/4
f 214/1/4 215/1/4 219/1/4
f 216/2/4 217/2/4 220/2/4
f 219/1/4 215/1/4 220/1/4
f 215/2/4 216/2/4 220/2/4
f 220/2/4 217/2/4 221/2/4
f 220/4/4 221/4/4 222/4/4
f 221/2/4 217/2/4 223/2/4
f 222/4/4 221/4/4 223/4/4
f 223/2/4 217/2/4 224/2/4
f 229/1/5 226/1/5 225/1/5
f 230/1/5 226/1/5 229/1/5
f 231/1/5 228/1/5 227/1/5
f 232/1/5 228/1/5 231/1/5
f 237/1/5 234/1/5 233/1/5
f 238/1/5 234/1/5 237/1/5
f 239/1/5 236/1/5 235/1/5
f 240/1/5 236/1/5 239/1/5
f 249/1/5 242/1/5 241/1/5
f 250/1/5 242/1/5 249/1/5
f 251/1/5 244/1/5 243/1/5
f 252/1/5 244/1/5 251/1/5
f 253/1/5 246/1/5 245/1/5
f 254/1/5 246/1/5 253/1/5
f 255/1/5 248/1/5 247/1/5
f 256/1/5 248/1/5 255/1/5
f 265/1/5 258/1/5 257/1/5
f 266/1/5 258/1/5 265/1/5
f 267/1/5 260/1/5 259/1/5
f 268/1/5 260/1/5 267/1/5
f 269/1/5 262/1/5 261/1/5
f 270/1/5 262/1/5 269/1/5
f 271/1/5 264/1/5 263/1/5
f 272/1/5 264/1/5 271/1/5
f 279/4/5 274/4/5 273/4/5
f 280/4/5 274/4/5 279/4/5
f 281/2/5 276/2/5 275/2/5
f 282/2/5 276/2/5 281/2/5
f 283/4/5 278/4/5 277/4/5
f 284/4/5 278/4/5 283/4/5
f 285/2/5 282/2/5 281/2/5
f 285/2/5 280/2/5 279/2/5
f 285/2/5 284/2/5 283/2/5
f 285/2/5 283/2/5 282/2/5
f 285/2/5 281/2/5 280/2/5
f 286/2/5 284/2/5 285/2/5
f 287/2/5 284/2/5 286/2/5
f 288/2/5 284/2/5 287/2/5
f 289/2/5 284/2/5 288/2/5
f 290/2/5 284/2/5 289/2/5
f 291/4/5 286/4/5 285/4/5
f 292/4/5 286/4/5 291/4/5
f 293/2/5 288/2/5 287/2/5
f 294/2/5 288/2/5 293/2/5
f 295/4/5 290/4/5 289/4/5
f 296/4/5 290/4/5 295/4/5
f 297/2/6 298/2/6 301/2/6
f 299/2/6 300/2/6 302/2/6
f 302/2/6 300/2/6 303/2/6
f 297/2/6 301/2/6 304/2/6
f 302/3/6 303/3/6 305/3/6
f 305/3/6 303/3/6 306/3/6
f 297/2/6 304/2/6 307/2/6
f 307/2/6 304/2/6 308/2/6
f 305/2/6 306/2/6 309/2/6
f 309/2/6 306/2/6 310/2/6
f 311/2/6 312/2/6 313/2/6
f 313/2/6 312/2/6 314/2/6
f 313/3/6 314/3/6 315/3/6
f 314/2/6 312/2/6 316/2/6
f 315/3/6 314/3/6 316/3/6
f 315/2/6 316/2/6 317/2/6
f 316/2/6 312/2/6 318/2/6
f 317/2/6 316/2/6 318/2/6
