# MagicaVoxel @ Ephtracy

# group
o 

# material
mtllib pinecone.mtl
usemtl palette

# normals
vn -1 0 0
vn 1 0 0
vn 0 0 1
vn 0 0 -1
vn 0 -1 0
vn 0 1 0

# texcoords
vt 0.939453 0.5
vt 0.943359 0.5

# verts
v -0.6 0.1 0.5
v -0.6 0.1 -5.96046e-08
v -0.6 0.2 0.3
v -0.6 0.2 0.1
v -0.6 0.3 0.5
v -0.6 0.3 0.4
v -0.6 0.4 0.5
v -0.6 0.4 0.4
v -0.6 0.4 0.3
v -0.6 0.4 0.1
v -0.6 0.4 -5.96046e-08
v -0.5 0 0.4
v -0.5 0 0.1
v -0.5 0.1 0.6
v -0.5 0.1 0.5
v -0.5 0.1 0.4
v -0.5 0.1 0.1
v -0.5 0.1 -5.96046e-08
v -0.5 0.1 -0.1
v -0.5 0.3 0.6
v -0.5 0.3 0.5
v -0.5 0.3 -5.96046e-08
v -0.5 0.3 -0.1
v -0.5 0.4 0.6
v -0.5 0.4 0.5
v -0.5 0.4 0.4
v -0.5 0.4 0.3
v -0.5 0.4 0.1
v -0.5 0.4 -5.96046e-08
v -0.5 0.4 -0.1
v -0.5 0.6 0.4
v -0.5 0.6 0.3
v -0.5 0.6 0.1
v -0.4 0 0.5
v -0.4 0 0.4
v -0.4 0 0.1
v -0.4 0 -5.96046e-08
v -0.4 0.1 0.7
v -0.4 0.1 0.6
v -0.4 0.1 0.5
v -0.4 0.1 0.4
v -0.4 0.1 0.1
v -0.4 0.1 -5.96046e-08
v -0.4 0.1 -0.1
v -0.4 0.1 -0.2
v -0.4 0.2 0.7
v -0.4 0.2 0.6
v -0.4 0.3 0.6
v -0.4 0.3 -0.1
v -0.4 0.3 -0.2
v -0.4 0.4 0.7
v -0.4 0.4 0.6
v -0.4 0.4 0.5
v -0.4 0.4 0.4
v -0.4 0.4 0.1
v -0.4 0.4 -5.96046e-08
v -0.4 0.4 -0.1
v -0.4 0.4 -0.2
v -0.4 0.5 0.5
v -0.4 0.5 0.4
v -0.4 0.6 0.5
v -0.4 0.6 0.4
v -0.4 0.6 0.3
v -0.4 0.6 0.2
v -0.4 0.6 0.1
v -0.4 0.6 -5.96046e-08
v -0.4 0.7 0.4
v -0.4 0.7 0.2
v -0.4 0.7 0.1
v -0.4 0.8 0.4
v -0.4 0.8 0.2
v -0.4 0.8 0.1
v -0.3 0 0.6
v -0.3 0 0.5
v -0.3 0 -5.96046e-08
v -0.3 0 -0.1
v -0.3 0.1 0.6
v -0.3 0.1 0.5
v -0.3 0.1 -5.96046e-08
v -0.3 0.1 -0.1
v -0.3 0.4 0.6
v -0.3 0.4 0.5
v -0.3 0.4 -5.96046e-08
v -0.3 0.4 -0.1
v -0.3 0.5 0.6
v -0.3 0.5 0.5
v -0.3 0.6 0.6
v -0.3 0.6 0.5
v -0.3 0.6 0.4
v -0.3 0.6 0.1
v -0.3 0.6 -5.96046e-08
v -0.3 0.6 -0.1
v -0.3 0.7 0.5
v -0.3 0.7 0.4
v -0.3 0.7 0.1
v -0.3 0.7 -5.96046e-08
v -0.3 0.8 0.5
v -0.3 0.8 0.4
v -0.3 0.8 0.2
v -0.3 0.8 0.1
v -0.3 0.8 -5.96046e-08
v -0.3 0.9 0.4
v -0.3 0.9 0.2
v -0.3 0.9 0.1
v -0.2 0.9 0.3
v -0.2 0.9 0.2
v -0.2 1 0.3
v -0.2 1 0.2
v -0.0999999 0.9 0.3
v -0.0999999 0.9 0.2
v -0.0999999 1 0.3
v -0.0999999 1 0.2
v 5.96046e-08 0 0.6
v 5.96046e-08 0 0.5
v 5.96046e-08 0 -5.96046e-08
v 5.96046e-08 0 -0.1
v 5.96046e-08 0.1 0.6
v 5.96046e-08 0.1 0.5
v 5.96046e-08 0.1 -5.96046e-08
v 5.96046e-08 0.1 -0.1
v 5.96046e-08 0.4 0.6
v 5.96046e-08 0.4 0.5
v 5.96046e-08 0.4 -5.96046e-08
v 5.96046e-08 0.4 -0.1
v 5.96046e-08 0.5 0.6
v 5.96046e-08 0.5 0.5
v 5.96046e-08 0.6 0.6
v 5.96046e-08 0.6 0.5
v 5.96046e-08 0.6 0.4
v 5.96046e-08 0.6 0.1
v 5.96046e-08 0.6 -5.96046e-08
v 5.96046e-08 0.6 -0.1
v 5.96046e-08 0.8 0.5
v 5.96046e-08 0.8 0.4
v 5.96046e-08 0.8 0.3
v 5.96046e-08 0.8 0.2
v 5.96046e-08 0.8 0.1
v 5.96046e-08 0.8 -5.96046e-08
v 5.96046e-08 0.9 0.4
v 5.96046e-08 0.9 0.3
v 5.96046e-08 0.9 0.1
v 0.1 0 0.5
v 0.1 0 0.4
v 0.1 0 0.1
v 0.1 0 -5.96046e-08
v 0.1 0.1 0.7
v 0.1 0.1 0.6
v 0.1 0.1 0.5
v 0.1 0.1 0.4
v 0.1 0.1 0.1
v 0.1 0.1 -5.96046e-08
v 0.1 0.1 -0.1
v 0.1 0.1 -0.2
v 0.1 0.2 -0.1
v 0.1 0.4 0.7
v 0.1 0.4 0.6
v 0.1 0.4 0.5
v 0.1 0.4 0.4
v 0.1 0.4 0.1
v 0.1 0.4 -5.96046e-08
v 0.1 0.4 -0.1
v 0.1 0.4 -0.2
v 0.1 0.6 0.5
v 0.1 0.6 0.4
v 0.1 0.6 0.3
v 0.1 0.6 0.2
v 0.1 0.6 0.1
v 0.1 0.6 -5.96046e-08
v 0.1 0.8 0.4
v 0.1 0.8 0.2
v 0.1 0.8 0.1
v 0.2 0 0.4
v 0.2 0 0.1
v 0.2 0.1 0.6
v 0.2 0.1 0.5
v 0.2 0.1 0.4
v 0.2 0.1 0.1
v 0.2 0.1 -5.96046e-08
v 0.2 0.1 -0.1
v 0.2 0.2 0.5
v 0.2 0.2 -5.96046e-08
v 0.2 0.2 -0.1
v 0.2 0.4 0.6
v 0.2 0.4 0.5
v 0.2 0.4 0.4
v 0.2 0.4 0.3
v 0.2 0.4 0.1
v 0.2 0.4 -5.96046e-08
v 0.2 0.4 -0.1
v 0.2 0.6 0.4
v 0.2 0.6 0.3
v 0.2 0.6 0.1
v 0.3 0.1 0.5
v 0.3 0.1 -5.96046e-08
v 0.3 0.2 0.5
v 0.3 0.2 0.3
v 0.3 0.2 0.1
v 0.3 0.2 -5.96046e-08
v 0.3 0.4 0.5
v 0.3 0.4 0.3
v 0.3 0.4 0.1
v 0.3 0.4 -5.96046e-08
v -0.4 0.1 0.7
v -0.4 0.2 0.7
v -0.4 0.4 0.7
v -0.2 0.2 0.7
v -0.2 0.4 0.7
v -0.0999999 0.1 0.7
v -0.0999999 0.4 0.7
v 0.1 0.1 0.7
v 0.1 0.4 0.7
v -0.5 0.1 0.6
v -0.5 0.3 0.6
v -0.5 0.4 0.6
v -0.4 0.1 0.6
v -0.4 0.2 0.6
v -0.4 0.3 0.6
v -0.4 0.4 0.6
v -0.3 0 0.6
v -0.3 0.1 0.6
v -0.3 0.4 0.6
v -0.3 0.5 0.6
v -0.3 0.6 0.6
v -0.2 0.4 0.6
v -0.2 0.5 0.6
v -0.2 0.6 0.6
v -0.0999999 0.1 0.6
v -0.0999999 0.4 0.6
v 5.96046e-08 0 0.6
v 5.96046e-08 0.1 0.6
v 5.96046e-08 0.4 0.6
v 5.96046e-08 0.5 0.6
v 5.96046e-08 0.6 0.6
v 0.1 0.1 0.6
v 0.1 0.4 0.6
v 0.2 0.1 0.6
v 0.2 0.4 0.6
v -0.6 0.1 0.5
v -0.6 0.3 0.5
v -0.6 0.4 0.5
v -0.5 0.1 0.5
v -0.5 0.3 0.5
v -0.5 0.4 0.5
v -0.4 0 0.5
v -0.4 0.1 0.5
v -0.4 0.4 0.5
v -0.4 0.5 0.5
v -0.4 0.6 0.5
v -0.3 0 0.5
v -0.3 0.1 0.5
v -0.3 0.4 0.5
v -0.3 0.5 0.5
v -0.3 0.6 0.5
v -0.3 0.7 0.5
v -0.3 0.8 0.5
v -0.2 0.6 0.5
v -0.2 0.7 0.5
v -0.2 0.8 0.5
v 5.96046e-08 0 0.5
v 5.96046e-08 0.1 0.5
v 5.96046e-08 0.4 0.5
v 5.96046e-08 0.5 0.5
v 5.96046e-08 0.6 0.5
v 5.96046e-08 0.8 0.5
v 0.1 0 0.5
v 0.1 0.1 0.5
v 0.1 0.4 0.5
v 0.1 0.6 0.5
v 0.2 0.1 0.5
v 0.2 0.2 0.5
v 0.2 0.4 0.5
v 0.3 0.1 0.5
v 0.3 0.2 0.5
v 0.3 0.4 0.5
v -0.5 0 0.4
v -0.5 0.1 0.4
v -0.5 0.4 0.4
v -0.5 0.6 0.4
v -0.4 0 0.4
v -0.4 0.1 0.4
v -0.4 0.4 0.4
v -0.4 0.5 0.4
v -0.4 0.6 0.4
v -0.4 0.7 0.4
v -0.4 0.8 0.4
v -0.3 0.6 0.4
v -0.3 0.7 0.4
v -0.3 0.8 0.4
v -0.3 0.9 0.4
v -0.2 0.8 0.4
v -0.2 0.9 0.4
v 5.96046e-08 0.6 0.4
v 5.96046e-08 0.8 0.4
v 5.96046e-08 0.9 0.4
v 0.1 0 0.4
v 0.1 0.1 0.4
v 0.1 0.4 0.4
v 0.1 0.6 0.4
v 0.1 0.8 0.4
v 0.2 0 0.4
v 0.2 0.1 0.4
v 0.2 0.4 0.4
v 0.2 0.6 0.4
v -0.2 0.9 0.3
v -0.2 1 0.3
v -0.0999999 0.9 0.3
v -0.0999999 1 0.3
v -0.2 0.9 0.2
v -0.2 1 0.2
v -0.0999999 0.9 0.2
v -0.0999999 1 0.2
v -0.5 0 0.1
v -0.5 0.1 0.1
v -0.5 0.4 0.1
v -0.5 0.6 0.1
v -0.4 0 0.1
v -0.4 0.1 0.1
v -0.4 0.4 0.1
v -0.4 0.6 0.1
v -0.4 0.7 0.1
v -0.4 0.8 0.1
v -0.3 0.6 0.1
v -0.3 0.7 0.1
v -0.3 0.8 0.1
v -0.3 0.9 0.1
v -0.0999999 0.8 0.1
v -0.0999999 0.9 0.1
v 5.96046e-08 0.6 0.1
v 5.96046e-08 0.8 0.1
v 5.96046e-08 0.9 0.1
v 0.1 0 0.1
v 0.1 0.1 0.1
v 0.1 0.4 0.1
v 0.1 0.6 0.1
v 0.1 0.8 0.1
v 0.2 0 0.1
v 0.2 0.1 0.1
v 0.2 0.4 0.1
v 0.2 0.6 0.1
v -0.6 0.1 -5.96046e-08
v -0.6 0.4 -5.96046e-08
v -0.5 0.1 -5.96046e-08
v -0.5 0.3 -5.96046e-08
v -0.5 0.4 -5.96046e-08
v -0.4 0 -5.96046e-08
v -0.4 0.1 -5.96046e-08
v -0.4 0.4 -5.96046e-08
v -0.4 0.6 -5.96046e-08
v -0.3 0 -5.96046e-08
v -0.3 0.1 -5.96046e-08
v -0.3 0.4 -5.96046e-08
v -0.3 0.6 -5.96046e-08
v -0.3 0.7 -5.96046e-08
v -0.3 0.8 -5.96046e-08
v -0.2 0.6 -5.96046e-08
v -0.2 0.7 -5.96046e-08
v 5.96046e-08 0 -5.96046e-08
v 5.96046e-08 0.1 -5.96046e-08
v 5.96046e-08 0.4 -5.96046e-08
v 5.96046e-08 0.6 -5.96046e-08
v 5.96046e-08 0.8 -5.96046e-08
v 0.1 0 -5.96046e-08
v 0.1 0.1 -5.96046e-08
v 0.1 0.4 -5.96046e-08
v 0.1 0.6 -5.96046e-08
v 0.2 0.1 -5.96046e-08
v 0.2 0.2 -5.96046e-08
v 0.2 0.4 -5.96046e-08
v 0.3 0.1 -5.96046e-08
v 0.3 0.2 -5.96046e-08
v 0.3 0.4 -5.96046e-08
v -0.5 0.1 -0.1
v -0.5 0.3 -0.1
v -0.5 0.4 -0.1
v -0.4 0.1 -0.1
v -0.4 0.3 -0.1
v -0.4 0.4 -0.1
v -0.3 0 -0.1
v -0.3 0.1 -0.1
v -0.3 0.4 -0.1
v -0.3 0.6 -0.1
v -0.2 0.1 -0.1
v -0.2 0.4 -0.1
v -0.2 0.6 -0.1
v 5.96046e-08 0 -0.1
v 5.96046e-08 0.1 -0.1
v 5.96046e-08 0.4 -0.1
v 5.96046e-08 0.6 -0.1
v 0.1 0.1 -0.1
v 0.1 0.2 -0.1
v 0.1 0.4 -0.1
v 0.2 0.1 -0.1
v 0.2 0.2 -0.1
v 0.2 0.4 -0.1
v -0.4 0.1 -0.2
v -0.4 0.3 -0.2
v -0.4 0.4 -0.2
v -0.3 0.1 -0.2
v -0.3 0.3 -0.2
v -0.2 0.1 -0.2
v -0.2 0.4 -0.2
v 0.1 0.1 -0.2
v 0.1 0.4 -0.2
v -0.3 0 0.6
v 5.96046e-08 0 0.6
v -0.4 0 0.5
v -0.3 0 0.5
v 5.96046e-08 0 0.5
v 0.1 0 0.5
v -0.5 0 0.4
v -0.4 0 0.4
v 0.1 0 0.4
v 0.2 0 0.4
v -0.5 0 0.1
v -0.4 0 0.1
v 0.1 0 0.1
v 0.2 0 0.1
v -0.4 0 -5.96046e-08
v -0.3 0 -5.96046e-08
v 5.96046e-08 0 -5.96046e-08
v 0.1 0 -5.96046e-08
v -0.3 0 -0.1
v 5.96046e-08 0 -0.1
v -0.4 0.1 0.7
v -0.0999999 0.1 0.7
v 0.1 0.1 0.7
v -0.5 0.1 0.6
v -0.4 0.1 0.6
v -0.3 0.1 0.6
v -0.0999999 0.1 0.6
v 5.96046e-08 0.1 0.6
v 0.1 0.1 0.6
v 0.2 0.1 0.6
v -0.6 0.1 0.5
v -0.5 0.1 0.5
v -0.4 0.1 0.5
v -0.3 0.1 0.5
v 5.96046e-08 0.1 0.5
v 0.1 0.1 0.5
v 0.2 0.1 0.5
v 0.3 0.1 0.5
v -0.5 0.1 0.4
v -0.4 0.1 0.4
v 0.1 0.1 0.4
v 0.2 0.1 0.4
v -0.5 0.1 0.1
v -0.4 0.1 0.1
v 0.1 0.1 0.1
v 0.2 0.1 0.1
v -0.6 0.1 -5.96046e-08
v -0.5 0.1 -5.96046e-08
v -0.4 0.1 -5.96046e-08
v -0.3 0.1 -5.96046e-08
v 5.96046e-08 0.1 -5.96046e-08
v 0.1 0.1 -5.96046e-08
v 0.2 0.1 -5.96046e-08
v 0.3 0.1 -5.96046e-08
v -0.5 0.1 -0.1
v -0.4 0.1 -0.1
v -0.3 0.1 -0.1
v -0.2 0.1 -0.1
v 5.96046e-08 0.1 -0.1
v 0.1 0.1 -0.1
v 0.2 0.1 -0.1
v -0.4 0.1 -0.2
v -0.3 0.1 -0.2
v -0.2 0.1 -0.2
v 0.1 0.1 -0.2
v -0.4 0.4 0.7
v -0.2 0.4 0.7
v -0.0999999 0.4 0.7
v 0.1 0.4 0.7
v -0.5 0.4 0.6
v -0.4 0.4 0.6
v -0.3 0.4 0.6
v -0.2 0.4 0.6
v -0.0999999 0.4 0.6
v 5.96046e-08 0.4 0.6
v 0.1 0.4 0.6
v 0.2 0.4 0.6
v -0.6 0.4 0.5
v -0.5 0.4 0.5
v -0.4 0.4 0.5
v -0.3 0.4 0.5
v 5.96046e-08 0.4 0.5
v 0.1 0.4 0.5
v 0.2 0.4 0.5
v 0.3 0.4 0.5
v -0.6 0.4 0.4
v -0.5 0.4 0.4
v -0.4 0.4 0.4
v 0.1 0.4 0.4
v 0.2 0.4 0.4
v -0.6 0.4 0.3
v -0.5 0.4 0.3
v 0.2 0.4 0.3
v 0.3 0.4 0.3
v -0.6 0.4 0.1
v -0.5 0.4 0.1
v -0.4 0.4 0.1
v 0.1 0.4 0.1
v 0.2 0.4 0.1
v 0.3 0.4 0.1
v -0.6 0.4 -5.96046e-08
v -0.5 0.4 -5.96046e-08
v -0.4 0.4 -5.96046e-08
v -0.3 0.4 -5.96046e-08
v 5.96046e-08 0.4 -5.96046e-08
v 0.1 0.4 -5.96046e-08
v 0.2 0.4 -5.96046e-08
v 0.3 0.4 -5.96046e-08
v -0.5 0.4 -0.1
v -0.4 0.4 -0.1
v -0.3 0.4 -0.1
v -0.2 0.4 -0.1
v 5.96046e-08 0.4 -0.1
v 0.1 0.4 -0.1
v 0.2 0.4 -0.1
v -0.4 0.4 -0.2
v -0.2 0.4 -0.2
v 0.1 0.4 -0.2
v -0.3 0.6 0.6
v -0.2 0.6 0.6
v 5.96046e-08 0.6 0.6
v -0.4 0.6 0.5
v -0.3 0.6 0.5
v -0.2 0.6 0.5
v 5.96046e-08 0.6 0.5
v 0.1 0.6 0.5
v -0.5 0.6 0.4
v -0.4 0.6 0.4
v -0.3 0.6 0.4
v 5.96046e-08 0.6 0.4
v 0.1 0.6 0.4
v 0.2 0.6 0.4
v -0.5 0.6 0.3
v -0.4 0.6 0.3
v 0.1 0.6 0.3
v 0.2 0.6 0.3
v -0.4 0.6 0.2
v 0.1 0.6 0.2
v -0.5 0.6 0.1
v -0.4 0.6 0.1
v -0.3 0.6 0.1
v 5.96046e-08 0.6 0.1
v 0.1 0.6 0.1
v 0.2 0.6 0.1
v -0.4 0.6 -5.96046e-08
v -0.3 0.6 -5.96046e-08
v -0.2 0.6 -5.96046e-08
v 5.96046e-08 0.6 -5.96046e-08
v 0.1 0.6 -5.96046e-08
v -0.3 0.6 -0.1
v -0.2 0.6 -0.1
v 5.96046e-08 0.6 -0.1
v -0.3 0.8 0.5
v -0.2 0.8 0.5
v 5.96046e-08 0.8 0.5
v -0.4 0.8 0.4
v -0.3 0.8 0.4
v -0.2 0.8 0.4
v 5.96046e-08 0.8 0.4
v 0.1 0.8 0.4
v 5.96046e-08 0.8 0.3
v -0.4 0.8 0.2
v -0.3 0.8 0.2
v 5.96046e-08 0.8 0.2
v 0.1 0.8 0.2
v -0.4 0.8 0.1
v -0.3 0.8 0.1
v -0.0999999 0.8 0.1
v 5.96046e-08 0.8 0.1
v 0.1 0.8 0.1
v -0.3 0.8 -5.96046e-08
v 5.96046e-08 0.8 -5.96046e-08
v -0.3 0.9 0.4
v -0.2 0.9 0.4
v 5.96046e-08 0.9 0.4
v -0.2 0.9 0.3
v -0.0999999 0.9 0.3
v 5.96046e-08 0.9 0.3
v -0.3 0.9 0.2
v -0.2 0.9 0.2
v -0.0999999 0.9 0.2
v -0.3 0.9 0.1
v -0.0999999 0.9 0.1
v 5.96046e-08 0.9 0.1
v -0.2 1 0.3
v -0.0999999 1 0.3
v -0.2 1 0.2
v -0.0999999 1 0.2

# faces
f 3/1/1 2/1/1 1/1/1
f 4/1/1 2/1/1 3/1/1
f 5/1/1 3/1/1 1/1/1
f 6/1/1 3/1/1 5/1/1
f 7/2/1 6/2/1 5/2/1
f 8/1/1 3/1/1 6/1/1
f 8/2/1 6/2/1 7/2/1
f 9/2/1 4/2/1 3/2/1
f 9/1/1 3/1/1 8/1/1
f 10/1/1 2/1/1 4/1/1
f 10/2/1 4/2/1 9/2/1
f 11/1/1 2/1/1 10/1/1
f 16/2/1 13/2/1 12/2/1
f 17/2/1 13/2/1 16/2/1
f 20/1/1 15/1/1 14/1/1
f 21/1/1 15/1/1 20/1/1
f 22/2/1 19/2/1 18/2/1
f 23/2/1 19/2/1 22/2/1
f 24/2/1 21/2/1 20/2/1
f 25/2/1 21/2/1 24/2/1
f 29/1/1 23/1/1 22/1/1
f 30/1/1 23/1/1 29/1/1
f 31/1/1 27/1/1 26/1/1
f 32/2/1 28/2/1 27/2/1
f 32/1/1 27/1/1 31/1/1
f 33/2/1 28/2/1 32/2/1
f 40/2/1 35/2/1 34/2/1
f 41/2/1 35/2/1 40/2/1
f 42/2/1 37/2/1 36/2/1
f 43/2/1 37/2/1 42/2/1
f 46/1/1 39/1/1 38/1/1
f 47/1/1 39/1/1 46/1/1
f 48/2/1 47/2/1 46/2/1
f 49/2/1 45/2/1 44/2/1
f 50/2/1 45/2/1 49/2/1
f 51/2/1 48/2/1 46/2/1
f 52/2/1 48/2/1 51/2/1
f 57/1/1 50/1/1 49/1/1
f 58/1/1 50/1/1 57/1/1
f 59/2/1 54/2/1 53/2/1
f 60/2/1 54/2/1 59/2/1
f 61/1/1 60/1/1 59/1/1
f 62/1/1 60/1/1 61/1/1
f 65/1/1 56/1/1 55/1/1
f 66/1/1 56/1/1 65/1/1
f 67/1/1 64/1/1 63/1/1
f 67/1/1 63/1/1 62/1/1
f 68/2/1 65/2/1 64/2/1
f 68/1/1 64/1/1 67/1/1
f 69/2/1 65/2/1 68/2/1
f 70/2/1 68/2/1 67/2/1
f 71/1/1 69/1/1 68/1/1
f 71/2/1 68/2/1 70/2/1
f 72/1/1 69/1/1 71/1/1
f 77/2/1 74/2/1 73/2/1
f 78/2/1 74/2/1 77/2/1
f 79/2/1 76/2/1 75/2/1
f 80/2/1 76/2/1 79/2/1
f 85/2/1 82/2/1 81/2/1
f 86/2/1 82/2/1 85/2/1
f 87/1/1 86/1/1 85/1/1
f 88/1/1 86/1/1 87/1/1
f 91/1/1 84/1/1 83/1/1
f 92/1/1 84/1/1 91/1/1
f 93/1/1 89/1/1 88/1/1
f 94/1/1 89/1/1 93/1/1
f 95/2/1 91/2/1 90/2/1
f 96/2/1 91/2/1 95/2/1
f 97/2/1 94/2/1 93/2/1
f 98/2/1 94/2/1 97/2/1
f 100/1/1 96/1/1 95/1/1
f 101/1/1 96/1/1 100/1/1
f 102/2/1 99/2/1 98/2/1
f 103/1/1 100/1/1 99/1/1
f 103/2/1 99/2/1 102/2/1
f 104/1/1 100/1/1 103/1/1
f 107/1/1 106/1/1 105/1/1
f 108/1/1 106/1/1 107/1/1
f 109/1/2 110/1/2 111/1/2
f 111/1/2 110/1/2 112/1/2
f 113/2/2 114/2/2 117/2/2
f 117/2/2 114/2/2 118/2/2
f 115/2/2 116/2/2 119/2/2
f 119/2/2 116/2/2 120/2/2
f 121/1/2 122/1/2 125/1/2
f 125/1/2 122/1/2 126/1/2
f 125/2/2 126/2/2 127/2/2
f 127/2/2 126/2/2 128/2/2
f 123/2/2 124/2/2 131/2/2
f 131/2/2 124/2/2 132/2/2
f 128/1/2 129/1/2 133/1/2
f 133/1/2 129/1/2 134/1/2
f 130/1/2 131/1/2 137/1/2
f 137/1/2 131/1/2 138/1/2
f 134/1/2 135/1/2 139/1/2
f 135/2/2 136/2/2 140/2/2
f 139/1/2 135/1/2 140/1/2
f 136/2/2 137/2/2 140/2/2
f 140/2/2 137/2/2 141/2/2
f 142/2/2 143/2/2 148/2/2
f 148/2/2 143/2/2 149/2/2
f 144/2/2 145/2/2 150/2/2
f 150/2/2 145/2/2 151/2/2
f 152/2/2 153/2/2 154/2/2
f 146/2/2 147/2/2 155/2/2
f 155/2/2 147/2/2 156/2/2
f 154/2/2 153/2/2 161/2/2
f 161/2/2 153/2/2 162/2/2
f 157/1/2 158/1/2 163/1/2
f 163/1/2 158/1/2 164/1/2
f 159/2/2 160/2/2 167/2/2
f 167/2/2 160/2/2 168/2/2
f 165/2/2 166/2/2 169/2/2
f 164/2/2 165/2/2 169/2/2
f 166/1/2 167/1/2 170/1/2
f 169/2/2 166/2/2 170/2/2
f 170/1/2 167/1/2 171/1/2
f 172/2/2 173/2/2 176/2/2
f 176/2/2 173/2/2 177/2/2
f 174/1/2 175/1/2 180/1/2
f 178/1/2 179/1/2 181/1/2
f 181/1/2 179/1/2 182/1/2
f 174/1/2 180/1/2 183/1/2
f 183/1/2 180/1/2 184/1/2
f 181/2/2 182/2/2 188/2/2
f 188/2/2 182/2/2 189/2/2
f 185/1/2 186/1/2 190/1/2
f 186/2/2 187/2/2 191/2/2
f 190/1/2 186/1/2 191/1/2
f 191/2/2 187/2/2 192/2/2
f 193/1/2 194/1/2 195/1/2
f 195/1/2 194/1/2 196/1/2
f 196/1/2 194/1/2 197/1/2
f 197/1/2 194/1/2 198/1/2
f 195/2/2 196/2/2 199/2/2
f 196/1/2 197/1/2 200/1/2
f 199/2/2 196/2/2 200/2/2
f 197/2/2 198/2/2 201/2/2
f 200/1/2 197/1/2 201/1/2
f 201/2/2 198/2/2 202/2/2
f 206/1/3 204/1/3 203/1/3
f 206/2/3 205/2/3 204/2/3
f 207/2/3 205/2/3 206/2/3
f 208/1/3 206/1/3 203/1/3
f 208/1/3 207/1/3 206/1/3
f 209/1/3 207/1/3 208/1/3
f 210/2/3 209/2/3 208/2/3
f 211/2/3 209/2/3 210/2/3
f 215/1/3 213/1/3 212/1/3
f 216/1/3 213/1/3 215/1/3
f 217/2/3 214/2/3 213/2/3
f 217/1/3 213/1/3 216/1/3
f 218/2/3 214/2/3 217/2/3
f 224/2/3 222/2/3 221/2/3
f 225/1/3 223/1/3 222/1/3
f 225/2/3 222/2/3 224/2/3
f 226/1/3 223/1/3 225/1/3
f 227/2/3 220/2/3 219/2/3
f 228/1/3 225/1/3 224/1/3
f 229/2/3 227/2/3 219/2/3
f 230/2/3 227/2/3 229/2/3
f 231/1/3 225/1/3 228/1/3
f 232/2/3 226/2/3 225/2/3
f 232/1/3 225/1/3 231/1/3
f 233/2/3 226/2/3 232/2/3
f 236/1/3 235/1/3 234/1/3
f 237/1/3 235/1/3 236/1/3
f 241/1/3 239/1/3 238/1/3
f 242/2/3 240/2/3 239/2/3
f 242/1/3 239/1/3 241/1/3
f 243/2/3 240/2/3 242/2/3
f 249/2/3 245/2/3 244/2/3
f 250/2/3 245/2/3 249/2/3
f 251/2/3 247/2/3 246/2/3
f 252/1/3 248/1/3 247/1/3
f 252/2/3 247/2/3 251/2/3
f 253/1/3 248/1/3 252/1/3
f 256/1/3 254/1/3 253/1/3
f 257/2/3 255/2/3 254/2/3
f 257/1/3 254/1/3 256/1/3
f 258/2/3 255/2/3 257/2/3
f 263/1/3 257/1/3 256/1/3
f 263/1/3 258/1/3 257/1/3
f 264/1/3 258/1/3 263/1/3
f 265/2/3 260/2/3 259/2/3
f 266/2/3 260/2/3 265/2/3
f 267/1/3 262/1/3 261/1/3
f 267/1/3 263/1/3 262/1/3
f 268/1/3 263/1/3 267/1/3
f 272/1/3 270/1/3 269/1/3
f 273/2/3 271/2/3 270/2/3
f 273/1/3 270/1/3 272/1/3
f 274/2/3 271/2/3 273/2/3
f 279/2/3 276/2/3 275/2/3
f 280/2/3 276/2/3 279/2/3
f 281/1/3 278/1/3 277/1/3
f 282/1/3 278/1/3 281/1/3
f 283/1/3 278/1/3 282/1/3
f 286/1/3 284/1/3 283/1/3
f 287/2/3 285/2/3 284/2/3
f 287/1/3 284/1/3 286/1/3
f 288/2/3 285/2/3 287/2/3
f 290/2/3 289/2/3 288/2/3
f 291/2/3 289/2/3 290/2/3
f 293/1/3 291/1/3 290/1/3
f 294/1/3 291/1/3 293/1/3
f 298/2/3 293/2/3 292/2/3
f 299/2/3 293/2/3 298/2/3
f 300/2/3 296/2/3 295/2/3
f 301/2/3 296/2/3 300/2/3
f 302/1/3 298/1/3 297/1/3
f 303/1/3 298/1/3 302/1/3
f 306/1/3 305/1/3 304/1/3
f 307/1/3 305/1/3 306/1/3
f 308/1/4 309/1/4 310/1/4
f 310/1/4 309/1/4 311/1/4
f 312/2/4 313/2/4 316/2/4
f 316/2/4 313/2/4 317/2/4
f 314/2/4 315/2/4 318/2/4
f 318/2/4 315/2/4 319/2/4
f 319/2/4 320/2/4 322/2/4
f 320/1/4 321/1/4 323/1/4
f 322/2/4 320/2/4 323/2/4
f 323/1/4 321/1/4 324/1/4
f 324/1/4 325/1/4 326/1/4
f 326/1/4 325/1/4 327/1/4
f 326/2/4 327/2/4 329/2/4
f 329/2/4 327/2/4 330/2/4
f 328/1/4 329/1/4 334/1/4
f 334/1/4 329/1/4 335/1/4
f 331/2/4 332/2/4 336/2/4
f 336/2/4 332/2/4 337/2/4
f 333/2/4 334/2/4 338/2/4
f 338/2/4 334/2/4 339/2/4
f 340/1/4 341/1/4 342/1/4
f 342/1/4 341/1/4 343/1/4
f 343/1/4 341/1/4 344/1/4
f 345/2/4 346/2/4 349/2/4
f 349/2/4 346/2/4 350/2/4
f 347/1/4 348/1/4 351/1/4
f 351/1/4 348/1/4 352/1/4
f 352/2/4 353/2/4 355/2/4
f 353/1/4 354/1/4 356/1/4
f 355/2/4 353/2/4 356/2/4
f 355/1/4 356/1/4 360/1/4
f 356/1/4 354/1/4 361/1/4
f 360/1/4 356/1/4 361/1/4
f 357/2/4 358/2/4 362/2/4
f 362/2/4 358/2/4 363/2/4
f 359/2/4 360/2/4 364/2/4
f 364/2/4 360/2/4 365/2/4
f 366/1/4 367/1/4 369/1/4
f 367/2/4 368/2/4 370/2/4
f 369/1/4 367/1/4 370/1/4
f 370/2/4 368/2/4 371/2/4
f 372/2/4 373/2/4 375/2/4
f 373/1/4 374/1/4 376/1/4
f 375/2/4 373/2/4 376/2/4
f 376/1/4 374/1/4 377/1/4
f 378/2/4 379/2/4 382/2/4
f 380/1/4 381/1/4 383/1/4
f 383/1/4 381/1/4 384/1/4
f 378/2/4 382/2/4 385/2/4
f 385/2/4 382/2/4 386/2/4
f 383/2/4 384/2/4 387/2/4
f 387/2/4 384/2/4 388/2/4
f 389/1/4 390/1/4 392/1/4
f 390/2/4 391/2/4 393/2/4
f 392/1/4 390/1/4 393/1/4
f 393/2/4 391/2/4 394/2/4
f 395/2/4 396/2/4 398/2/4
f 396/1/4 397/1/4 399/1/4
f 398/2/4 396/2/4 399/2/4
f 398/1/4 399/1/4 400/1/4
f 399/1/4 397/1/4 401/1/4
f 400/1/4 399/1/4 401/1/4
f 400/2/4 401/2/4 402/2/4
f 402/2/4 401/2/4 403/2/4
f 407/2/5 405/2/5 404/2/5
f 408/2/5 405/2/5 407/2/5
f 411/2/5 407/2/5 406/2/5
f 411/2/5 409/2/5 408/2/5
f 411/2/5 408/2/5 407/2/5
f 412/2/5 409/2/5 411/2/5
f 414/2/5 411/2/5 410/2/5
f 414/2/5 413/2/5 412/2/5
f 414/2/5 412/2/5 411/2/5
f 415/2/5 413/2/5 414/2/5
f 416/2/5 413/2/5 415/2/5
f 417/2/5 413/2/5 416/2/5
f 418/2/5 416/2/5 415/2/5
f 419/2/5 416/2/5 418/2/5
f 420/2/5 416/2/5 419/2/5
f 421/2/5 416/2/5 420/2/5
f 422/2/5 420/2/5 419/2/5
f 423/2/5 420/2/5 422/2/5
f 428/1/5 425/1/5 424/1/5
f 429/1/5 425/1/5 428/1/5
f 430/2/5 426/2/5 425/2/5
f 430/1/5 425/1/5 429/1/5
f 431/2/5 426/2/5 430/2/5
f 432/2/5 426/2/5 431/2/5
f 435/1/5 429/1/5 428/1/5
f 435/1/5 428/1/5 427/1/5
f 436/1/5 429/1/5 435/1/5
f 437/1/5 429/1/5 436/1/5
f 438/1/5 432/1/5 431/1/5
f 438/1/5 433/1/5 432/1/5
f 439/1/5 433/1/5 438/1/5
f 440/1/5 433/1/5 439/1/5
f 442/1/5 436/1/5 435/1/5
f 442/1/5 435/1/5 434/1/5
f 443/1/5 436/1/5 442/1/5
f 444/1/5 441/1/5 440/1/5
f 444/1/5 440/1/5 439/1/5
f 445/1/5 441/1/5 444/1/5
f 446/1/5 442/1/5 434/1/5
f 449/1/5 441/1/5 445/1/5
f 450/1/5 447/1/5 446/1/5
f 450/1/5 446/1/5 434/1/5
f 451/1/5 447/1/5 450/1/5
f 452/1/5 447/1/5 451/1/5
f 455/1/5 449/1/5 448/1/5
f 456/1/5 441/1/5 449/1/5
f 456/1/5 449/1/5 455/1/5
f 457/1/5 441/1/5 456/1/5
f 458/2/5 453/2/5 452/2/5
f 458/2/5 452/2/5 451/2/5
f 459/2/5 453/2/5 458/2/5
f 460/2/5 453/2/5 459/2/5
f 462/1/5 455/1/5 454/1/5
f 462/1/5 456/1/5 455/1/5
f 463/1/5 456/1/5 462/1/5
f 464/1/5 456/1/5 463/1/5
f 465/2/5 460/2/5 459/2/5
f 466/1/5 461/1/5 460/1/5
f 466/2/5 460/2/5 465/2/5
f 467/2/5 463/2/5 462/2/5
f 467/1/5 461/1/5 466/1/5
f 467/2/5 462/2/5 461/2/5
f 468/2/5 463/2/5 467/2/5
f 469/2/6 470/2/6 474/2/6
f 474/2/6 470/2/6 475/2/6
f 470/1/6 471/1/6 476/1/6
f 475/2/6 470/2/6 476/2/6
f 471/2/6 472/2/6 477/2/6
f 476/1/6 471/1/6 477/1/6
f 477/2/6 472/2/6 478/2/6
f 478/2/6 472/2/6 479/2/6
f 474/2/6 475/2/6 482/2/6
f 473/2/6 474/2/6 482/2/6
f 482/2/6 475/2/6 483/2/6
f 483/2/6 475/2/6 484/2/6
f 479/1/6 480/1/6 485/1/6
f 478/1/6 479/1/6 485/1/6
f 485/1/6 480/1/6 486/1/6
f 486/1/6 480/1/6 487/1/6
f 482/2/6 483/2/6 489/2/6
f 481/2/6 482/2/6 489/2/6
f 489/2/6 483/2/6 490/2/6
f 490/2/6 483/2/6 491/2/6
f 486/1/6 487/1/6 492/1/6
f 487/2/6 488/2/6 493/2/6
f 492/1/6 487/1/6 493/1/6
f 489/1/6 490/1/6 494/1/6
f 494/1/6 490/1/6 495/1/6
f 493/2/6 488/2/6 496/2/6
f 496/2/6 488/2/6 497/2/6
f 494/2/6 495/2/6 498/2/6
f 498/2/6 495/2/6 499/2/6
f 496/1/6 497/1/6 502/1/6
f 502/1/6 497/1/6 503/1/6
f 499/1/6 500/1/6 504/1/6
f 498/1/6 499/1/6 504/1/6
f 504/1/6 500/1/6 505/1/6
f 505/1/6 500/1/6 506/1/6
f 502/2/6 503/2/6 509/2/6
f 501/2/6 502/2/6 509/2/6
f 509/2/6 503/2/6 510/2/6
f 510/2/6 503/2/6 511/2/6
f 506/1/6 507/1/6 512/1/6
f 505/1/6 506/1/6 512/1/6
f 512/1/6 507/1/6 513/1/6
f 513/1/6 507/1/6 514/1/6
f 508/1/6 509/1/6 516/1/6
f 509/2/6 510/2/6 517/2/6
f 516/1/6 509/1/6 517/1/6
f 517/2/6 510/2/6 518/2/6
f 514/1/6 515/1/6 519/1/6
f 513/1/6 514/1/6 519/1/6
f 515/2/6 516/2/6 520/2/6
f 519/1/6 515/1/6 520/1/6
f 516/2/6 517/2/6 520/2/6
f 520/2/6 517/2/6 521/2/6
f 522/1/6 523/1/6 526/1/6
f 523/2/6 524/2/6 527/2/6
f 526/1/6 523/1/6 527/1/6
f 527/2/6 524/2/6 528/2/6
f 525/1/6 526/1/6 531/1/6
f 531/1/6 526/1/6 532/1/6
f 528/1/6 529/1/6 533/1/6
f 533/1/6 529/1/6 534/1/6
f 530/1/6 531/1/6 536/1/6
f 536/1/6 531/1/6 537/1/6
f 534/1/6 535/1/6 538/1/6
f 538/1/6 535/1/6 539/1/6
f 536/2/6 537/2/6 540/2/6
f 538/2/6 539/2/6 541/2/6
f 536/2/6 540/2/6 542/2/6
f 542/2/6 540/2/6 543/2/6
f 541/2/6 539/2/6 546/2/6
f 546/2/6 539/2/6 547/2/6
f 543/1/6 544/1/6 548/1/6
f 548/1/6 544/1/6 549/1/6
f 545/2/6 546/2/6 551/2/6
f 551/2/6 546/2/6 552/2/6
f 549/1/6 550/1/6 553/1/6
f 550/2/6 551/2/6 554/2/6
f 553/1/6 550/1/6 554/1/6
f 554/2/6 551/2/6 555/2/6
f 556/2/6 557/2/6 560/2/6
f 557/1/6 558/1/6 561/1/6
f 560/2/6 557/2/6 561/2/6
f 561/1/6 558/1/6 562/1/6
f 562/2/6 563/2/6 564/2/6
f 559/2/6 560/2/6 565/2/6
f 565/2/6 560/2/6 566/2/6
f 564/2/6 563/2/6 567/2/6
f 567/2/6 563/2/6 568/2/6
f 565/1/6 566/1/6 569/1/6
f 569/1/6 566/1/6 570/1/6
f 567/1/6 568/1/6 572/1/6
f 572/1/6 568/1/6 573/1/6
f 570/1/6 571/1/6 574/1/6
f 571/1/6 572/1/6 574/1/6
f 574/1/6 572/1/6 575/1/6
f 576/2/6 577/2/6 579/2/6
f 577/1/6 578/1/6 579/1/6
f 579/1/6 578/1/6 580/1/6
f 580/1/6 578/1/6 581/1/6
f 576/2/6 579/2/6 582/2/6
f 582/2/6 579/2/6 583/2/6
f 580/2/6 581/2/6 584/2/6
f 582/1/6 583/1/6 585/1/6
f 583/1/6 584/1/6 585/1/6
f 584/2/6 581/2/6 586/2/6
f 585/1/6 584/1/6 586/1/6
f 586/2/6 581/2/6 587/2/6
f 588/1/6 589/1/6 590/1/6
f 590/1/6 589/1/6 591/1/6
