# MagicaVoxel @ Ephtracy

# group
o 

# material
mtllib speakers.mtl
usemtl palette

# normals
vn -1 0 0
vn 1 0 0
vn 0 0 1
vn 0 0 -1
vn 0 -1 0
vn 0 1 0

# texcoords
vt 0.978516 0.5
vt 0.982422 0.5
vt 0.986328 0.5

# verts
v -0.5 0 0.8
v -0.5 0 0.2
v -0.5 0.6 0.3
v -0.5 0.6 0.2
v -0.5 0.8 0.3
v -0.5 0.8 0.2
v -0.5 1.1 0.3
v -0.5 1.1 0.2
v -0.5 1.2 0.8
v -0.5 1.2 0.3
v -0.5 1.2 0.2
v 0.5 0 0.8
v 0.5 0 0.2
v 0.5 1.1 0.3
v 0.5 1.1 0.2
v 0.5 1.2 0.8
v 0.5 1.2 0.3
v 0.5 1.2 0.2
v -0.5 0 0.8
v -0.5 1.2 0.8
v 0.5 0 0.8
v 0.5 1.2 0.8
v -0.5 0 0.2
v -0.5 0.6 0.2
v -0.5 0.8 0.2
v -0.5 1.1 0.2
v -0.5 1.2 0.2
v -0.4 0.2 0.2
v -0.4 0.5 0.2
v -0.4 1.1 0.2
v -0.4 1.2 0.2
v -0.3 0.1 0.2
v -0.3 0.2 0.2
v -0.3 0.5 0.2
v -0.3 0.6 0.2
v -0.3 0.8 0.2
v -0.2 0.2 0.2
v -0.2 0.5 0.2
v -0.2 0.7 0.2
v -0.2 1 0.2
v -0.1 0.3 0.2
v -0.1 0.4 0.2
v -0.1 0.8 0.2
v -0.1 0.9 0.2
v 0.1 0.3 0.2
v 0.1 0.4 0.2
v 0.1 0.8 0.2
v 0.1 0.9 0.2
v 0.2 0.2 0.2
v 0.2 0.5 0.2
v 0.2 0.7 0.2
v 0.2 1 0.2
v 0.3 0.1 0.2
v 0.3 0.2 0.2
v 0.3 0.5 0.2
v 0.3 0.6 0.2
v 0.4 0.2 0.2
v 0.4 0.5 0.2
v 0.4 1.1 0.2
v 0.4 1.2 0.2
v 0.5 0 0.2
v 0.5 1.1 0.2
v 0.5 1.2 0.2
v -0.5 0 0.8
v 0.5 0 0.8
v -0.5 0 0.2
v 0.5 0 0.2
v -0.5 1.2 0.8
v 0.5 1.2 0.8
v -0.5 1.2 0.3
v -0.4 1.2 0.3
v 0.4 1.2 0.3
v 0.5 1.2 0.3
v -0.5 1.2 0.2
v -0.4 1.2 0.2
v 0.4 1.2 0.2
v 0.5 1.2 0.2

# faces
f 3/1/1 2/1/1 1/1/1
f 4/1/1 2/1/1 3/1/1
f 5/1/1 3/1/1 1/1/1
f 5/2/1 4/2/1 3/2/1
f 6/2/1 4/2/1 5/2/1
f 7/1/1 5/1/1 1/1/1
f 7/1/1 6/1/1 5/1/1
f 8/1/1 6/1/1 7/1/1
f 9/1/1 7/1/1 1/1/1
f 10/2/1 8/2/1 7/2/1
f 10/1/1 7/1/1 9/1/1
f 11/2/1 8/2/1 10/2/1
f 12/1/2 13/1/2 14/1/2
f 14/1/2 13/1/2 15/1/2
f 12/1/2 14/1/2 16/1/2
f 14/2/2 15/2/2 17/2/2
f 16/1/2 14/1/2 17/1/2
f 17/2/2 15/2/2 18/2/2
f 21/1/3 20/1/3 19/1/3
f 22/1/3 20/1/3 21/1/3
f 23/1/4 24/1/4 28/1/4
f 28/1/4 24/1/4 29/1/4
f 26/2/4 27/2/4 30/2/4
f 25/1/4 26/1/4 30/1/4
f 30/2/4 27/2/4 31/2/4
f 23/1/4 28/1/4 32/1/4
f 28/2/4 29/2/4 33/2/4
f 32/1/4 28/1/4 33/1/4
f 29/1/4 24/1/4 34/1/4
f 33/2/4 29/2/4 34/2/4
f 24/2/4 25/2/4 35/2/4
f 34/1/4 24/1/4 35/1/4
f 25/1/4 30/1/4 36/1/4
f 35/2/4 25/2/4 36/2/4
f 30/1/4 31/1/4 36/1/4
f 32/2/4 33/2/4 37/2/4
f 33/2/4 34/2/4 37/2/4
f 34/2/4 35/2/4 37/2/4
f 37/2/4 35/2/4 38/2/4
f 35/1/4 36/1/4 39/1/4
f 36/1/4 31/1/4 40/1/4
f 39/1/4 36/1/4 40/1/4
f 37/3/4 38/3/4 41/3/4
f 41/3/4 38/3/4 42/3/4
f 39/2/4 40/2/4 43/2/4
f 43/2/4 40/2/4 44/2/4
f 37/3/4 41/3/4 45/3/4
f 41/2/4 42/2/4 45/2/4
f 42/3/4 38/3/4 46/3/4
f 45/2/4 42/2/4 46/2/4
f 43/3/4 44/3/4 47/3/4
f 39/2/4 43/2/4 47/2/4
f 44/2/4 40/2/4 48/2/4
f 47/3/4 44/3/4 48/3/4
f 32/2/4 37/2/4 49/2/4
f 37/3/4 45/3/4 49/3/4
f 45/3/4 46/3/4 49/3/4
f 38/2/4 35/2/4 50/2/4
f 49/3/4 46/3/4 50/3/4
f 46/3/4 38/3/4 50/3/4
f 35/1/4 39/1/4 51/1/4
f 47/2/4 48/2/4 51/2/4
f 39/2/4 47/2/4 51/2/4
f 48/2/4 40/2/4 52/2/4
f 51/2/4 48/2/4 52/2/4
f 40/1/4 31/1/4 52/1/4
f 32/2/4 49/2/4 53/2/4
f 23/1/4 32/1/4 53/1/4
f 49/2/4 50/2/4 53/2/4
f 53/2/4 50/2/4 54/2/4
f 50/2/4 35/2/4 55/2/4
f 54/2/4 50/2/4 55/2/4
f 51/1/4 52/1/4 56/1/4
f 55/2/4 35/2/4 56/2/4
f 35/1/4 51/1/4 56/1/4
f 53/1/4 54/1/4 57/1/4
f 54/2/4 55/2/4 57/2/4
f 55/1/4 56/1/4 58/1/4
f 57/2/4 55/2/4 58/2/4
f 56/1/4 52/1/4 59/1/4
f 58/1/4 56/1/4 59/1/4
f 52/1/4 31/1/4 59/1/4
f 59/1/4 31/1/4 60/1/4
f 57/1/4 58/1/4 61/1/4
f 23/1/4 53/1/4 61/1/4
f 53/1/4 57/1/4 61/1/4
f 58/1/4 59/1/4 61/1/4
f 59/2/4 60/2/4 62/2/4
f 61/1/4 59/1/4 62/1/4
f 62/2/4 60/2/4 63/2/4
f 66/1/5 65/1/5 64/1/5
f 67/1/5 65/1/5 66/1/5
f 68/1/6 69/1/6 70/1/6
f 70/1/6 69/1/6 71/1/6
f 71/1/6 69/1/6 72/1/6
f 72/1/6 69/1/6 73/1/6
f 70/2/6 71/2/6 74/2/6
f 71/1/6 72/1/6 75/1/6
f 74/2/6 71/2/6 75/2/6
f 72/2/6 73/2/6 76/2/6
f 75/1/6 72/1/6 76/1/6
f 76/2/6 73/2/6 77/2/6
