# MagicaVoxel @ Ephtracy

# group
o 

# material
mtllib teddybear2.mtl
usemtl palette

# normals
vn -1 0 0
vn 1 0 0
vn 0 0 1
vn 0 0 -1
vn 0 -1 0
vn 0 1 0

# texcoords
vt 0.970703 0.5
vt 0.974609 0.5
vt 0.978516 0.5

# verts
v -0.4 0.4 0.2
v -0.4 0.4 0.1
v -0.4 0.5 0.2
v -0.4 0.5 0.1
v -0.4 0.9 0.2
v -0.4 0.9 0
v -0.4 1 0.2
v -0.4 1 0.1
v -0.4 1.1 0.2
v -0.4 1.1 0.1
v -0.4 1.1 0
v -0.3 0.6 0.4
v -0.3 0.6 -0.1
v -0.3 0.8 0.4
v -0.3 0.8 0.3
v -0.3 0.9 0.4
v -0.3 0.9 0.3
v -0.3 0.9 0.2
v -0.3 0.9 0
v -0.3 1 0.4
v -0.3 1 0.2
v -0.3 1 0
v -0.3 1 -0.1
v -0.2 0 0.2
v -0.2 0 0.1
v -0.2 0.1 0.2
v -0.2 0.1 0.1
v -0.2 0.2 0.3
v -0.2 0.2 0.2
v -0.2 0.2 0.1
v -0.2 0.2 0
v -0.2 0.4 0.2
v -0.2 0.4 0.1
v -0.2 0.5 0.2
v -0.2 0.5 0.1
v -0.2 0.6 0.5
v -0.2 0.6 0.4
v -0.2 0.6 0.3
v -0.2 0.6 0
v -0.2 0.8 0.5
v -0.2 0.8 0.4
v 0.1 0 0.2
v 0.1 0 0.1
v 0.1 0.1 0.2
v 0.1 0.1 0.1
v 0.1 0.2 0.2
v 0.1 0.2 0.1
v 0.2 1 0.2
v 0.2 1 0
v 0.2 1.1 0.2
v 0.2 1.1 0
v -0.2 1 0.2
v -0.2 1 0
v -0.2 1.1 0.2
v -0.2 1.1 0
v -0.1 0 0.2
v -0.1 0 0.1
v -0.1 0.1 0.2
v -0.1 0.1 0.1
v -0.1 0.2 0.2
v -0.1 0.2 0.1
v 0.2 0 0.2
v 0.2 0 0.1
v 0.2 0.1 0.2
v 0.2 0.1 0.1
v 0.2 0.2 0.3
v 0.2 0.2 0.2
v 0.2 0.2 0.1
v 0.2 0.2 0
v 0.2 0.4 0.2
v 0.2 0.4 0.1
v 0.2 0.5 0.2
v 0.2 0.5 0.1
v 0.2 0.6 0.5
v 0.2 0.6 0.4
v 0.2 0.6 0.3
v 0.2 0.6 0
v 0.2 0.8 0.5
v 0.2 0.8 0.4
v 0.3 0.6 0.4
v 0.3 0.6 -0.1
v 0.3 0.8 0.4
v 0.3 0.8 0.3
v 0.3 0.9 0.4
v 0.3 0.9 0.3
v 0.3 0.9 0.2
v 0.3 0.9 0
v 0.3 1 0.4
v 0.3 1 0.2
v 0.3 1 0
v 0.3 1 -0.1
v 0.4 0.4 0.2
v 0.4 0.4 0.1
v 0.4 0.5 0.2
v 0.4 0.5 0.1
v 0.4 0.9 0.2
v 0.4 0.9 0
v 0.4 1 0.2
v 0.4 1 0.1
v 0.4 1.1 0.2
v 0.4 1.1 0.1
v 0.4 1.1 0
v -0.2 0.6 0.5
v -0.2 0.8 0.5
v -0.1 0.7 0.5
v -0.1 0.8 0.5
v 0.1 0.7 0.5
v 0.1 0.8 0.5
v 0.2 0.6 0.5
v 0.2 0.8 0.5
v -0.3 0.6 0.4
v -0.3 0.8 0.4
v -0.3 0.9 0.4
v -0.3 1 0.4
v -0.2 0.6 0.4
v -0.2 0.8 0.4
v -0.2 0.9 0.4
v -0.1 0.8 0.4
v 0.1 0.8 0.4
v 0.2 0.6 0.4
v 0.2 0.8 0.4
v 0.2 0.9 0.4
v 0.3 0.6 0.4
v 0.3 0.8 0.4
v 0.3 0.9 0.4
v 0.3 1 0.4
v -0.2 0.2 0.3
v -0.2 0.6 0.3
v -0.1 0.3 0.3
v -0.1 0.6 0.3
v 0.1 0.3 0.3
v 0.1 0.6 0.3
v 0.2 0.2 0.3
v 0.2 0.6 0.3
v -0.4 0.4 0.2
v -0.4 0.5 0.2
v -0.4 0.9 0.2
v -0.4 1 0.2
v -0.4 1.1 0.2
v -0.3 0.4 0.2
v -0.3 0.5 0.2
v -0.3 0.9 0.2
v -0.3 1 0.2
v -0.3 1.1 0.2
v -0.2 0 0.2
v -0.2 0.1 0.2
v -0.2 0.2 0.2
v -0.2 0.4 0.2
v -0.2 0.5 0.2
v -0.2 1 0.2
v -0.2 1.1 0.2
v -0.1 0 0.2
v -0.1 0.1 0.2
v -0.1 0.2 0.2
v 0.1 0 0.2
v 0.1 0.1 0.2
v 0.1 0.2 0.2
v 0.2 0 0.2
v 0.2 0.1 0.2
v 0.2 0.2 0.2
v 0.2 0.4 0.2
v 0.2 0.5 0.2
v 0.2 1 0.2
v 0.2 1.1 0.2
v 0.3 0.4 0.2
v 0.3 0.5 0.2
v 0.3 0.9 0.2
v 0.3 1 0.2
v 0.3 1.1 0.2
v 0.4 0.4 0.2
v 0.4 0.5 0.2
v 0.4 0.9 0.2
v 0.4 1 0.2
v 0.4 1.1 0.2
v -0.4 0.4 0.1
v -0.4 0.5 0.1
v -0.3 0.4 0.1
v -0.3 0.5 0.1
v -0.2 0 0.1
v -0.2 0.1 0.1
v -0.2 0.2 0.1
v -0.2 0.4 0.1
v -0.2 0.5 0.1
v -0.1 0 0.1
v -0.1 0.1 0.1
v -0.1 0.2 0.1
v 0.1 0 0.1
v 0.1 0.1 0.1
v 0.1 0.2 0.1
v 0.2 0 0.1
v 0.2 0.1 0.1
v 0.2 0.2 0.1
v 0.2 0.4 0.1
v 0.2 0.5 0.1
v 0.3 0.4 0.1
v 0.3 0.5 0.1
v 0.4 0.4 0.1
v 0.4 0.5 0.1
v -0.4 0.9 0
v -0.4 1.1 0
v -0.3 0.9 0
v -0.3 1 0
v -0.2 0.2 0
v -0.2 0.6 0
v -0.2 1 0
v -0.2 1.1 0
v 0.2 0.2 0
v 0.2 0.6 0
v 0.2 1 0
v 0.2 1.1 0
v 0.3 0.9 0
v 0.3 1 0
v 0.4 0.9 0
v 0.4 1.1 0
v -0.3 0.6 -0.1
v -0.3 1 -0.1
v 0.3 0.6 -0.1
v 0.3 1 -0.1
v -0.2 0 0.2
v -0.1 0 0.2
v 0.1 0 0.2
v 0.2 0 0.2
v -0.2 0 0.1
v -0.1 0 0.1
v 0.1 0 0.1
v 0.2 0 0.1
v -0.2 0.2 0.3
v 0.2 0.2 0.3
v -0.2 0.2 0.2
v -0.1 0.2 0.2
v 0.1 0.2 0.2
v 0.2 0.2 0.2
v -0.2 0.2 0.1
v -0.1 0.2 0.1
v 0.1 0.2 0.1
v 0.2 0.2 0.1
v -0.2 0.2 0
v 0.2 0.2 0
v -0.4 0.4 0.2
v -0.3 0.4 0.2
v -0.2 0.4 0.2
v 0.2 0.4 0.2
v 0.3 0.4 0.2
v 0.4 0.4 0.2
v -0.4 0.4 0.1
v -0.3 0.4 0.1
v -0.2 0.4 0.1
v 0.2 0.4 0.1
v 0.3 0.4 0.1
v 0.4 0.4 0.1
v -0.2 0.6 0.5
v 0.2 0.6 0.5
v -0.3 0.6 0.4
v -0.2 0.6 0.4
v 0.2 0.6 0.4
v 0.3 0.6 0.4
v -0.2 0.6 0.3
v -0.1 0.6 0.3
v 0.1 0.6 0.3
v 0.2 0.6 0.3
v -0.2 0.6 0
v 0.2 0.6 0
v -0.3 0.6 -0.1
v 0.3 0.6 -0.1
v -0.4 0.9 0.2
v -0.3 0.9 0.2
v 0.3 0.9 0.2
v 0.4 0.9 0.2
v -0.4 0.9 0
v -0.3 0.9 0
v 0.3 0.9 0
v 0.4 0.9 0
v -0.4 0.5 0.2
v -0.3 0.5 0.2
v -0.2 0.5 0.2
v 0.2 0.5 0.2
v 0.3 0.5 0.2
v 0.4 0.5 0.2
v -0.4 0.5 0.1
v -0.3 0.5 0.1
v -0.2 0.5 0.1
v 0.2 0.5 0.1
v 0.3 0.5 0.1
v 0.4 0.5 0.1
v -0.2 0.8 0.5
v -0.1 0.8 0.5
v 0.1 0.8 0.5
v 0.2 0.8 0.5
v -0.2 0.8 0.4
v -0.1 0.8 0.4
v 0.1 0.8 0.4
v 0.2 0.8 0.4
v -0.3 1 0.4
v 0.3 1 0.4
v -0.3 1 0.2
v -0.2 1 0.2
v 0.2 1 0.2
v 0.3 1 0.2
v -0.3 1 0
v -0.2 1 0
v 0.2 1 0
v 0.3 1 0
v -0.3 1 -0.1
v 0.3 1 -0.1
v -0.4 1.1 0.2
v -0.3 1.1 0.2
v -0.2 1.1 0.2
v 0.2 1.1 0.2
v 0.3 1.1 0.2
v 0.4 1.1 0.2
v -0.4 1.1 0.1
v -0.3 1.1 0.1
v 0.3 1.1 0.1
v 0.4 1.1 0.1
v -0.4 1.1 0
v -0.2 1.1 0
v 0.2 1.1 0
v 0.4 1.1 0

# faces
f 3/1/1 2/1/1 1/1/1
f 4/1/1 2/1/1 3/1/1
f 7/2/1 6/2/1 5/2/1
f 8/2/1 6/2/1 7/2/1
f 9/1/1 8/1/1 7/1/1
f 10/2/1 6/2/1 8/2/1
f 10/1/1 8/1/1 9/1/1
f 11/2/1 6/2/1 10/2/1
f 14/2/1 13/2/1 12/2/1
f 15/2/1 13/2/1 14/2/1
f 16/3/1 15/3/1 14/3/1
f 17/2/1 13/2/1 15/2/1
f 17/3/1 15/3/1 16/3/1
f 18/2/1 13/2/1 17/2/1
f 19/2/1 13/2/1 18/2/1
f 20/2/1 17/2/1 16/2/1
f 20/2/1 18/2/1 17/2/1
f 21/2/1 18/2/1 20/2/1
f 22/2/1 13/2/1 19/2/1
f 23/2/1 13/2/1 22/2/1
f 26/1/1 25/1/1 24/1/1
f 27/1/1 25/1/1 26/1/1
f 29/2/1 27/2/1 26/2/1
f 30/2/1 27/2/1 29/2/1
f 32/2/1 30/2/1 29/2/1
f 32/2/1 31/2/1 30/2/1
f 32/2/1 29/2/1 28/2/1
f 33/2/1 31/2/1 32/2/1
f 34/2/1 32/2/1 28/2/1
f 35/2/1 31/2/1 33/2/1
f 38/2/1 34/2/1 28/2/1
f 38/2/1 35/2/1 34/2/1
f 39/2/1 31/2/1 35/2/1
f 39/2/1 35/2/1 38/2/1
f 40/2/1 37/2/1 36/2/1
f 41/2/1 37/2/1 40/2/1
f 44/1/1 43/1/1 42/1/1
f 45/1/1 43/1/1 44/1/1
f 46/2/1 45/2/1 44/2/1
f 47/2/1 45/2/1 46/2/1
f 50/2/1 49/2/1 48/2/1
f 51/2/1 49/2/1 50/2/1
f 52/2/2 53/2/2 54/2/2
f 54/2/2 53/2/2 55/2/2
f 56/1/2 57/1/2 58/1/2
f 58/1/2 57/1/2 59/1/2
f 58/2/2 59/2/2 60/2/2
f 60/2/2 59/2/2 61/2/2
f 62/1/2 63/1/2 64/1/2
f 64/1/2 63/1/2 65/1/2
f 64/2/2 65/2/2 67/2/2
f 67/2/2 65/2/2 68/2/2
f 67/2/2 68/2/2 70/2/2
f 68/2/2 69/2/2 70/2/2
f 66/2/2 67/2/2 70/2/2
f 70/2/2 69/2/2 71/2/2
f 66/2/2 70/2/2 72/2/2
f 71/2/2 69/2/2 73/2/2
f 66/2/2 72/2/2 76/2/2
f 72/2/2 73/2/2 76/2/2
f 73/2/2 69/2/2 77/2/2
f 76/2/2 73/2/2 77/2/2
f 74/2/2 75/2/2 78/2/2
f 78/2/2 75/2/2 79/2/2
f 80/2/2 81/2/2 82/2/2
f 82/2/2 81/2/2 83/2/2
f 82/3/2 83/3/2 84/3/2
f 83/2/2 81/2/2 85/2/2
f 84/3/2 83/3/2 85/3/2
f 85/2/2 81/2/2 86/2/2
f 86/2/2 81/2/2 87/2/2
f 84/2/2 85/2/2 88/2/2
f 85/2/2 86/2/2 88/2/2
f 88/2/2 86/2/2 89/2/2
f 87/2/2 81/2/2 90/2/2
f 90/2/2 81/2/2 91/2/2
f 92/1/2 93/1/2 94/1/2
f 94/1/2 93/1/2 95/1/2
f 96/2/2 97/2/2 98/2/2
f 98/2/2 97/2/2 99/2/2
f 98/1/2 99/1/2 100/1/2
f 99/2/2 97/2/2 101/2/2
f 100/1/2 99/1/2 101/1/2
f 101/2/2 97/2/2 102/2/2
f 105/2/3 104/2/3 103/2/3
f 106/2/3 104/2/3 105/2/3
f 107/2/3 105/2/3 103/2/3
f 107/3/3 106/3/3 105/3/3
f 108/3/3 106/3/3 107/3/3
f 109/2/3 107/2/3 103/2/3
f 109/2/3 108/2/3 107/2/3
f 110/2/3 108/2/3 109/2/3
f 115/2/3 112/2/3 111/2/3
f 116/3/3 113/3/3 112/3/3
f 116/2/3 112/2/3 115/2/3
f 117/2/3 114/2/3 113/2/3
f 117/3/3 113/3/3 116/3/3
f 118/2/3 117/2/3 116/2/3
f 119/2/3 117/2/3 118/2/3
f 121/2/3 117/2/3 119/2/3
f 122/2/3 114/2/3 117/2/3
f 122/2/3 117/2/3 121/2/3
f 123/2/3 121/2/3 120/2/3
f 124/3/3 122/3/3 121/3/3
f 124/2/3 121/2/3 123/2/3
f 125/2/3 114/2/3 122/2/3
f 125/3/3 122/3/3 124/3/3
f 126/2/3 114/2/3 125/2/3
f 129/2/3 128/2/3 127/2/3
f 130/2/3 128/2/3 129/2/3
f 131/2/3 129/2/3 127/2/3
f 131/1/3 130/1/3 129/1/3
f 132/1/3 130/1/3 131/1/3
f 133/2/3 131/2/3 127/2/3
f 133/2/3 132/2/3 131/2/3
f 134/2/3 132/2/3 133/2/3
f 140/1/3 136/1/3 135/1/3
f 141/1/3 136/1/3 140/1/3
f 142/2/3 138/2/3 137/2/3
f 143/1/3 139/1/3 138/1/3
f 143/2/3 138/2/3 142/2/3
f 144/1/3 139/1/3 143/1/3
f 148/2/3 141/2/3 140/2/3
f 149/2/3 141/2/3 148/2/3
f 150/2/3 144/2/3 143/2/3
f 151/2/3 144/2/3 150/2/3
f 152/1/3 146/1/3 145/1/3
f 153/2/3 147/2/3 146/2/3
f 153/1/3 146/1/3 152/1/3
f 154/2/3 147/2/3 153/2/3
f 158/1/3 156/1/3 155/1/3
f 159/2/3 157/2/3 156/2/3
f 159/1/3 156/1/3 158/1/3
f 160/2/3 157/2/3 159/2/3
f 165/2/3 162/2/3 161/2/3
f 166/2/3 162/2/3 165/2/3
f 168/2/3 164/2/3 163/2/3
f 169/2/3 164/2/3 168/2/3
f 170/1/3 166/1/3 165/1/3
f 171/1/3 166/1/3 170/1/3
f 172/2/3 168/2/3 167/2/3
f 173/1/3 169/1/3 168/1/3
f 173/2/3 168/2/3 172/2/3
f 174/1/3 169/1/3 173/1/3
f 175/1/4 176/1/4 177/1/4
f 177/1/4 176/1/4 178/1/4
f 177/2/4 178/2/4 182/2/4
f 182/2/4 178/2/4 183/2/4
f 179/1/4 180/1/4 184/1/4
f 180/2/4 181/2/4 185/2/4
f 184/1/4 180/1/4 185/1/4
f 185/2/4 181/2/4 186/2/4
f 187/1/4 188/1/4 190/1/4
f 188/2/4 189/2/4 191/2/4
f 190/1/4 188/1/4 191/1/4
f 191/2/4 189/2/4 192/2/4
f 193/2/4 194/2/4 195/2/4
f 195/2/4 194/2/4 196/2/4
f 195/1/4 196/1/4 197/1/4
f 197/1/4 196/1/4 198/1/4
f 199/2/4 200/2/4 201/2/4
f 201/2/4 200/2/4 202/2/4
f 202/2/4 200/2/4 205/2/4
f 205/2/4 200/2/4 206/2/4
f 203/2/4 204/2/4 207/2/4
f 207/2/4 204/2/4 208/2/4
f 209/2/4 210/2/4 212/2/4
f 211/2/4 212/2/4 213/2/4
f 212/2/4 210/2/4 214/2/4
f 213/2/4 212/2/4 214/2/4
f 215/2/4 216/2/4 217/2/4
f 217/2/4 216/2/4 218/2/4
f 223/1/5 220/1/5 219/1/5
f 224/1/5 220/1/5 223/1/5
f 225/1/5 222/1/5 221/1/5
f 226/1/5 222/1/5 225/1/5
f 229/2/5 228/2/5 227/2/5
f 230/2/5 228/2/5 229/2/5
f 231/2/5 228/2/5 230/2/5
f 232/2/5 228/2/5 231/2/5
f 234/2/5 231/2/5 230/2/5
f 235/2/5 231/2/5 234/2/5
f 237/2/5 234/2/5 233/2/5
f 237/2/5 236/2/5 235/2/5
f 237/2/5 235/2/5 234/2/5
f 238/2/5 236/2/5 237/2/5
f 245/1/5 240/1/5 239/1/5
f 246/2/5 241/2/5 240/2/5
f 246/1/5 240/1/5 245/1/5
f 247/2/5 241/2/5 246/2/5
f 248/2/5 243/2/5 242/2/5
f 249/1/5 244/1/5 243/1/5
f 249/2/5 243/2/5 248/2/5
f 250/1/5 244/1/5 249/1/5
f 254/2/5 252/2/5 251/2/5
f 255/2/5 252/2/5 254/2/5
f 257/2/5 254/2/5 253/2/5
f 257/2/5 256/2/5 255/2/5
f 257/2/5 255/2/5 254/2/5
f 258/2/5 256/2/5 257/2/5
f 259/2/5 256/2/5 258/2/5
f 260/2/5 256/2/5 259/2/5
f 261/2/5 257/2/5 253/2/5
f 262/2/5 256/2/5 260/2/5
f 263/2/5 261/2/5 253/2/5
f 263/2/5 262/2/5 261/2/5
f 264/2/5 256/2/5 262/2/5
f 264/2/5 262/2/5 263/2/5
f 269/2/5 266/2/5 265/2/5
f 270/2/5 266/2/5 269/2/5
f 271/2/5 268/2/5 267/2/5
f 272/2/5 268/2/5 271/2/5
f 273/1/6 274/1/6 279/1/6
f 274/2/6 275/2/6 280/2/6
f 279/1/6 274/1/6 280/1/6
f 280/2/6 275/2/6 281/2/6
f 276/2/6 277/2/6 282/2/6
f 277/1/6 278/1/6 283/1/6
f 282/2/6 277/2/6 283/2/6
f 283/1/6 278/1/6 284/1/6
f 285/2/6 286/2/6 289/2/6
f 286/3/6 287/3/6 290/3/6
f 289/2/6 286/2/6 290/2/6
f 287/2/6 288/2/6 291/2/6
f 290/3/6 287/3/6 291/3/6
f 291/2/6 288/2/6 292/2/6
f 293/2/6 294/2/6 295/2/6
f 295/2/6 294/2/6 296/2/6
f 296/2/6 294/2/6 297/2/6
f 297/2/6 294/2/6 298/2/6
f 296/2/6 297/2/6 300/2/6
f 300/2/6 297/2/6 301/2/6
f 299/2/6 300/2/6 303/2/6
f 301/2/6 302/2/6 303/2/6
f 300/2/6 301/2/6 303/2/6
f 303/2/6 302/2/6 304/2/6
f 305/1/6 306/1/6 311/1/6
f 306/2/6 307/2/6 312/2/6
f 311/1/6 306/1/6 312/1/6
f 309/1/6 310/1/6 313/1/6
f 308/2/6 309/2/6 313/2/6
f 313/1/6 310/1/6 314/1/6
f 311/2/6 312/2/6 315/2/6
f 312/2/6 307/2/6 316/2/6
f 315/2/6 312/2/6 316/2/6
f 308/2/6 313/2/6 317/2/6
f 313/2/6 314/2/6 317/2/6
f 317/2/6 314/2/6 318/2/6
