# MagicaVoxel @ Ephtracy

# group
o 

# material
mtllib tree1.mtl
usemtl palette

# normals
vn -1 0 0
vn 1 0 0
vn 0 0 1
vn 0 0 -1
vn 0 -1 0
vn 0 1 0

# texcoords
vt 0.939453 0.5
vt 0.943359 0.5
vt 0.970703 0.5
vt 0.974609 0.5
vt 0.978516 0.5

# verts
v -1.5 2.9 0.3
v -1.5 2.9 -1
v -1.5 4.5 0.3
v -1.5 4.5 -1
v -0.8 3.3 1.3
v -0.8 3.3 0.3
v -0.8 3.8 1.3
v -0.8 3.8 0.3
v -0.6 0 -0.1
v -0.6 0 -0.4
v -0.6 0.3 -0.1
v -0.6 0.3 -0.4
v -0.6 0.5 -0.1
v -0.6 0.5 -0.4
v -0.6 0.7 -0.1
v -0.6 0.7 -0.4
v -0.6 0.9 -0.1
v -0.6 0.9 -0.4
v -0.6 1.1 -0.1
v -0.6 1.1 -0.4
v -0.6 1.3 -0.1
v -0.6 1.3 -0.4
v -0.6 1.5 -0.1
v -0.6 1.5 -0.4
v -0.6 1.7 -0.1
v -0.6 1.7 -0.4
v -0.6 1.9 -0.1
v -0.6 1.9 -0.4
v -0.6 2.1 -0.1
v -0.6 2.1 -0.4
v -0.6 2.3 -0.1
v -0.6 2.3 -0.4
v -0.6 2.5 -0.1
v -0.6 2.5 -0.4
v -0.6 2.7 -0.1
v -0.6 2.7 -0.4
v -0.6 2.9 -0.1
v -0.6 2.9 -0.4
v -0.5 0 0
v -0.5 0 -0.1
v -0.5 0 -0.4
v -0.5 0 -0.5
v -0.5 0.3 0
v -0.5 0.3 -0.1
v -0.5 0.3 -0.4
v -0.5 0.3 -0.5
v -0.5 0.5 0
v -0.5 0.5 -0.1
v -0.5 0.5 -0.4
v -0.5 0.5 -0.5
v -0.5 0.7 0
v -0.5 0.7 -0.1
v -0.5 0.7 -0.4
v -0.5 0.7 -0.5
v -0.5 0.9 0
v -0.5 0.9 -0.1
v -0.5 0.9 -0.4
v -0.5 0.9 -0.5
v -0.5 1.1 0
v -0.5 1.1 -0.1
v -0.5 1.1 -0.4
v -0.5 1.1 -0.5
v -0.5 1.3 0
v -0.5 1.3 -0.1
v -0.5 1.3 -0.4
v -0.5 1.3 -0.5
v -0.5 1.5 0
v -0.5 1.5 -0.1
v -0.5 1.5 -0.4
v -0.5 1.5 -0.5
v -0.5 1.7 0
v -0.5 1.7 -0.1
v -0.5 1.7 -0.4
v -0.5 1.7 -0.5
v -0.5 1.9 0.6
v -0.5 1.9 0
v -0.5 1.9 -0.1
v -0.5 1.9 -0.4
v -0.5 1.9 -0.5
v -0.5 2.1 0.6
v -0.5 2.1 0.4
v -0.5 2.1 0
v -0.5 2.1 -0.1
v -0.5 2.1 -0.4
v -0.5 2.1 -0.5
v -0.5 2.3 0.6
v -0.5 2.3 0.4
v -0.5 2.3 0
v -0.5 2.3 -0.1
v -0.5 2.3 -0.4
v -0.5 2.3 -0.5
v -0.5 2.5 0.6
v -0.5 2.5 0.4
v -0.5 2.5 0
v -0.5 2.5 -0.1
v -0.5 2.5 -0.4
v -0.5 2.5 -0.5
v -0.5 2.7 0.6
v -0.5 2.7 0.4
v -0.5 2.7 0
v -0.5 2.7 -0.1
v -0.5 2.7 -0.4
v -0.5 2.7 -0.5
v -0.5 2.9 0.6
v -0.5 2.9 0.4
v -0.5 2.9 0
v -0.5 2.9 -0.1
v -0.5 2.9 -0.4
v -0.5 2.9 -0.5
v -0.5 3.1 0.6
v -0.5 3.1 0.5
v -0.5 3.2 0.5
v -0.5 3.2 0.4
v -0.5 3.3 0.6
v -0.5 3.3 0.4
v 0.2 2.8 0.0999999
v 0.2 2.8 -0.7
v 0.2 2.9 0.0999999
v 0.2 2.9 -0.7
v 0.4 2 -0.2
v 0.4 2 -0.4
v 0.4 2.3 -0.2
v 0.4 2.3 -0.4
v 0.4 2.5 -0.2
v 0.4 2.5 -0.4
v 0.4 2.7 -0.2
v 0.4 2.7 -0.4
v 0.4 2.8 -0.2
v 0.4 2.8 -0.4
v -0.2 0 0
v -0.2 0 -0.1
v -0.2 0 -0.4
v -0.2 0 -0.5
v -0.2 0.3 0
v -0.2 0.3 -0.1
v -0.2 0.3 -0.4
v -0.2 0.3 -0.5
v -0.2 0.5 0
v -0.2 0.5 -0.1
v -0.2 0.5 -0.4
v -0.2 0.5 -0.5
v -0.2 0.7 0
v -0.2 0.7 -0.1
v -0.2 0.7 -0.4
v -0.2 0.7 -0.5
v -0.2 0.9 0
v -0.2 0.9 -0.1
v -0.2 0.9 -0.4
v -0.2 0.9 -0.5
v -0.2 1.1 0
v -0.2 1.1 -0.1
v -0.2 1.1 -0.4
v -0.2 1.1 -0.5
v -0.2 1.3 0
v -0.2 1.3 -0.1
v -0.2 1.3 -0.4
v -0.2 1.3 -0.5
v -0.2 1.5 0
v -0.2 1.5 -0.1
v -0.2 1.5 -0.4
v -0.2 1.5 -0.5
v -0.2 1.7 0
v -0.2 1.7 -0.1
v -0.2 1.7 -0.4
v -0.2 1.7 -0.5
v -0.2 1.9 0.6
v -0.2 1.9 0
v -0.2 1.9 -0.1
v -0.2 1.9 -0.4
v -0.2 1.9 -0.5
v -0.2 2.1 0.6
v -0.2 2.1 0.4
v -0.2 2.1 0
v -0.2 2.1 -0.1
v -0.2 2.1 -0.4
v -0.2 2.1 -0.5
v -0.2 2.3 0.6
v -0.2 2.3 0.4
v -0.2 2.3 0
v -0.2 2.3 -0.1
v -0.2 2.3 -0.4
v -0.2 2.3 -0.5
v -0.2 2.5 0.6
v -0.2 2.5 0.4
v -0.2 2.5 0
v -0.2 2.5 -0.1
v -0.2 2.5 -0.4
v -0.2 2.5 -0.5
v -0.2 2.7 0.6
v -0.2 2.7 0.4
v -0.2 2.7 0
v -0.2 2.7 -0.1
v -0.2 2.7 -0.4
v -0.2 2.7 -0.5
v -0.2 2.9 0.6
v -0.2 2.9 0.4
v -0.2 2.9 0
v -0.2 2.9 -0.1
v -0.2 2.9 -0.4
v -0.2 2.9 -0.5
v -0.2 3.1 0.6
v -0.2 3.1 0.4
v -0.2 3.3 0.6
v -0.2 3.3 0.4
v 1.19209e-07 0 -0.1
v 1.19209e-07 0 -0.4
v 1.19209e-07 0.3 -0.1
v 1.19209e-07 0.3 -0.4
v 1.19209e-07 0.5 -0.1
v 1.19209e-07 0.5 -0.4
v 1.19209e-07 0.7 -0.1
v 1.19209e-07 0.7 -0.4
v 1.19209e-07 0.9 -0.1
v 1.19209e-07 0.9 -0.4
v 1.19209e-07 1.1 -0.1
v 1.19209e-07 1.1 -0.4
v 1.19209e-07 1.3 -0.1
v 1.19209e-07 1.3 -0.4
v 1.19209e-07 1.5 -0.1
v 1.19209e-07 1.5 -0.4
v 1.19209e-07 1.7 -0.1
v 1.19209e-07 1.7 -0.2
v 1.19209e-07 1.7 -0.4
v 1.19209e-07 1.9 -0.1
v 1.19209e-07 1.9 -0.2
v 1.19209e-07 2 -0.2
v 1.19209e-07 2 -0.4
v 1.19209e-07 2.1 -0.1
v 1.19209e-07 2.1 -0.4
v 1.19209e-07 2.3 -0.1
v 1.19209e-07 2.3 -0.4
v 1.19209e-07 2.5 -0.1
v 1.19209e-07 2.5 -0.4
v 1.19209e-07 2.7 -0.1
v 1.19209e-07 2.7 -0.4
v 1.19209e-07 2.9 -0.1
v 1.19209e-07 2.9 -0.4
v 0.3 2.9 0.3
v 0.3 2.9 0.0999999
v 0.3 2.9 -0.7
v 0.3 2.9 -1
v 0.3 3.3 1.3
v 0.3 3.3 0.3
v 0.3 3.8 1.3
v 0.3 3.8 0.3
v 0.3 4 0.0999999
v 0.3 4 -0.7
v 0.3 4.5 0.3
v 0.3 4.5 -1
v 0.6 1.7 -0.2
v 0.6 1.7 -0.4
v 0.6 1.9 -0.2
v 0.6 1.9 -0.4
v 0.6 2 -0.2
v 0.6 2 -0.4
v 0.6 2.3 -0.2
v 0.6 2.3 -0.4
v 0.6 2.5 -0.2
v 0.6 2.5 -0.4
v 0.6 2.7 -0.2
v 0.6 2.7 -0.4
v 0.6 2.8 -0.2
v 0.6 2.8 -0.4
v 0.8 2.8 0.0999999
v 0.8 2.8 -0.7
v 0.8 4 0.0999999
v 0.8 4 -0.7
v -0.8 3.3 1.3
v -0.8 3.8 1.3
v 0.3 3.3 1.3
v 0.3 3.8 1.3
v -0.5 1.9 0.6
v -0.5 2.1 0.6
v -0.5 2.3 0.6
v -0.5 2.5 0.6
v -0.5 2.7 0.6
v -0.5 2.9 0.6
v -0.5 3.1 0.6
v -0.5 3.3 0.6
v -0.2 1.9 0.6
v -0.2 2.1 0.6
v -0.2 2.3 0.6
v -0.2 2.5 0.6
v -0.2 2.7 0.6
v -0.2 2.9 0.6
v -0.2 3.1 0.6
v -0.2 3.3 0.6
v -1.5 2.9 0.3
v -1.5 4.5 0.3
v -0.8 3.3 0.3
v -0.8 3.8 0.3
v 0.3 2.9 0.3
v 0.3 3.3 0.3
v 0.3 3.8 0.3
v 0.3 4.5 0.3
v 0.2 2.8 0.0999999
v 0.2 2.9 0.0999999
v 0.3 2.9 0.0999999
v 0.3 4 0.0999999
v 0.8 2.8 0.0999999
v 0.8 4 0.0999999
v -0.5 0 0
v -0.5 0.3 0
v -0.5 0.5 0
v -0.5 0.7 0
v -0.5 0.9 0
v -0.5 1.1 0
v -0.5 1.3 0
v -0.5 1.5 0
v -0.5 1.7 0
v -0.5 1.9 0
v -0.5 2.1 0
v -0.5 2.3 0
v -0.5 2.5 0
v -0.5 2.7 0
v -0.5 2.9 0
v -0.2 0 0
v -0.2 0.3 0
v -0.2 0.5 0
v -0.2 0.7 0
v -0.2 0.9 0
v -0.2 1.1 0
v -0.2 1.3 0
v -0.2 1.5 0
v -0.2 1.7 0
v -0.2 1.9 0
v -0.2 2.1 0
v -0.2 2.3 0
v -0.2 2.5 0
v -0.2 2.7 0
v -0.2 2.9 0
v -0.6 0 -0.1
v -0.6 0.3 -0.1
v -0.6 0.5 -0.1
v -0.6 0.7 -0.1
v -0.6 0.9 -0.1
v -0.6 1.1 -0.1
v -0.6 1.3 -0.1
v -0.6 1.5 -0.1
v -0.6 1.7 -0.1
v -0.6 1.9 -0.1
v -0.6 2.1 -0.1
v -0.6 2.3 -0.1
v -0.6 2.5 -0.1
v -0.6 2.7 -0.1
v -0.6 2.9 -0.1
v -0.5 0 -0.1
v -0.5 0.3 -0.1
v -0.5 0.5 -0.1
v -0.5 0.7 -0.1
v -0.5 0.9 -0.1
v -0.5 1.1 -0.1
v -0.5 1.3 -0.1
v -0.5 1.5 -0.1
v -0.5 1.7 -0.1
v -0.5 1.9 -0.1
v -0.5 2.1 -0.1
v -0.5 2.3 -0.1
v -0.5 2.5 -0.1
v -0.5 2.7 -0.1
v -0.5 2.9 -0.1
v -0.2 0 -0.1
v -0.2 0.3 -0.1
v -0.2 0.5 -0.1
v -0.2 0.7 -0.1
v -0.2 0.9 -0.1
v -0.2 1.1 -0.1
v -0.2 1.3 -0.1
v -0.2 1.5 -0.1
v -0.2 1.7 -0.1
v -0.2 1.9 -0.1
v -0.2 2.1 -0.1
v -0.2 2.3 -0.1
v -0.2 2.5 -0.1
v -0.2 2.7 -0.1
v -0.2 2.9 -0.1
v 1.19209e-07 0 -0.1
v 1.19209e-07 0.3 -0.1
v 1.19209e-07 0.5 -0.1
v 1.19209e-07 0.7 -0.1
v 1.19209e-07 0.9 -0.1
v 1.19209e-07 1.1 -0.1
v 1.19209e-07 1.3 -0.1
v 1.19209e-07 1.5 -0.1
v 1.19209e-07 1.7 -0.1
v 1.19209e-07 1.9 -0.1
v 1.19209e-07 2.1 -0.1
v 1.19209e-07 2.3 -0.1
v 1.19209e-07 2.5 -0.1
v 1.19209e-07 2.7 -0.1
v 1.19209e-07 2.9 -0.1
v 1.19209e-07 1.7 -0.2
v 1.19209e-07 1.9 -0.2
v 1.19209e-07 2 -0.2
v 0.4 2 -0.2
v 0.4 2.3 -0.2
v 0.4 2.5 -0.2
v 0.4 2.7 -0.2
v 0.4 2.8 -0.2
v 0.6 1.7 -0.2
v 0.6 1.9 -0.2
v 0.6 2 -0.2
v 0.6 2.3 -0.2
v 0.6 2.5 -0.2
v 0.6 2.7 -0.2
v 0.6 2.8 -0.2
v -0.5 2.1 0.4
v -0.5 2.3 0.4
v -0.5 2.5 0.4
v -0.5 2.7 0.4
v -0.5 2.9 0.4
v -0.5 3.2 0.4
v -0.5 3.3 0.4
v -0.3 3.1 0.4
v -0.3 3.2 0.4
v -0.2 2.1 0.4
v -0.2 2.3 0.4
v -0.2 2.5 0.4
v -0.2 2.7 0.4
v -0.2 2.9 0.4
v -0.2 3.1 0.4
v -0.2 3.3 0.4
v -0.6 0 -0.4
v -0.6 0.3 -0.4
v -0.6 0.5 -0.4
v -0.6 0.7 -0.4
v -0.6 0.9 -0.4
v -0.6 1.1 -0.4
v -0.6 1.3 -0.4
v -0.6 1.5 -0.4
v -0.6 1.7 -0.4
v -0.6 1.9 -0.4
v -0.6 2.1 -0.4
v -0.6 2.3 -0.4
v -0.6 2.5 -0.4
v -0.6 2.7 -0.4
v -0.6 2.9 -0.4
v -0.5 0 -0.4
v -0.5 0.3 -0.4
v -0.5 0.5 -0.4
v -0.5 0.7 -0.4
v -0.5 0.9 -0.4
v -0.5 1.1 -0.4
v -0.5 1.3 -0.4
v -0.5 1.5 -0.4
v -0.5 1.7 -0.4
v -0.5 1.9 -0.4
v -0.5 2.1 -0.4
v -0.5 2.3 -0.4
v -0.5 2.5 -0.4
v -0.5 2.7 -0.4
v -0.5 2.9 -0.4
v -0.2 0 -0.4
v -0.2 0.3 -0.4
v -0.2 0.5 -0.4
v -0.2 0.7 -0.4
v -0.2 0.9 -0.4
v -0.2 1.1 -0.4
v -0.2 1.3 -0.4
v -0.2 1.5 -0.4
v -0.2 1.7 -0.4
v -0.2 1.9 -0.4
v -0.2 2.1 -0.4
v -0.2 2.3 -0.4
v -0.2 2.5 -0.4
v -0.2 2.7 -0.4
v -0.2 2.9 -0.4
v 1.19209e-07 0 -0.4
v 1.19209e-07 0.3 -0.4
v 1.19209e-07 0.5 -0.4
v 1.19209e-07 0.7 -0.4
v 1.19209e-07 0.9 -0.4
v 1.19209e-07 1.1 -0.4
v 1.19209e-07 1.3 -0.4
v 1.19209e-07 1.5 -0.4
v 1.19209e-07 1.7 -0.4
v 1.19209e-07 2 -0.4
v 1.19209e-07 2.1 -0.4
v 1.19209e-07 2.3 -0.4
v 1.19209e-07 2.5 -0.4
v 1.19209e-07 2.7 -0.4
v 1.19209e-07 2.9 -0.4
v 0.4 2 -0.4
v 0.4 2.3 -0.4
v 0.4 2.5 -0.4
v 0.4 2.7 -0.4
v 0.4 2.8 -0.4
v 0.6 1.7 -0.4
v 0.6 1.9 -0.4
v 0.6 2 -0.4
v 0.6 2.3 -0.4
v 0.6 2.5 -0.4
v 0.6 2.7 -0.4
v 0.6 2.8 -0.4
v -0.5 0 -0.5
v -0.5 0.3 -0.5
v -0.5 0.5 -0.5
v -0.5 0.7 -0.5
v -0.5 0.9 -0.5
v -0.5 1.1 -0.5
v -0.5 1.3 -0.5
v -0.5 1.5 -0.5
v -0.5 1.7 -0.5
v -0.5 1.9 -0.5
v -0.5 2.1 -0.5
v -0.5 2.3 -0.5
v -0.5 2.5 -0.5
v -0.5 2.7 -0.5
v -0.5 2.9 -0.5
v -0.2 0 -0.5
v -0.2 0.3 -0.5
v -0.2 0.5 -0.5
v -0.2 0.7 -0.5
v -0.2 0.9 -0.5
v -0.2 1.1 -0.5
v -0.2 1.3 -0.5
v -0.2 1.5 -0.5
v -0.2 1.7 -0.5
v -0.2 1.9 -0.5
v -0.2 2.1 -0.5
v -0.2 2.3 -0.5
v -0.2 2.5 -0.5
v -0.2 2.7 -0.5
v -0.2 2.9 -0.5
v 0.2 2.8 -0.7
v 0.2 2.9 -0.7
v 0.3 2.9 -0.7
v 0.3 4 -0.7
v 0.8 2.8 -0.7
v 0.8 4 -0.7
v -1.5 2.9 -1
v -1.5 4.5 -1
v 0.3 2.9 -1
v 0.3 4.5 -1
v -0.5 0 0
v -0.2 0 0
v -0.6 0 -0.1
v -0.5 0 -0.1
v -0.2 0 -0.1
v 1.19209e-07 0 -0.1
v -0.6 0 -0.4
v -0.5 0 -0.4
v -0.2 0 -0.4
v 1.19209e-07 0 -0.4
v -0.5 0 -0.5
v -0.2 0 -0.5
v 1.19209e-07 1.7 -0.2
v 0.6 1.7 -0.2
v 1.19209e-07 1.7 -0.4
v 0.6 1.7 -0.4
v -0.5 1.9 0.6
v -0.2 1.9 0.6
v -0.5 1.9 0
v -0.2 1.9 0
v 0.2 2.8 0.0999999
v 0.8 2.8 0.0999999
v 0.4 2.8 -0.2
v 0.6 2.8 -0.2
v 0.4 2.8 -0.4
v 0.6 2.8 -0.4
v 0.2 2.8 -0.7
v 0.8 2.8 -0.7
v -1.5 2.9 0.3
v 0.3 2.9 0.3
v 0.2 2.9 0.0999999
v 0.3 2.9 0.0999999
v -0.5 2.9 0
v -0.2 2.9 0
v -0.6 2.9 -0.1
v -0.5 2.9 -0.1
v -0.2 2.9 -0.1
v 1.19209e-07 2.9 -0.1
v -0.6 2.9 -0.4
v -0.5 2.9 -0.4
v -0.2 2.9 -0.4
v 1.19209e-07 2.9 -0.4
v -0.5 2.9 -0.5
v -0.2 2.9 -0.5
v 0.2 2.9 -0.7
v 0.3 2.9 -0.7
v -1.5 2.9 -1
v 0.3 2.9 -1
v -0.8 3.3 1.3
v 0.3 3.3 1.3
v -0.5 3.3 0.6
v -0.2 3.3 0.6
v -0.5 3.3 0.4
v -0.2 3.3 0.4
v -0.8 3.3 0.3
v 0.3 3.3 0.3
v 1.19209e-07 2 -0.2
v 0.4 2 -0.2
v 1.19209e-07 2 -0.4
v 0.4 2 -0.4
v -0.5 2.1 0.4
v -0.2 2.1 0.4
v -0.5 2.1 0
v -0.2 2.1 0
v -0.8 3.8 1.3
v 0.3 3.8 1.3
v -0.8 3.8 0.3
v 0.3 3.8 0.3
v 0.3 4 0.0999999
v 0.8 4 0.0999999
v 0.3 4 -0.7
v 0.8 4 -0.7
v -1.5 4.5 0.3
v 0.3 4.5 0.3
v -1.5 4.5 -1
v 0.3 4.5 -1

# faces
f 3/4/1 2/4/1 1/4/1
f 4/4/1 2/4/1 3/4/1
f 7/5/1 6/5/1 5/5/1
f 8/5/1 6/5/1 7/5/1
f 11/1/1 10/1/1 9/1/1
f 12/1/1 10/1/1 11/1/1
f 13/2/1 12/2/1 11/2/1
f 14/2/1 12/2/1 13/2/1
f 15/1/1 14/1/1 13/1/1
f 16/1/1 14/1/1 15/1/1
f 17/2/1 16/2/1 15/2/1
f 18/2/1 16/2/1 17/2/1
f 19/1/1 18/1/1 17/1/1
f 20/1/1 18/1/1 19/1/1
f 21/2/1 20/2/1 19/2/1
f 22/2/1 20/2/1 21/2/1
f 23/1/1 22/1/1 21/1/1
f 24/1/1 22/1/1 23/1/1
f 25/2/1 24/2/1 23/2/1
f 26/2/1 24/2/1 25/2/1
f 27/1/1 26/1/1 25/1/1
f 28/1/1 26/1/1 27/1/1
f 29/2/1 28/2/1 27/2/1
f 30/2/1 28/2/1 29/2/1
f 31/1/1 30/1/1 29/1/1
f 32/1/1 30/1/1 31/1/1
f 33/2/1 32/2/1 31/2/1
f 34/2/1 32/2/1 33/2/1
f 35/1/1 34/1/1 33/1/1
f 36/1/1 34/1/1 35/1/1
f 37/2/1 36/2/1 35/2/1
f 38/2/1 36/2/1 37/2/1
f 43/1/1 40/1/1 39/1/1
f 44/1/1 40/1/1 43/1/1
f 45/1/1 42/1/1 41/1/1
f 46/1/1 42/1/1 45/1/1
f 47/2/1 44/2/1 43/2/1
f 48/2/1 44/2/1 47/2/1
f 49/2/1 46/2/1 45/2/1
f 50/2/1 46/2/1 49/2/1
f 51/1/1 48/1/1 47/1/1
f 52/1/1 48/1/1 51/1/1
f 53/1/1 50/1/1 49/1/1
f 54/1/1 50/1/1 53/1/1
f 55/2/1 52/2/1 51/2/1
f 56/2/1 52/2/1 55/2/1
f 57/2/1 54/2/1 53/2/1
f 58/2/1 54/2/1 57/2/1
f 59/1/1 56/1/1 55/1/1
f 60/1/1 56/1/1 59/1/1
f 61/1/1 58/1/1 57/1/1
f 62/1/1 58/1/1 61/1/1
f 63/2/1 60/2/1 59/2/1
f 64/2/1 60/2/1 63/2/1
f 65/2/1 62/2/1 61/2/1
f 66/2/1 62/2/1 65/2/1
f 67/1/1 64/1/1 63/1/1
f 68/1/1 64/1/1 67/1/1
f 69/1/1 66/1/1 65/1/1
f 70/1/1 66/1/1 69/1/1
f 71/2/1 68/2/1 67/2/1
f 72/2/1 68/2/1 71/2/1
f 73/2/1 70/2/1 69/2/1
f 74/2/1 70/2/1 73/2/1
f 76/1/1 72/1/1 71/1/1
f 77/1/1 72/1/1 76/1/1
f 78/1/1 74/1/1 73/1/1
f 79/1/1 74/1/1 78/1/1
f 80/2/1 77/2/1 76/2/1
f 80/2/1 76/2/1 75/2/1
f 81/2/1 77/2/1 80/2/1
f 82/2/1 77/2/1 81/2/1
f 83/2/1 77/2/1 82/2/1
f 84/2/1 79/2/1 78/2/1
f 85/2/1 79/2/1 84/2/1
f 86/1/1 81/1/1 80/1/1
f 87/1/1 81/1/1 86/1/1
f 88/1/1 83/1/1 82/1/1
f 89/1/1 83/1/1 88/1/1
f 90/1/1 85/1/1 84/1/1
f 91/1/1 85/1/1 90/1/1
f 92/2/1 87/2/1 86/2/1
f 93/2/1 87/2/1 92/2/1
f 94/2/1 89/2/1 88/2/1
f 95/2/1 89/2/1 94/2/1
f 96/2/1 91/2/1 90/2/1
f 97/2/1 91/2/1 96/2/1
f 98/1/1 93/1/1 92/1/1
f 99/1/1 93/1/1 98/1/1
f 100/1/1 95/1/1 94/1/1
f 101/1/1 95/1/1 100/1/1
f 102/1/1 97/1/1 96/1/1
f 103/1/1 97/1/1 102/1/1
f 104/2/1 99/2/1 98/2/1
f 105/2/1 99/2/1 104/2/1
f 106/2/1 101/2/1 100/2/1
f 107/2/1 101/2/1 106/2/1
f 108/2/1 103/2/1 102/2/1
f 109/2/1 103/2/1 108/2/1
f 110/1/1 105/1/1 104/1/1
f 111/1/1 105/1/1 110/1/1
f 112/2/1 111/2/1 110/2/1
f 112/1/1 105/1/1 111/1/1
f 113/1/1 105/1/1 112/1/1
f 114/2/1 112/2/1 110/2/1
f 114/2/1 113/2/1 112/2/1
f 115/2/1 113/2/1 114/2/1
f 118/3/1 117/3/1 116/3/1
f 119/3/1 117/3/1 118/3/1
f 122/1/1 121/1/1 120/1/1
f 123/1/1 121/1/1 122/1/1
f 124/2/1 123/2/1 122/2/1
f 125/2/1 123/2/1 124/2/1
f 126/1/1 125/1/1 124/1/1
f 127/1/1 125/1/1 126/1/1
f 128/2/1 127/2/1 126/2/1
f 129/2/1 127/2/1 128/2/1
f 130/1/2 131/1/2 134/1/2
f 134/1/2 131/1/2 135/1/2
f 132/1/2 133/1/2 136/1/2
f 136/1/2 133/1/2 137/1/2
f 134/2/2 135/2/2 138/2/2
f 138/2/2 135/2/2 139/2/2
f 136/2/2 137/2/2 140/2/2
f 140/2/2 137/2/2 141/2/2
f 138/1/2 139/1/2 142/1/2
f 142/1/2 139/1/2 143/1/2
f 140/1/2 141/1/2 144/1/2
f 144/1/2 141/1/2 145/1/2
f 142/2/2 143/2/2 146/2/2
f 146/2/2 143/2/2 147/2/2
f 144/2/2 145/2/2 148/2/2
f 148/2/2 145/2/2 149/2/2
f 146/1/2 147/1/2 150/1/2
f 150/1/2 147/1/2 151/1/2
f 148/1/2 149/1/2 152/1/2
f 152/1/2 149/1/2 153/1/2
f 150/2/2 151/2/2 154/2/2
f 154/2/2 151/2/2 155/2/2
f 152/2/2 153/2/2 156/2/2
f 156/2/2 153/2/2 157/2/2
f 154/1/2 155/1/2 158/1/2
f 158/1/2 155/1/2 159/1/2
f 156/1/2 157/1/2 160/1/2
f 160/1/2 157/1/2 161/1/2
f 158/2/2 159/2/2 162/2/2
f 162/2/2 159/2/2 163/2/2
f 160/2/2 161/2/2 164/2/2
f 164/2/2 161/2/2 165/2/2
f 162/1/2 163/1/2 167/1/2
f 167/1/2 163/1/2 168/1/2
f 164/1/2 165/1/2 169/1/2
f 169/1/2 165/1/2 170/1/2
f 167/2/2 168/2/2 171/2/2
f 166/2/2 167/2/2 171/2/2
f 171/2/2 168/2/2 172/2/2
f 172/2/2 168/2/2 173/2/2
f 173/2/2 168/2/2 174/2/2
f 169/2/2 170/2/2 175/2/2
f 175/2/2 170/2/2 176/2/2
f 171/1/2 172/1/2 177/1/2
f 177/1/2 172/1/2 178/1/2
f 173/1/2 174/1/2 179/1/2
f 179/1/2 174/1/2 180/1/2
f 175/1/2 176/1/2 181/1/2
f 181/1/2 176/1/2 182/1/2
f 177/2/2 178/2/2 183/2/2
f 183/2/2 178/2/2 184/2/2
f 179/2/2 180/2/2 185/2/2
f 185/2/2 180/2/2 186/2/2
f 181/2/2 182/2/2 187/2/2
f 187/2/2 182/2/2 188/2/2
f 183/1/2 184/1/2 189/1/2
f 189/1/2 184/1/2 190/1/2
f 185/1/2 186/1/2 191/1/2
f 191/1/2 186/1/2 192/1/2
f 187/1/2 188/1/2 193/1/2
f 193/1/2 188/1/2 194/1/2
f 189/2/2 190/2/2 195/2/2
f 195/2/2 190/2/2 196/2/2
f 191/2/2 192/2/2 197/2/2
f 197/2/2 192/2/2 198/2/2
f 193/2/2 194/2/2 199/2/2
f 199/2/2 194/2/2 200/2/2
f 195/1/2 196/1/2 201/1/2
f 201/1/2 196/1/2 202/1/2
f 201/2/2 202/2/2 203/2/2
f 203/2/2 202/2/2 204/2/2
f 205/1/2 206/1/2 207/1/2
f 207/1/2 206/1/2 208/1/2
f 207/2/2 208/2/2 209/2/2
f 209/2/2 208/2/2 210/2/2
f 209/1/2 210/1/2 211/1/2
f 211/1/2 210/1/2 212/1/2
f 211/2/2 212/2/2 213/2/2
f 213/2/2 212/2/2 214/2/2
f 213/1/2 214/1/2 215/1/2
f 215/1/2 214/1/2 216/1/2
f 215/2/2 216/2/2 217/2/2
f 217/2/2 216/2/2 218/2/2
f 217/1/2 218/1/2 219/1/2
f 219/1/2 218/1/2 220/1/2
f 219/2/2 220/2/2 221/2/2
f 221/2/2 220/2/2 222/2/2
f 222/2/2 220/2/2 223/2/2
f 221/1/2 222/1/2 224/1/2
f 224/1/2 222/1/2 225/1/2
f 224/2/2 225/2/2 226/2/2
f 224/2/2 226/2/2 228/2/2
f 226/2/2 227/2/2 228/2/2
f 228/2/2 227/2/2 229/2/2
f 228/1/2 229/1/2 230/1/2
f 230/1/2 229/1/2 231/1/2
f 230/2/2 231/2/2 232/2/2
f 232/2/2 231/2/2 233/2/2
f 232/1/2 233/1/2 234/1/2
f 234/1/2 233/1/2 235/1/2
f 234/2/2 235/2/2 236/2/2
f 236/2/2 235/2/2 237/2/2
f 238/4/2 239/4/2 243/4/2
f 242/5/2 243/5/2 244/5/2
f 243/4/2 239/4/2 245/4/2
f 244/5/2 243/5/2 245/5/2
f 245/4/2 239/4/2 246/4/2
f 240/4/2 241/4/2 247/4/2
f 245/4/2 246/4/2 248/4/2
f 246/4/2 247/4/2 248/4/2
f 247/4/2 241/4/2 249/4/2
f 248/4/2 247/4/2 249/4/2
f 250/1/2 251/1/2 252/1/2
f 252/1/2 251/1/2 253/1/2
f 252/2/2 253/2/2 254/2/2
f 254/2/2 253/2/2 255/2/2
f 254/1/2 255/1/2 256/1/2
f 256/1/2 255/1/2 257/1/2
f 256/2/2 257/2/2 258/2/2
f 258/2/2 257/2/2 259/2/2
f 258/1/2 259/1/2 260/1/2
f 260/1/2 259/1/2 261/1/2
f 260/2/2 261/2/2 262/2/2
f 262/2/2 261/2/2 263/2/2
f 264/3/2 265/3/2 266/3/2
f 266/3/2 265/3/2 267/3/2
f 270/5/3 269/5/3 268/5/3
f 271/5/3 269/5/3 270/5/3
f 280/2/3 273/2/3 272/2/3
f 281/1/3 274/1/3 273/1/3
f 281/2/3 273/2/3 280/2/3
f 282/2/3 275/2/3 274/2/3
f 282/1/3 274/1/3 281/1/3
f 283/1/3 276/1/3 275/1/3
f 283/2/3 275/2/3 282/2/3
f 284/2/3 277/2/3 276/2/3
f 284/1/3 276/1/3 283/1/3
f 285/1/3 278/1/3 277/1/3
f 285/2/3 277/2/3 284/2/3
f 286/2/3 279/2/3 278/2/3
f 286/1/3 278/1/3 285/1/3
f 287/2/3 279/2/3 286/2/3
f 290/4/3 289/4/3 288/4/3
f 291/4/3 289/4/3 290/4/3
f 292/4/3 290/4/3 288/4/3
f 293/4/3 290/4/3 292/4/3
f 294/4/3 289/4/3 291/4/3
f 295/4/3 289/4/3 294/4/3
f 298/3/3 297/3/3 296/3/3
f 300/3/3 298/3/3 296/3/3
f 300/3/3 299/3/3 298/3/3
f 301/3/3 299/3/3 300/3/3
f 317/1/3 303/1/3 302/1/3
f 318/2/3 304/2/3 303/2/3
f 318/1/3 303/1/3 317/1/3
f 319/1/3 305/1/3 304/1/3
f 319/2/3 304/2/3 318/2/3
f 320/2/3 306/2/3 305/2/3
f 320/1/3 305/1/3 319/1/3
f 321/1/3 307/1/3 306/1/3
f 321/2/3 306/2/3 320/2/3
f 322/2/3 308/2/3 307/2/3
f 322/1/3 307/1/3 321/1/3
f 323/1/3 309/1/3 308/1/3
f 323/2/3 308/2/3 322/2/3
f 324/2/3 310/2/3 309/2/3
f 324/1/3 309/1/3 323/1/3
f 325/1/3 311/1/3 310/1/3
f 325/2/3 310/2/3 324/2/3
f 326/1/3 311/1/3 325/1/3
f 327/1/3 313/1/3 312/1/3
f 328/2/3 314/2/3 313/2/3
f 328/1/3 313/1/3 327/1/3
f 329/1/3 315/1/3 314/1/3
f 329/2/3 314/2/3 328/2/3
f 330/2/3 316/2/3 315/2/3
f 330/1/3 315/1/3 329/1/3
f 331/2/3 316/2/3 330/2/3
f 347/1/3 333/1/3 332/1/3
f 348/2/3 334/2/3 333/2/3
f 348/1/3 333/1/3 347/1/3
f 349/1/3 335/1/3 334/1/3
f 349/2/3 334/2/3 348/2/3
f 350/2/3 336/2/3 335/2/3
f 350/1/3 335/1/3 349/1/3
f 351/1/3 337/1/3 336/1/3
f 351/2/3 336/2/3 350/2/3
f 352/2/3 338/2/3 337/2/3
f 352/1/3 337/1/3 351/1/3
f 353/1/3 339/1/3 338/1/3
f 353/2/3 338/2/3 352/2/3
f 354/2/3 340/2/3 339/2/3
f 354/1/3 339/1/3 353/1/3
f 355/1/3 341/1/3 340/1/3
f 355/2/3 340/2/3 354/2/3
f 356/2/3 342/2/3 341/2/3
f 356/1/3 341/1/3 355/1/3
f 357/1/3 343/1/3 342/1/3
f 357/2/3 342/2/3 356/2/3
f 358/2/3 344/2/3 343/2/3
f 358/1/3 343/1/3 357/1/3
f 359/1/3 345/1/3 344/1/3
f 359/2/3 344/2/3 358/2/3
f 360/2/3 346/2/3 345/2/3
f 360/1/3 345/1/3 359/1/3
f 361/2/3 346/2/3 360/2/3
f 377/1/3 363/1/3 362/1/3
f 378/2/3 364/2/3 363/2/3
f 378/1/3 363/1/3 377/1/3
f 379/1/3 365/1/3 364/1/3
f 379/2/3 364/2/3 378/2/3
f 380/2/3 366/2/3 365/2/3
f 380/1/3 365/1/3 379/1/3
f 381/1/3 367/1/3 366/1/3
f 381/2/3 366/2/3 380/2/3
f 382/2/3 368/2/3 367/2/3
f 382/1/3 367/1/3 381/1/3
f 383/1/3 369/1/3 368/1/3
f 383/2/3 368/2/3 382/2/3
f 384/2/3 370/2/3 369/2/3
f 384/1/3 369/1/3 383/1/3
f 385/1/3 371/1/3 370/1/3
f 385/2/3 370/2/3 384/2/3
f 386/2/3 372/2/3 371/2/3
f 386/1/3 371/1/3 385/1/3
f 387/1/3 373/1/3 372/1/3
f 387/2/3 372/2/3 386/2/3
f 388/2/3 374/2/3 373/2/3
f 388/1/3 373/1/3 387/1/3
f 389/1/3 375/1/3 374/1/3
f 389/2/3 374/2/3 388/2/3
f 390/2/3 376/2/3 375/2/3
f 390/1/3 375/1/3 389/1/3
f 391/2/3 376/2/3 390/2/3
f 395/2/3 394/2/3 393/2/3
f 400/1/3 393/1/3 392/1/3
f 401/2/3 395/2/3 393/2/3
f 401/1/3 393/1/3 400/1/3
f 402/1/3 396/1/3 395/1/3
f 402/2/3 395/2/3 401/2/3
f 403/2/3 397/2/3 396/2/3
f 403/1/3 396/1/3 402/1/3
f 404/1/3 398/1/3 397/1/3
f 404/2/3 397/2/3 403/2/3
f 405/2/3 399/2/3 398/2/3
f 405/1/3 398/1/3 404/1/3
f 406/2/3 399/2/3 405/2/3
f 411/1/4 412/1/4 414/1/4
f 412/2/4 413/2/4 415/2/4
f 414/1/4 412/1/4 415/1/4
f 407/1/4 408/1/4 416/1/4
f 408/2/4 409/2/4 417/2/4
f 416/1/4 408/1/4 417/1/4
f 409/1/4 410/1/4 418/1/4
f 417/2/4 409/2/4 418/2/4
f 410/2/4 411/2/4 419/2/4
f 418/1/4 410/1/4 419/1/4
f 411/1/4 414/1/4 420/1/4
f 419/2/4 411/2/4 420/2/4
f 414/2/4 415/2/4 421/2/4
f 420/1/4 414/1/4 421/1/4
f 415/2/4 413/2/4 422/2/4
f 421/2/4 415/2/4 422/2/4
f 423/1/4 424/1/4 438/1/4
f 424/2/4 425/2/4 439/2/4
f 438/1/4 424/1/4 439/1/4
f 425/1/4 426/1/4 440/1/4
f 439/2/4 425/2/4 440/2/4
f 426/2/4 427/2/4 441/2/4
f 440/1/4 426/1/4 441/1/4
f 427/1/4 428/1/4 442/1/4
f 441/2/4 427/2/4 442/2/4
f 428/2/4 429/2/4 443/2/4
f 442/1/4 428/1/4 443/1/4
f 429/1/4 430/1/4 444/1/4
f 443/2/4 429/2/4 444/2/4
f 430/2/4 431/2/4 445/2/4
f 444/1/4 430/1/4 445/1/4
f 431/1/4 432/1/4 446/1/4
f 445/2/4 431/2/4 446/2/4
f 432/2/4 433/2/4 447/2/4
f 446/1/4 432/1/4 447/1/4
f 433/1/4 434/1/4 448/1/4
f 447/2/4 433/2/4 448/2/4
f 434/2/4 435/2/4 449/2/4
f 448/1/4 434/1/4 449/1/4
f 435/1/4 436/1/4 450/1/4
f 449/2/4 435/2/4 450/2/4
f 436/2/4 437/2/4 451/2/4
f 450/1/4 436/1/4 451/1/4
f 451/2/4 437/2/4 452/2/4
f 453/1/4 454/1/4 468/1/4
f 454/2/4 455/2/4 469/2/4
f 468/1/4 454/1/4 469/1/4
f 455/1/4 456/1/4 470/1/4
f 469/2/4 455/2/4 470/2/4
f 456/2/4 457/2/4 471/2/4
f 470/1/4 456/1/4 471/1/4
f 457/1/4 458/1/4 472/1/4
f 471/2/4 457/2/4 472/2/4
f 458/2/4 459/2/4 473/2/4
f 472/1/4 458/1/4 473/1/4
f 459/1/4 460/1/4 474/1/4
f 473/2/4 459/2/4 474/2/4
f 460/2/4 461/2/4 475/2/4
f 474/1/4 460/1/4 475/1/4
f 461/1/4 462/1/4 476/1/4
f 475/2/4 461/2/4 476/2/4
f 462/2/4 463/2/4 477/2/4
f 463/1/4 464/1/4 478/1/4
f 477/2/4 463/2/4 478/2/4
f 464/2/4 465/2/4 479/2/4
f 478/1/4 464/1/4 479/1/4
f 465/1/4 466/1/4 480/1/4
f 479/2/4 465/2/4 480/2/4
f 466/2/4 467/2/4 481/2/4
f 480/1/4 466/1/4 481/1/4
f 481/2/4 467/2/4 482/2/4
f 462/2/4 477/2/4 483/2/4
f 476/1/4 462/1/4 488/1/4
f 462/2/4 483/2/4 489/2/4
f 488/1/4 462/1/4 489/1/4
f 483/1/4 484/1/4 490/1/4
f 489/2/4 483/2/4 490/2/4
f 484/2/4 485/2/4 491/2/4
f 490/1/4 484/1/4 491/1/4
f 485/1/4 486/1/4 492/1/4
f 491/2/4 485/2/4 492/2/4
f 486/2/4 487/2/4 493/2/4
f 492/1/4 486/1/4 493/1/4
f 493/2/4 487/2/4 494/2/4
f 495/1/4 496/1/4 510/1/4
f 496/2/4 497/2/4 511/2/4
f 510/1/4 496/1/4 511/1/4
f 497/1/4 498/1/4 512/1/4
f 511/2/4 497/2/4 512/2/4
f 498/2/4 499/2/4 513/2/4
f 512/1/4 498/1/4 513/1/4
f 499/1/4 500/1/4 514/1/4
f 513/2/4 499/2/4 514/2/4
f 500/2/4 501/2/4 515/2/4
f 514/1/4 500/1/4 515/1/4
f 501/1/4 502/1/4 516/1/4
f 515/2/4 501/2/4 516/2/4
f 502/2/4 503/2/4 517/2/4
f 516/1/4 502/1/4 517/1/4
f 503/1/4 504/1/4 518/1/4
f 517/2/4 503/2/4 518/2/4
f 504/2/4 505/2/4 519/2/4
f 518/1/4 504/1/4 519/1/4
f 505/1/4 506/1/4 520/1/4
f 519/2/4 505/2/4 520/2/4
f 506/2/4 507/2/4 521/2/4
f 520/1/4 506/1/4 521/1/4
f 507/1/4 508/1/4 522/1/4
f 521/2/4 507/2/4 522/2/4
f 508/2/4 509/2/4 523/2/4
f 522/1/4 508/1/4 523/1/4
f 523/2/4 509/2/4 524/2/4
f 525/3/4 526/3/4 527/3/4
f 525/3/4 527/3/4 529/3/4
f 527/3/4 528/3/4 529/3/4
f 529/3/4 528/3/4 530/3/4
f 531/4/4 532/4/4 533/4/4
f 533/4/4 532/4/4 534/4/4
f 538/1/5 536/1/5 535/1/5
f 539/1/5 536/1/5 538/1/5
f 541/1/5 538/1/5 537/1/5
f 541/1/5 540/1/5 539/1/5
f 541/1/5 539/1/5 538/1/5
f 542/1/5 540/1/5 541/1/5
f 543/1/5 540/1/5 542/1/5
f 544/1/5 540/1/5 543/1/5
f 545/1/5 543/1/5 542/1/5
f 546/1/5 543/1/5 545/1/5
f 549/1/5 548/1/5 547/1/5
f 550/1/5 548/1/5 549/1/5
f 553/2/5 552/2/5 551/2/5
f 554/2/5 552/2/5 553/2/5
f 557/3/5 556/3/5 555/3/5
f 558/3/5 556/3/5 557/3/5
f 559/3/5 557/3/5 555/3/5
f 560/3/5 556/3/5 558/3/5
f 561/3/5 559/3/5 555/3/5
f 561/3/5 560/3/5 559/3/5
f 562/3/5 556/3/5 560/3/5
f 562/3/5 560/3/5 561/3/5
f 565/4/5 564/4/5 563/4/5
f 566/4/5 564/4/5 565/4/5
f 567/4/5 565/4/5 563/4/5
f 568/4/5 565/4/5 567/4/5
f 569/4/5 567/4/5 563/4/5
f 570/4/5 567/4/5 569/4/5
f 571/4/5 565/4/5 568/4/5
f 572/4/5 565/4/5 571/4/5
f 573/4/5 569/4/5 563/4/5
f 576/4/5 565/4/5 572/4/5
f 577/4/5 574/4/5 573/4/5
f 578/4/5 576/4/5 575/4/5
f 579/4/5 565/4/5 576/4/5
f 579/4/5 578/4/5 577/4/5
f 579/4/5 576/4/5 578/4/5
f 581/4/5 577/4/5 573/4/5
f 581/4/5 580/4/5 579/4/5
f 581/4/5 579/4/5 577/4/5
f 581/4/5 573/4/5 563/4/5
f 582/4/5 580/4/5 581/4/5
f 585/5/5 584/5/5 583/5/5
f 586/5/5 584/5/5 585/5/5
f 587/5/5 585/5/5 583/5/5
f 588/5/5 584/5/5 586/5/5
f 589/5/5 587/5/5 583/5/5
f 589/5/5 588/5/5 587/5/5
f 590/5/5 584/5/5 588/5/5
f 590/5/5 588/5/5 589/5/5
f 591/2/6 592/2/6 593/2/6
f 593/2/6 592/2/6 594/2/6
f 595/2/6 596/2/6 597/2/6
f 597/2/6 596/2/6 598/2/6
f 599/5/6 600/5/6 601/5/6
f 601/5/6 600/5/6 602/5/6
f 603/3/6 604/3/6 605/3/6
f 605/3/6 604/3/6 606/3/6
f 607/4/6 608/4/6 609/4/6
f 609/4/6 608/4/6 610/4/6
