# MagicaVoxel @ Ephtracy

# group
o 

# material
mtllib road4.mtl
usemtl palette

# normals
vn -1 0 0
vn 1 0 0
vn 0 0 1
vn 0 0 -1
vn 0 -1 0
vn 0 1 0

# texcoords
vt 0.970703 0.5
vt 0.974609 0.5
vt 0.978516 0.5

# verts
v -2.5 0 2.5
v -2.5 0 1.5
v -2.5 0 1.3
v -2.5 0 1.1
v -2.5 0 0.9
v -2.5 0 0.7
v -2.5 0 0.5
v -2.5 0 0.3
v -2.5 0 0.0999999
v -2.5 0 -0.1
v -2.5 0 -0.3
v -2.5 0 -0.5
v -2.5 0 -0.7
v -2.5 0 -0.9
v -2.5 0 -1.1
v -2.5 0 -1.3
v -2.5 0 -1.5
v -2.5 0 -2.5
v -2.5 0.1 2.5
v -2.5 0.1 1.7
v -2.5 0.1 1.5
v -2.5 0.1 1.3
v -2.5 0.1 1.1
v -2.5 0.1 0.9
v -2.5 0.1 0.7
v -2.5 0.1 0.5
v -2.5 0.1 0.3
v -2.5 0.1 0.0999999
v -2.5 0.1 -0.1
v -2.5 0.1 -0.3
v -2.5 0.1 -0.5
v -2.5 0.1 -0.7
v -2.5 0.1 -0.9
v -2.5 0.1 -1.1
v -2.5 0.1 -1.3
v -2.5 0.1 -1.5
v -2.5 0.1 -1.7
v -2.5 0.1 -2.5
v -2.5 0.2 2.5
v -2.5 0.2 1.7
v -2.5 0.2 -1.7
v -2.5 0.2 -2.5
v 1.7 0.1 2.5
v 1.7 0.1 1.7
v 1.7 0.1 -1.7
v 1.7 0.1 -2.5
v 1.7 0.2 2.5
v 1.7 0.2 1.7
v 1.7 0.2 -1.7
v 1.7 0.2 -2.5
v -1.7 0.1 2.5
v -1.7 0.1 1.7
v -1.7 0.1 -1.7
v -1.7 0.1 -2.5
v -1.7 0.2 2.5
v -1.7 0.2 1.7
v -1.7 0.2 -1.7
v -1.7 0.2 -2.5
v 2.5 0 2.5
v 2.5 0 1.5
v 2.5 0 1.3
v 2.5 0 1.1
v 2.5 0 0.9
v 2.5 0 0.7
v 2.5 0 0.5
v 2.5 0 0.3
v 2.5 0 0.0999999
v 2.5 0 -0.1
v 2.5 0 -0.3
v 2.5 0 -0.5
v 2.5 0 -0.7
v 2.5 0 -0.9
v 2.5 0 -1.1
v 2.5 0 -1.3
v 2.5 0 -1.5
v 2.5 0 -2.5
v 2.5 0.1 2.5
v 2.5 0.1 1.7
v 2.5 0.1 1.5
v 2.5 0.1 1.3
v 2.5 0.1 1.1
v 2.5 0.1 0.9
v 2.5 0.1 0.7
v 2.5 0.1 0.5
v 2.5 0.1 0.3
v 2.5 0.1 0.0999999
v 2.5 0.1 -0.1
v 2.5 0.1 -0.3
v 2.5 0.1 -0.5
v 2.5 0.1 -0.7
v 2.5 0.1 -0.9
v 2.5 0.1 -1.1
v 2.5 0.1 -1.3
v 2.5 0.1 -1.5
v 2.5 0.1 -1.7
v 2.5 0.1 -2.5
v 2.5 0.2 2.5
v 2.5 0.2 1.7
v 2.5 0.2 -1.7
v 2.5 0.2 -2.5
v -2.5 0 2.5
v -2.5 0.1 2.5
v -2.5 0.2 2.5
v -1.7 0.1 2.5
v -1.7 0.2 2.5
v -1.5 0 2.5
v -1.5 0.1 2.5
v -1.3 0 2.5
v -1.3 0.1 2.5
v -1.1 0 2.5
v -1.1 0.1 2.5
v -0.9 0 2.5
v -0.9 0.1 2.5
v -0.7 0 2.5
v -0.7 0.1 2.5
v -0.5 0 2.5
v -0.5 0.1 2.5
v -0.3 0 2.5
v -0.3 0.1 2.5
v -0.0999999 0 2.5
v -0.0999999 0.1 2.5
v 0.1 0 2.5
v 0.1 0.1 2.5
v 0.3 0 2.5
v 0.3 0.1 2.5
v 0.5 0 2.5
v 0.5 0.1 2.5
v 0.7 0 2.5
v 0.7 0.1 2.5
v 0.9 0 2.5
v 0.9 0.1 2.5
v 1.1 0 2.5
v 1.1 0.1 2.5
v 1.3 0 2.5
v 1.3 0.1 2.5
v 1.5 0 2.5
v 1.5 0.1 2.5
v 1.7 0.1 2.5
v 1.7 0.2 2.5
v 2.5 0 2.5
v 2.5 0.1 2.5
v 2.5 0.2 2.5
v -2.5 0.1 -1.7
v -2.5 0.2 -1.7
v -1.7 0.1 -1.7
v -1.7 0.2 -1.7
v 1.7 0.1 -1.7
v 1.7 0.2 -1.7
v 2.5 0.1 -1.7
v 2.5 0.2 -1.7
v -2.5 0.1 1.7
v -2.5 0.2 1.7
v -1.7 0.1 1.7
v -1.7 0.2 1.7
v 1.7 0.1 1.7
v 1.7 0.2 1.7
v 2.5 0.1 1.7
v 2.5 0.2 1.7
v -2.5 0 -2.5
v -2.5 0.1 -2.5
v -2.5 0.2 -2.5
v -1.7 0.1 -2.5
v -1.7 0.2 -2.5
v -1.5 0 -2.5
v -1.5 0.1 -2.5
v -1.3 0 -2.5
v -1.3 0.1 -2.5
v -1.1 0 -2.5
v -1.1 0.1 -2.5
v -0.9 0 -2.5
v -0.9 0.1 -2.5
v -0.7 0 -2.5
v -0.7 0.1 -2.5
v -0.5 0 -2.5
v -0.5 0.1 -2.5
v -0.3 0 -2.5
v -0.3 0.1 -2.5
v -0.0999999 0 -2.5
v -0.0999999 0.1 -2.5
v 0.1 0 -2.5
v 0.1 0.1 -2.5
v 0.3 0 -2.5
v 0.3 0.1 -2.5
v 0.5 0 -2.5
v 0.5 0.1 -2.5
v 0.7 0 -2.5
v 0.7 0.1 -2.5
v 0.9 0 -2.5
v 0.9 0.1 -2.5
v 1.1 0 -2.5
v 1.1 0.1 -2.5
v 1.3 0 -2.5
v 1.3 0.1 -2.5
v 1.5 0 -2.5
v 1.5 0.1 -2.5
v 1.7 0.1 -2.5
v 1.7 0.2 -2.5
v 2.5 0 -2.5
v 2.5 0.1 -2.5
v 2.5 0.2 -2.5
v -2.5 0 2.5
v -1.5 0 2.5
v -1.3 0 2.5
v -1.1 0 2.5
v -0.9 0 2.5
v -0.7 0 2.5
v -0.5 0 2.5
v -0.3 0 2.5
v -0.0999999 0 2.5
v 0.1 0 2.5
v 0.3 0 2.5
v 0.5 0 2.5
v 0.7 0 2.5
v 0.9 0 2.5
v 1.1 0 2.5
v 1.3 0 2.5
v 1.5 0 2.5
v 2.5 0 2.5
v -1.5 0 1.7
v -1.3 0 1.7
v -1.1 0 1.7
v -0.9 0 1.7
v -0.7 0 1.7
v -0.5 0 1.7
v -0.3 0 1.7
v -0.0999999 0 1.7
v 0.1 0 1.7
v 0.3 0 1.7
v 0.5 0 1.7
v 0.7 0 1.7
v 0.9 0 1.7
v 1.1 0 1.7
v 1.3 0 1.7
v 1.5 0 1.7
v -2.5 0 1.5
v -1.7 0 1.5
v 1.7 0 1.5
v 2.5 0 1.5
v -2.5 0 1.3
v -1.7 0 1.3
v 1.7 0 1.3
v 2.5 0 1.3
v -2.5 0 1.1
v -1.7 0 1.1
v 1.7 0 1.1
v 2.5 0 1.1
v -2.5 0 0.9
v -1.7 0 0.9
v 1.7 0 0.9
v 2.5 0 0.9
v -2.5 0 0.7
v -1.7 0 0.7
v 1.7 0 0.7
v 2.5 0 0.7
v -2.5 0 0.5
v -1.7 0 0.5
v 1.7 0 0.5
v 2.5 0 0.5
v -2.5 0 0.3
v -1.7 0 0.3
v 1.7 0 0.3
v 2.5 0 0.3
v -2.5 0 0.0999999
v -1.7 0 0.0999999
v 1.7 0 0.0999999
v 2.5 0 0.0999999
v -2.5 0 -0.1
v -1.7 0 -0.1
v 1.7 0 -0.1
v 2.5 0 -0.1
v -2.5 0 -0.3
v -1.7 0 -0.3
v 1.7 0 -0.3
v 2.5 0 -0.3
v -2.5 0 -0.5
v -1.7 0 -0.5
v 1.7 0 -0.5
v 2.5 0 -0.5
v -2.5 0 -0.7
v -1.7 0 -0.7
v 1.7 0 -0.7
v 2.5 0 -0.7
v -2.5 0 -0.9
v -1.7 0 -0.9
v 1.7 0 -0.9
v 2.5 0 -0.9
v -2.5 0 -1.1
v -1.7 0 -1.1
v 1.7 0 -1.1
v 2.5 0 -1.1
v -2.5 0 -1.3
v -1.7 0 -1.3
v 1.7 0 -1.3
v 2.5 0 -1.3
v -2.5 0 -1.5
v -1.7 0 -1.5
v 1.7 0 -1.5
v 2.5 0 -1.5
v -1.5 0 -1.7
v -1.3 0 -1.7
v -1.1 0 -1.7
v -0.9 0 -1.7
v -0.7 0 -1.7
v -0.5 0 -1.7
v -0.3 0 -1.7
v -0.0999999 0 -1.7
v 0.1 0 -1.7
v 0.3 0 -1.7
v 0.5 0 -1.7
v 0.7 0 -1.7
v 0.9 0 -1.7
v 1.1 0 -1.7
v 1.3 0 -1.7
v 1.5 0 -1.7
v -2.5 0 -2.5
v -1.5 0 -2.5
v -1.3 0 -2.5
v -1.1 0 -2.5
v -0.9 0 -2.5
v -0.7 0 -2.5
v -0.5 0 -2.5
v -0.3 0 -2.5
v -0.0999999 0 -2.5
v 0.1 0 -2.5
v 0.3 0 -2.5
v 0.5 0 -2.5
v 0.7 0 -2.5
v 0.9 0 -2.5
v 1.1 0 -2.5
v 1.3 0 -2.5
v 1.5 0 -2.5
v 2.5 0 -2.5
v -1.7 0.1 2.5
v -1.5 0.1 2.5
v -1.3 0.1 2.5
v -1.1 0.1 2.5
v -0.9 0.1 2.5
v -0.7 0.1 2.5
v -0.5 0.1 2.5
v -0.3 0.1 2.5
v -0.0999999 0.1 2.5
v 0.1 0.1 2.5
v 0.3 0.1 2.5
v 0.5 0.1 2.5
v 0.7 0.1 2.5
v 0.9 0.1 2.5
v 1.1 0.1 2.5
v 1.3 0.1 2.5
v 1.5 0.1 2.5
v 1.7 0.1 2.5
v -2.5 0.1 1.7
v -1.7 0.1 1.7
v -1.5 0.1 1.7
v -1.3 0.1 1.7
v -1.1 0.1 1.7
v -0.9 0.1 1.7
v -0.7 0.1 1.7
v -0.5 0.1 1.7
v -0.3 0.1 1.7
v -0.0999999 0.1 1.7
v 0.1 0.1 1.7
v 0.3 0.1 1.7
v 0.5 0.1 1.7
v 0.7 0.1 1.7
v 0.9 0.1 1.7
v 1.1 0.1 1.7
v 1.3 0.1 1.7
v 1.5 0.1 1.7
v 1.7 0.1 1.7
v 2.5 0.1 1.7
v -2.5 0.1 1.5
v -1.7 0.1 1.5
v 1.7 0.1 1.5
v 2.5 0.1 1.5
v -2.5 0.1 1.3
v -1.7 0.1 1.3
v 1.7 0.1 1.3
v 2.5 0.1 1.3
v -2.5 0.1 1.1
v -1.7 0.1 1.1
v 1.7 0.1 1.1
v 2.5 0.1 1.1
v -2.5 0.1 0.9
v -1.7 0.1 0.9
v 1.7 0.1 0.9
v 2.5 0.1 0.9
v -2.5 0.1 0.7
v -1.7 0.1 0.7
v 1.7 0.1 0.7
v 2.5 0.1 0.7
v -2.5 0.1 0.5
v -1.7 0.1 0.5
v 1.7 0.1 0.5
v 2.5 0.1 0.5
v -2.5 0.1 0.3
v -1.7 0.1 0.3
v 1.7 0.1 0.3
v 2.5 0.1 0.3
v -2.5 0.1 0.0999999
v -1.7 0.1 0.0999999
v 1.7 0.1 0.0999999
v 2.5 0.1 0.0999999
v -2.5 0.1 -0.1
v -1.7 0.1 -0.1
v 1.7 0.1 -0.1
v 2.5 0.1 -0.1
v -2.5 0.1 -0.3
v -1.7 0.1 -0.3
v 1.7 0.1 -0.3
v 2.5 0.1 -0.3
v -2.5 0.1 -0.5
v -1.7 0.1 -0.5
v 1.7 0.1 -0.5
v 2.5 0.1 -0.5
v -2.5 0.1 -0.7
v -1.7 0.1 -0.7
v 1.7 0.1 -0.7
v 2.5 0.1 -0.7
v -2.5 0.1 -0.9
v -1.7 0.1 -0.9
v 1.7 0.1 -0.9
v 2.5 0.1 -0.9
v -2.5 0.1 -1.1
v -1.7 0.1 -1.1
v 1.7 0.1 -1.1
v 2.5 0.1 -1.1
v -2.5 0.1 -1.3
v -1.7 0.1 -1.3
v 1.7 0.1 -1.3
v 2.5 0.1 -1.3
v -2.5 0.1 -1.5
v -1.7 0.1 -1.5
v 1.7 0.1 -1.5
v 2.5 0.1 -1.5
v -2.5 0.1 -1.7
v -1.7 0.1 -1.7
v -1.5 0.1 -1.7
v -1.3 0.1 -1.7
v -1.1 0.1 -1.7
v -0.9 0.1 -1.7
v -0.7 0.1 -1.7
v -0.5 0.1 -1.7
v -0.3 0.1 -1.7
v -0.0999999 0.1 -1.7
v 0.1 0.1 -1.7
v 0.3 0.1 -1.7
v 0.5 0.1 -1.7
v 0.7 0.1 -1.7
v 0.9 0.1 -1.7
v 1.1 0.1 -1.7
v 1.3 0.1 -1.7
v 1.5 0.1 -1.7
v 1.7 0.1 -1.7
v 2.5 0.1 -1.7
v -1.7 0.1 -2.5
v -1.5 0.1 -2.5
v -1.3 0.1 -2.5
v -1.1 0.1 -2.5
v -0.9 0.1 -2.5
v -0.7 0.1 -2.5
v -0.5 0.1 -2.5
v -0.3 0.1 -2.5
v -0.0999999 0.1 -2.5
v 0.1 0.1 -2.5
v 0.3 0.1 -2.5
v 0.5 0.1 -2.5
v 0.7 0.1 -2.5
v 0.9 0.1 -2.5
v 1.1 0.1 -2.5
v 1.3 0.1 -2.5
v 1.5 0.1 -2.5
v 1.7 0.1 -2.5
v -2.5 0.2 2.5
v -1.7 0.2 2.5
v 1.7 0.2 2.5
v 2.5 0.2 2.5
v -2.5 0.2 1.7
v -1.7 0.2 1.7
v 1.7 0.2 1.7
v 2.5 0.2 1.7
v -2.5 0.2 -1.7
v -1.7 0.2 -1.7
v 1.7 0.2 -1.7
v 2.5 0.2 -1.7
v -2.5 0.2 -2.5
v -1.7 0.2 -2.5
v 1.7 0.2 -2.5
v 2.5 0.2 -2.5

# faces
f 19/1/1 2/1/1 1/1/1
f 20/1/1 2/1/1 19/1/1
f 21/3/1 3/3/1 2/3/1
f 21/1/1 2/1/1 20/1/1
f 22/1/1 4/1/1 3/1/1
f 22/3/1 3/3/1 21/3/1
f 23/3/1 5/3/1 4/3/1
f 23/1/1 4/1/1 22/1/1
f 24/1/1 6/1/1 5/1/1
f 24/3/1 5/3/1 23/3/1
f 25/3/1 7/3/1 6/3/1
f 25/1/1 6/1/1 24/1/1
f 26/1/1 8/1/1 7/1/1
f 26/3/1 7/3/1 25/3/1
f 27/3/1 9/3/1 8/3/1
f 27/1/1 8/1/1 26/1/1
f 28/1/1 10/1/1 9/1/1
f 28/3/1 9/3/1 27/3/1
f 29/3/1 11/3/1 10/3/1
f 29/1/1 10/1/1 28/1/1
f 30/1/1 12/1/1 11/1/1
f 30/3/1 11/3/1 29/3/1
f 31/3/1 13/3/1 12/3/1
f 31/1/1 12/1/1 30/1/1
f 32/1/1 14/1/1 13/1/1
f 32/3/1 13/3/1 31/3/1
f 33/3/1 15/3/1 14/3/1
f 33/1/1 14/1/1 32/1/1
f 34/1/1 16/1/1 15/1/1
f 34/3/1 15/3/1 33/3/1
f 35/3/1 17/3/1 16/3/1
f 35/1/1 16/1/1 34/1/1
f 36/1/1 18/1/1 17/1/1
f 36/3/1 17/3/1 35/3/1
f 37/1/1 18/1/1 36/1/1
f 38/1/1 18/1/1 37/1/1
f 39/2/1 20/2/1 19/2/1
f 40/2/1 20/2/1 39/2/1
f 41/2/1 38/2/1 37/2/1
f 42/2/1 38/2/1 41/2/1
f 47/2/1 44/2/1 43/2/1
f 48/2/1 44/2/1 47/2/1
f 49/2/1 46/2/1 45/2/1
f 50/2/1 46/2/1 49/2/1
f 51/2/2 52/2/2 55/2/2
f 55/2/2 52/2/2 56/2/2
f 53/2/2 54/2/2 57/2/2
f 57/2/2 54/2/2 58/2/2
f 59/1/2 60/1/2 77/1/2
f 77/1/2 60/1/2 78/1/2
f 60/3/2 61/3/2 79/3/2
f 78/1/2 60/1/2 79/1/2
f 61/1/2 62/1/2 80/1/2
f 79/3/2 61/3/2 80/3/2
f 62/3/2 63/3/2 81/3/2
f 80/1/2 62/1/2 81/1/2
f 63/1/2 64/1/2 82/1/2
f 81/3/2 63/3/2 82/3/2
f 64/3/2 65/3/2 83/3/2
f 82/1/2 64/1/2 83/1/2
f 65/1/2 66/1/2 84/1/2
f 83/3/2 65/3/2 84/3/2
f 66/3/2 67/3/2 85/3/2
f 84/1/2 66/1/2 85/1/2
f 67/1/2 68/1/2 86/1/2
f 85/3/2 67/3/2 86/3/2
f 68/3/2 69/3/2 87/3/2
f 86/1/2 68/1/2 87/1/2
f 69/1/2 70/1/2 88/1/2
f 87/3/2 69/3/2 88/3/2
f 70/3/2 71/3/2 89/3/2
f 88/1/2 70/1/2 89/1/2
f 71/1/2 72/1/2 90/1/2
f 89/3/2 71/3/2 90/3/2
f 72/3/2 73/3/2 91/3/2
f 90/1/2 72/1/2 91/1/2
f 73/1/2 74/1/2 92/1/2
f 91/3/2 73/3/2 92/3/2
f 74/3/2 75/3/2 93/3/2
f 92/1/2 74/1/2 93/1/2
f 75/1/2 76/1/2 94/1/2
f 93/3/2 75/3/2 94/3/2
f 94/1/2 76/1/2 95/1/2
f 95/1/2 76/1/2 96/1/2
f 77/2/2 78/2/2 97/2/2
f 97/2/2 78/2/2 98/2/2
f 95/2/2 96/2/2 99/2/2
f 99/2/2 96/2/2 100/2/2
f 104/1/3 102/1/3 101/1/3
f 104/2/3 103/2/3 102/2/3
f 105/2/3 103/2/3 104/2/3
f 106/1/3 104/1/3 101/1/3
f 107/1/3 104/1/3 106/1/3
f 108/3/3 107/3/3 106/3/3
f 109/3/3 107/3/3 108/3/3
f 110/1/3 109/1/3 108/1/3
f 111/1/3 109/1/3 110/1/3
f 112/3/3 111/3/3 110/3/3
f 113/3/3 111/3/3 112/3/3
f 114/1/3 113/1/3 112/1/3
f 115/1/3 113/1/3 114/1/3
f 116/3/3 115/3/3 114/3/3
f 117/3/3 115/3/3 116/3/3
f 118/1/3 117/1/3 116/1/3
f 119/1/3 117/1/3 118/1/3
f 120/3/3 119/3/3 118/3/3
f 121/3/3 119/3/3 120/3/3
f 122/1/3 121/1/3 120/1/3
f 123/1/3 121/1/3 122/1/3
f 124/3/3 123/3/3 122/3/3
f 125/3/3 123/3/3 124/3/3
f 126/1/3 125/1/3 124/1/3
f 127/1/3 125/1/3 126/1/3
f 128/3/3 127/3/3 126/3/3
f 129/3/3 127/3/3 128/3/3
f 130/1/3 129/1/3 128/1/3
f 131/1/3 129/1/3 130/1/3
f 132/3/3 131/3/3 130/3/3
f 133/3/3 131/3/3 132/3/3
f 134/1/3 133/1/3 132/1/3
f 135/1/3 133/1/3 134/1/3
f 136/3/3 135/3/3 134/3/3
f 137/3/3 135/3/3 136/3/3
f 138/1/3 137/1/3 136/1/3
f 140/1/3 138/1/3 136/1/3
f 141/2/3 139/2/3 138/2/3
f 141/1/3 138/1/3 140/1/3
f 142/2/3 139/2/3 141/2/3
f 145/2/3 144/2/3 143/2/3
f 146/2/3 144/2/3 145/2/3
f 149/2/3 148/2/3 147/2/3
f 150/2/3 148/2/3 149/2/3
f 151/2/4 152/2/4 153/2/4
f 153/2/4 152/2/4 154/2/4
f 155/2/4 156/2/4 157/2/4
f 157/2/4 156/2/4 158/2/4
f 159/1/4 160/1/4 162/1/4
f 160/2/4 161/2/4 162/2/4
f 162/2/4 161/2/4 163/2/4
f 159/1/4 162/1/4 164/1/4
f 164/1/4 162/1/4 165/1/4
f 164/3/4 165/3/4 166/3/4
f 166/3/4 165/3/4 167/3/4
f 166/1/4 167/1/4 168/1/4
f 168/1/4 167/1/4 169/1/4
f 168/3/4 169/3/4 170/3/4
f 170/3/4 169/3/4 171/3/4
f 170/1/4 171/1/4 172/1/4
f 172/1/4 171/1/4 173/1/4
f 172/3/4 173/3/4 174/3/4
f 174/3/4 173/3/4 175/3/4
f 174/1/4 175/1/4 176/1/4
f 176/1/4 175/1/4 177/1/4
f 176/3/4 177/3/4 178/3/4
f 178/3/4 177/3/4 179/3/4
f 178/1/4 179/1/4 180/1/4
f 180/1/4 179/1/4 181/1/4
f 180/3/4 181/3/4 182/3/4
f 182/3/4 181/3/4 183/3/4
f 182/1/4 183/1/4 184/1/4
f 184/1/4 183/1/4 185/1/4
f 184/3/4 185/3/4 186/3/4
f 186/3/4 185/3/4 187/3/4
f 186/1/4 187/1/4 188/1/4
f 188/1/4 187/1/4 189/1/4
f 188/3/4 189/3/4 190/3/4
f 190/3/4 189/3/4 191/3/4
f 190/1/4 191/1/4 192/1/4
f 192/1/4 191/1/4 193/1/4
f 192/3/4 193/3/4 194/3/4
f 194/3/4 193/3/4 195/3/4
f 194/1/4 195/1/4 196/1/4
f 194/1/4 196/1/4 198/1/4
f 196/2/4 197/2/4 199/2/4
f 198/1/4 196/1/4 199/1/4
f 199/2/4 197/2/4 200/2/4
f 219/1/5 202/1/5 201/1/5
f 219/3/5 203/3/5 202/3/5
f 220/1/5 204/1/5 203/1/5
f 220/3/5 203/3/5 219/3/5
f 221/3/5 205/3/5 204/3/5
f 221/1/5 204/1/5 220/1/5
f 222/1/5 206/1/5 205/1/5
f 222/3/5 205/3/5 221/3/5
f 223/3/5 207/3/5 206/3/5
f 223/1/5 206/1/5 222/1/5
f 224/1/5 208/1/5 207/1/5
f 224/3/5 207/3/5 223/3/5
f 225/3/5 209/3/5 208/3/5
f 225/1/5 208/1/5 224/1/5
f 226/1/5 210/1/5 209/1/5
f 226/3/5 209/3/5 225/3/5
f 227/3/5 211/3/5 210/3/5
f 227/1/5 210/1/5 226/1/5
f 228/1/5 212/1/5 211/1/5
f 228/3/5 211/3/5 227/3/5
f 229/3/5 213/3/5 212/3/5
f 229/1/5 212/1/5 228/1/5
f 230/1/5 214/1/5 213/1/5
f 230/3/5 213/3/5 229/3/5
f 231/3/5 215/3/5 214/3/5
f 231/1/5 214/1/5 230/1/5
f 232/1/5 216/1/5 215/1/5
f 232/3/5 215/3/5 231/3/5
f 233/3/5 217/3/5 216/3/5
f 233/1/5 216/1/5 232/1/5
f 234/1/5 218/1/5 217/1/5
f 234/3/5 217/3/5 233/3/5
f 235/1/5 233/1/5 232/1/5
f 235/1/5 232/1/5 231/1/5
f 235/1/5 234/1/5 233/1/5
f 235/1/5 231/1/5 230/1/5
f 235/1/5 230/1/5 229/1/5
f 235/1/5 229/1/5 228/1/5
f 235/1/5 228/1/5 227/1/5
f 235/1/5 227/1/5 226/1/5
f 235/1/5 226/1/5 225/1/5
f 235/1/5 225/1/5 224/1/5
f 235/1/5 224/1/5 223/1/5
f 235/1/5 223/1/5 222/1/5
f 235/1/5 222/1/5 221/1/5
f 235/1/5 221/1/5 220/1/5
f 235/1/5 220/1/5 219/1/5
f 235/1/5 219/1/5 201/1/5
f 236/1/5 234/1/5 235/1/5
f 237/1/5 218/1/5 234/1/5
f 237/1/5 234/1/5 236/1/5
f 238/1/5 218/1/5 237/1/5
f 239/3/5 236/3/5 235/3/5
f 240/1/5 237/1/5 236/1/5
f 240/3/5 236/3/5 239/3/5
f 241/3/5 238/3/5 237/3/5
f 241/1/5 237/1/5 240/1/5
f 242/3/5 238/3/5 241/3/5
f 243/1/5 240/1/5 239/1/5
f 243/1/5 241/1/5 240/1/5
f 243/1/5 242/1/5 241/1/5
f 244/1/5 242/1/5 243/1/5
f 245/1/5 242/1/5 244/1/5
f 246/1/5 242/1/5 245/1/5
f 247/3/5 244/3/5 243/3/5
f 248/1/5 245/1/5 244/1/5
f 248/3/5 244/3/5 247/3/5
f 249/3/5 246/3/5 245/3/5
f 249/1/5 245/1/5 248/1/5
f 250/3/5 246/3/5 249/3/5
f 251/1/5 248/1/5 247/1/5
f 251/1/5 249/1/5 248/1/5
f 251/1/5 250/1/5 249/1/5
f 252/1/5 250/1/5 251/1/5
f 253/1/5 250/1/5 252/1/5
f 254/1/5 250/1/5 253/1/5
f 255/3/5 252/3/5 251/3/5
f 256/1/5 253/1/5 252/1/5
f 256/3/5 252/3/5 255/3/5
f 257/3/5 254/3/5 253/3/5
f 257/1/5 253/1/5 256/1/5
f 258/3/5 254/3/5 257/3/5
f 259/1/5 256/1/5 255/1/5
f 259/1/5 257/1/5 256/1/5
f 259/1/5 258/1/5 257/1/5
f 260/1/5 258/1/5 259/1/5
f 261/1/5 258/1/5 260/1/5
f 262/1/5 258/1/5 261/1/5
f 263/3/5 260/3/5 259/3/5
f 264/1/5 261/1/5 260/1/5
f 264/3/5 260/3/5 263/3/5
f 265/3/5 262/3/5 261/3/5
f 265/1/5 261/1/5 264/1/5
f 266/3/5 262/3/5 265/3/5
f 267/1/5 264/1/5 263/1/5
f 267/1/5 265/1/5 264/1/5
f 267/1/5 266/1/5 265/1/5
f 268/1/5 266/1/5 267/1/5
f 269/1/5 266/1/5 268/1/5
f 270/1/5 266/1/5 269/1/5
f 271/3/5 268/3/5 267/3/5
f 272/1/5 269/1/5 268/1/5
f 272/3/5 268/3/5 271/3/5
f 273/3/5 270/3/5 269/3/5
f 273/1/5 269/1/5 272/1/5
f 274/3/5 270/3/5 273/3/5
f 275/1/5 272/1/5 271/1/5
f 275/1/5 273/1/5 272/1/5
f 275/1/5 274/1/5 273/1/5
f 276/1/5 274/1/5 275/1/5
f 277/1/5 274/1/5 276/1/5
f 278/1/5 274/1/5 277/1/5
f 279/3/5 276/3/5 275/3/5
f 280/1/5 277/1/5 276/1/5
f 280/3/5 276/3/5 279/3/5
f 281/3/5 278/3/5 277/3/5
f 281/1/5 277/1/5 280/1/5
f 282/3/5 278/3/5 281/3/5
f 283/1/5 280/1/5 279/1/5
f 283/1/5 281/1/5 280/1/5
f 283/1/5 282/1/5 281/1/5
f 284/1/5 282/1/5 283/1/5
f 285/1/5 282/1/5 284/1/5
f 286/1/5 282/1/5 285/1/5
f 287/3/5 284/3/5 283/3/5
f 288/1/5 285/1/5 284/1/5
f 288/3/5 284/3/5 287/3/5
f 289/3/5 286/3/5 285/3/5
f 289/1/5 285/1/5 288/1/5
f 290/3/5 286/3/5 289/3/5
f 291/1/5 288/1/5 287/1/5
f 291/1/5 289/1/5 288/1/5
f 291/1/5 290/1/5 289/1/5
f 292/1/5 290/1/5 291/1/5
f 293/1/5 290/1/5 292/1/5
f 294/1/5 290/1/5 293/1/5
f 295/3/5 292/3/5 291/3/5
f 296/1/5 293/1/5 292/1/5
f 296/3/5 292/3/5 295/3/5
f 297/3/5 294/3/5 293/3/5
f 297/1/5 293/1/5 296/1/5
f 298/3/5 294/3/5 297/3/5
f 299/1/5 296/1/5 295/1/5
f 299/1/5 297/1/5 296/1/5
f 299/1/5 298/1/5 297/1/5
f 300/1/5 298/1/5 299/1/5
f 301/1/5 298/1/5 300/1/5
f 302/1/5 298/1/5 301/1/5
f 303/1/5 298/1/5 302/1/5
f 304/1/5 298/1/5 303/1/5
f 305/1/5 298/1/5 304/1/5
f 306/1/5 298/1/5 305/1/5
f 307/1/5 298/1/5 306/1/5
f 308/1/5 298/1/5 307/1/5
f 309/1/5 298/1/5 308/1/5
f 310/1/5 298/1/5 309/1/5
f 311/1/5 298/1/5 310/1/5
f 312/1/5 298/1/5 311/1/5
f 313/1/5 298/1/5 312/1/5
f 314/1/5 298/1/5 313/1/5
f 315/1/5 299/1/5 295/1/5
f 316/3/5 300/3/5 299/3/5
f 316/1/5 299/1/5 315/1/5
f 317/1/5 301/1/5 300/1/5
f 317/3/5 300/3/5 316/3/5
f 318/3/5 302/3/5 301/3/5
f 318/1/5 301/1/5 317/1/5
f 319/1/5 303/1/5 302/1/5
f 319/3/5 302/3/5 318/3/5
f 320/3/5 304/3/5 303/3/5
f 320/1/5 303/1/5 319/1/5
f 321/1/5 305/1/5 304/1/5
f 321/3/5 304/3/5 320/3/5
f 322/3/5 306/3/5 305/3/5
f 322/1/5 305/1/5 321/1/5
f 323/1/5 307/1/5 306/1/5
f 323/3/5 306/3/5 322/3/5
f 324/3/5 308/3/5 307/3/5
f 324/1/5 307/1/5 323/1/5
f 325/1/5 309/1/5 308/1/5
f 325/3/5 308/3/5 324/3/5
f 326/3/5 310/3/5 309/3/5
f 326/1/5 309/1/5 325/1/5
f 327/1/5 311/1/5 310/1/5
f 327/3/5 310/3/5 326/3/5
f 328/3/5 312/3/5 311/3/5
f 328/1/5 311/1/5 327/1/5
f 329/1/5 313/1/5 312/1/5
f 329/3/5 312/3/5 328/3/5
f 330/3/5 314/3/5 313/3/5
f 330/1/5 313/1/5 329/1/5
f 331/1/5 298/1/5 314/1/5
f 331/3/5 314/3/5 330/3/5
f 332/1/5 298/1/5 331/1/5
f 333/1/6 334/1/6 352/1/6
f 334/3/6 335/3/6 353/3/6
f 352/1/6 334/1/6 353/1/6
f 335/1/6 336/1/6 354/1/6
f 353/3/6 335/3/6 354/3/6
f 336/3/6 337/3/6 355/3/6
f 354/1/6 336/1/6 355/1/6
f 337/1/6 338/1/6 356/1/6
f 355/3/6 337/3/6 356/3/6
f 338/3/6 339/3/6 357/3/6
f 356/1/6 338/1/6 357/1/6
f 339/1/6 340/1/6 358/1/6
f 357/3/6 339/3/6 358/3/6
f 340/3/6 341/3/6 359/3/6
f 358/1/6 340/1/6 359/1/6
f 341/1/6 342/1/6 360/1/6
f 359/3/6 341/3/6 360/3/6
f 342/3/6 343/3/6 361/3/6
f 360/1/6 342/1/6 361/1/6
f 343/1/6 344/1/6 362/1/6
f 361/3/6 343/3/6 362/3/6
f 344/3/6 345/3/6 363/3/6
f 362/1/6 344/1/6 363/1/6
f 345/1/6 346/1/6 364/1/6
f 363/3/6 345/3/6 364/3/6
f 346/3/6 347/3/6 365/3/6
f 364/1/6 346/1/6 365/1/6
f 347/1/6 348/1/6 366/1/6
f 365/3/6 347/3/6 366/3/6
f 348/3/6 349/3/6 367/3/6
f 366/1/6 348/1/6 367/1/6
f 349/1/6 350/1/6 368/1/6
f 367/3/6 349/3/6 368/3/6
f 368/1/6 350/1/6 369/1/6
f 366/1/6 367/1/6 371/1/6
f 369/1/6 370/1/6 371/1/6
f 368/1/6 369/1/6 371/1/6
f 367/1/6 368/1/6 371/1/6
f 351/1/6 352/1/6 371/1/6
f 365/1/6 366/1/6 371/1/6
f 364/1/6 365/1/6 371/1/6
f 363/1/6 364/1/6 371/1/6
f 362/1/6 363/1/6 371/1/6
f 361/1/6 362/1/6 371/1/6
f 360/1/6 361/1/6 371/1/6
f 359/1/6 360/1/6 371/1/6
f 358/1/6 359/1/6 371/1/6
f 357/1/6 358/1/6 371/1/6
f 356/1/6 357/1/6 371/1/6
f 355/1/6 356/1/6 371/1/6
f 354/1/6 355/1/6 371/1/6
f 353/1/6 354/1/6 371/1/6
f 352/1/6 353/1/6 371/1/6
f 371/1/6 370/1/6 372/1/6
f 372/1/6 370/1/6 373/1/6
f 373/1/6 370/1/6 374/1/6
f 371/3/6 372/3/6 375/3/6
f 372/1/6 373/1/6 376/1/6
f 375/3/6 372/3/6 376/3/6
f 373/3/6 374/3/6 377/3/6
f 376/1/6 373/1/6 377/1/6
f 377/3/6 374/3/6 378/3/6
f 375/1/6 376/1/6 379/1/6
f 376/1/6 377/1/6 379/1/6
f 377/1/6 378/1/6 379/1/6
f 379/1/6 378/1/6 380/1/6
f 380/1/6 378/1/6 381/1/6
f 381/1/6 378/1/6 382/1/6
f 379/3/6 380/3/6 383/3/6
f 380/1/6 381/1/6 384/1/6
f 383/3/6 380/3/6 384/3/6
f 381/3/6 382/3/6 385/3/6
f 384/1/6 381/1/6 385/1/6
f 385/3/6 382/3/6 386/3/6
f 383/1/6 384/1/6 387/1/6
f 384/1/6 385/1/6 387/1/6
f 385/1/6 386/1/6 387/1/6
f 387/1/6 386/1/6 388/1/6
f 388/1/6 386/1/6 389/1/6
f 389/1/6 386/1/6 390/1/6
f 387/3/6 388/3/6 391/3/6
f 388/1/6 389/1/6 392/1/6
f 391/3/6 388/3/6 392/3/6
f 389/3/6 390/3/6 393/3/6
f 392/1/6 389/1/6 393/1/6
f 393/3/6 390/3/6 394/3/6
f 391/1/6 392/1/6 395/1/6
f 392/1/6 393/1/6 395/1/6
f 393/1/6 394/1/6 395/1/6
f 395/1/6 394/1/6 396/1/6
f 396/1/6 394/1/6 397/1/6
f 397/1/6 394/1/6 398/1/6
f 395/3/6 396/3/6 399/3/6
f 396/1/6 397/1/6 400/1/6
f 399/3/6 396/3/6 400/3/6
f 397/3/6 398/3/6 401/3/6
f 400/1/6 397/1/6 401/1/6
f 401/3/6 398/3/6 402/3/6
f 399/1/6 400/1/6 403/1/6
f 400/1/6 401/1/6 403/1/6
f 401/1/6 402/1/6 403/1/6
f 403/1/6 402/1/6 404/1/6
f 404/1/6 402/1/6 405/1/6
f 405/1/6 402/1/6 406/1/6
f 403/3/6 404/3/6 407/3/6
f 404/1/6 405/1/6 408/1/6
f 407/3/6 404/3/6 408/3/6
f 405/3/6 406/3/6 409/3/6
f 408/1/6 405/1/6 409/1/6
f 409/3/6 406/3/6 410/3/6
f 407/1/6 408/1/6 411/1/6
f 408/1/6 409/1/6 411/1/6
f 409/1/6 410/1/6 411/1/6
f 411/1/6 410/1/6 412/1/6
f 412/1/6 410/1/6 413/1/6
f 413/1/6 410/1/6 414/1/6
f 411/3/6 412/3/6 415/3/6
f 412/1/6 413/1/6 416/1/6
f 415/3/6 412/3/6 416/3/6
f 413/3/6 414/3/6 417/3/6
f 416/1/6 413/1/6 417/1/6
f 417/3/6 414/3/6 418/3/6
f 415/1/6 416/1/6 419/1/6
f 416/1/6 417/1/6 419/1/6
f 417/1/6 418/1/6 419/1/6
f 419/1/6 418/1/6 420/1/6
f 420/1/6 418/1/6 421/1/6
f 421/1/6 418/1/6 422/1/6
f 419/3/6 420/3/6 423/3/6
f 420/1/6 421/1/6 424/1/6
f 423/3/6 420/3/6 424/3/6
f 421/3/6 422/3/6 425/3/6
f 424/1/6 421/1/6 425/1/6
f 425/3/6 422/3/6 426/3/6
f 423/1/6 424/1/6 427/1/6
f 424/1/6 425/1/6 427/1/6
f 425/1/6 426/1/6 427/1/6
f 427/1/6 426/1/6 428/1/6
f 428/1/6 426/1/6 429/1/6
f 429/1/6 426/1/6 430/1/6
f 427/3/6 428/3/6 431/3/6
f 428/1/6 429/1/6 432/1/6
f 431/3/6 428/3/6 432/3/6
f 429/3/6 430/3/6 433/3/6
f 432/1/6 429/1/6 433/1/6
f 433/3/6 430/3/6 434/3/6
f 431/1/6 432/1/6 435/1/6
f 432/1/6 433/1/6 435/1/6
f 433/1/6 434/1/6 435/1/6
f 435/1/6 434/1/6 436/1/6
f 436/1/6 434/1/6 437/1/6
f 437/1/6 434/1/6 438/1/6
f 438/1/6 434/1/6 439/1/6
f 439/1/6 434/1/6 440/1/6
f 440/1/6 434/1/6 441/1/6
f 441/1/6 434/1/6 442/1/6
f 442/1/6 434/1/6 443/1/6
f 443/1/6 434/1/6 444/1/6
f 444/1/6 434/1/6 445/1/6
f 445/1/6 434/1/6 446/1/6
f 446/1/6 434/1/6 447/1/6
f 447/1/6 434/1/6 448/1/6
f 448/1/6 434/1/6 449/1/6
f 449/1/6 434/1/6 450/1/6
f 450/1/6 434/1/6 451/1/6
f 451/1/6 434/1/6 452/1/6
f 452/1/6 434/1/6 453/1/6
f 453/1/6 434/1/6 454/1/6
f 436/1/6 437/1/6 455/1/6
f 437/3/6 438/3/6 456/3/6
f 455/1/6 437/1/6 456/1/6
f 438/1/6 439/1/6 457/1/6
f 456/3/6 438/3/6 457/3/6
f 439/3/6 440/3/6 458/3/6
f 457/1/6 439/1/6 458/1/6
f 440/1/6 441/1/6 459/1/6
f 458/3/6 440/3/6 459/3/6
f 441/3/6 442/3/6 460/3/6
f 459/1/6 441/1/6 460/1/6
f 442/1/6 443/1/6 461/1/6
f 460/3/6 442/3/6 461/3/6
f 443/3/6 444/3/6 462/3/6
f 461/1/6 443/1/6 462/1/6
f 444/1/6 445/1/6 463/1/6
f 462/3/6 444/3/6 463/3/6
f 445/3/6 446/3/6 464/3/6
f 463/1/6 445/1/6 464/1/6
f 446/1/6 447/1/6 465/1/6
f 464/3/6 446/3/6 465/3/6
f 447/3/6 448/3/6 466/3/6
f 465/1/6 447/1/6 466/1/6
f 448/1/6 449/1/6 467/1/6
f 466/3/6 448/3/6 467/3/6
f 449/3/6 450/3/6 468/3/6
f 467/1/6 449/1/6 468/1/6
f 450/1/6 451/1/6 469/1/6
f 468/3/6 450/3/6 469/3/6
f 451/3/6 452/3/6 470/3/6
f 469/1/6 451/1/6 470/1/6
f 452/1/6 453/1/6 471/1/6
f 470/3/6 452/3/6 471/3/6
f 471/1/6 453/1/6 472/1/6
f 473/2/6 474/2/6 477/2/6
f 477/2/6 474/2/6 478/2/6
f 475/2/6 476/2/6 479/2/6
f 479/2/6 476/2/6 480/2/6
f 481/2/6 482/2/6 485/2/6
f 485/2/6 482/2/6 486/2/6
f 483/2/6 484/2/6 487/2/6
f 487/2/6 484/2/6 488/2/6
