# MagicaVoxel @ Ephtracy

# group
o 

# material
mtllib road3.mtl
usemtl palette

# normals
vn -1 0 0
vn 1 0 0
vn 0 0 1
vn 0 0 -1
vn 0 -1 0
vn 0 1 0

# texcoords
vt 0.970703 0.5
vt 0.974609 0.5
vt 0.978516 0.5

# verts
v -2.5 0 2.5
v -2.5 0 1.5
v -2.5 0 1.3
v -2.5 0 1.1
v -2.5 0 0.9
v -2.5 0 0.7
v -2.5 0 0.5
v -2.5 0 0.3
v -2.5 0 0.0999999
v -2.5 0 -0.1
v -2.5 0 -0.3
v -2.5 0 -0.5
v -2.5 0 -0.7
v -2.5 0 -0.9
v -2.5 0 -1.1
v -2.5 0 -1.3
v -2.5 0 -1.5
v -2.5 0 -2.5
v -2.5 0.1 2.5
v -2.5 0.1 1.7
v -2.5 0.1 1.5
v -2.5 0.1 1.3
v -2.5 0.1 1.1
v -2.5 0.1 0.9
v -2.5 0.1 0.7
v -2.5 0.1 0.5
v -2.5 0.1 0.3
v -2.5 0.1 0.0999999
v -2.5 0.1 -0.1
v -2.5 0.1 -0.3
v -2.5 0.1 -0.5
v -2.5 0.1 -0.7
v -2.5 0.1 -0.9
v -2.5 0.1 -1.1
v -2.5 0.1 -1.3
v -2.5 0.1 -1.5
v -2.5 0.1 -1.7
v -2.5 0.1 -2.5
v -2.5 0.2 2.5
v -2.5 0.2 1.7
v -2.5 0.2 -1.7
v -2.5 0.2 -2.5
v 1.7 0.1 2.5
v 1.7 0.1 1.7
v 1.7 0.1 -1.7
v 1.7 0.1 -2.5
v 1.7 0.2 2.5
v 1.7 0.2 1.7
v 1.7 0.2 -1.7
v 1.7 0.2 -2.5
v -1.7 0.1 2.5
v -1.7 0.1 1.7
v -1.7 0.1 -1.7
v -1.7 0.1 -2.5
v -1.7 0.2 2.5
v -1.7 0.2 1.7
v -1.7 0.2 -1.7
v -1.7 0.2 -2.5
v 2.5 0 2.5
v 2.5 0 1.5
v 2.5 0 1.3
v 2.5 0 1.1
v 2.5 0 0.9
v 2.5 0 0.7
v 2.5 0 0.5
v 2.5 0 0.3
v 2.5 0 0.0999999
v 2.5 0 -0.1
v 2.5 0 -0.3
v 2.5 0 -0.5
v 2.5 0 -0.7
v 2.5 0 -0.9
v 2.5 0 -1.1
v 2.5 0 -1.3
v 2.5 0 -1.5
v 2.5 0 -2.5
v 2.5 0.1 2.5
v 2.5 0.1 1.7
v 2.5 0.1 1.5
v 2.5 0.1 1.3
v 2.5 0.1 1.1
v 2.5 0.1 0.9
v 2.5 0.1 0.7
v 2.5 0.1 0.5
v 2.5 0.1 0.3
v 2.5 0.1 0.0999999
v 2.5 0.1 -0.1
v 2.5 0.1 -0.3
v 2.5 0.1 -0.5
v 2.5 0.1 -0.7
v 2.5 0.1 -0.9
v 2.5 0.1 -1.1
v 2.5 0.1 -1.3
v 2.5 0.1 -1.5
v 2.5 0.1 -1.7
v 2.5 0.1 -2.5
v 2.5 0.2 2.5
v 2.5 0.2 1.7
v 2.5 0.2 -1.7
v 2.5 0.2 -2.5
v -2.5 0 2.5
v -2.5 0.1 2.5
v -2.5 0.2 2.5
v -1.7 0.1 2.5
v -1.7 0.2 2.5
v 1.7 0.1 2.5
v 1.7 0.2 2.5
v 2.5 0 2.5
v 2.5 0.1 2.5
v 2.5 0.2 2.5
v -2.5 0.1 -1.7
v -2.5 0.2 -1.7
v -1.7 0.1 -1.7
v -1.7 0.2 -1.7
v 1.7 0.1 -1.7
v 1.7 0.2 -1.7
v 2.5 0.1 -1.7
v 2.5 0.2 -1.7
v -2.5 0.1 1.7
v -2.5 0.2 1.7
v -1.7 0.1 1.7
v -1.7 0.2 1.7
v 1.7 0.1 1.7
v 1.7 0.2 1.7
v 2.5 0.1 1.7
v 2.5 0.2 1.7
v -2.5 0 -2.5
v -2.5 0.1 -2.5
v -2.5 0.2 -2.5
v -1.7 0.1 -2.5
v -1.7 0.2 -2.5
v 1.7 0.1 -2.5
v 1.7 0.2 -2.5
v 2.5 0 -2.5
v 2.5 0.1 -2.5
v 2.5 0.2 -2.5
v -2.5 0 2.5
v 2.5 0 2.5
v -0.0999999 0 2.3
v 0.1 0 2.3
v -0.0999999 0 1.8
v 0.1 0 1.8
v -2.5 0 1.5
v -1.7 0 1.5
v 1.7 0 1.5
v 2.5 0 1.5
v -0.0999999 0 1.4
v 0.1 0 1.4
v -2.5 0 1.3
v -1.7 0 1.3
v 1.7 0 1.3
v 2.5 0 1.3
v -2.5 0 1.1
v -1.7 0 1.1
v 1.7 0 1.1
v 2.5 0 1.1
v -2.5 0 0.9
v -1.7 0 0.9
v 1.7 0 0.9
v 2.5 0 0.9
v -0.0999999 0 0.8
v 0.1 0 0.8
v -2.5 0 0.7
v -1.7 0 0.7
v 1.7 0 0.7
v 2.5 0 0.7
v -2.5 0 0.5
v -1.7 0 0.5
v 1.7 0 0.5
v 2.5 0 0.5
v -0.0999999 0 0.4
v 0.1 0 0.4
v -2.5 0 0.3
v -1.7 0 0.3
v 1.7 0 0.3
v 2.5 0 0.3
v -2.5 0 0.0999999
v -1.7 0 0.0999999
v 1.7 0 0.0999999
v 2.5 0 0.0999999
v -2.5 0 -0.1
v -1.7 0 -0.1
v 1.7 0 -0.1
v 2.5 0 -0.1
v -0.0999999 0 -0.2
v 0.1 0 -0.2
v -2.5 0 -0.3
v -1.7 0 -0.3
v 1.7 0 -0.3
v 2.5 0 -0.3
v -2.5 0 -0.5
v -1.7 0 -0.5
v 1.7 0 -0.5
v 2.5 0 -0.5
v -0.0999999 0 -0.6
v 0.1 0 -0.6
v -2.5 0 -0.7
v -1.7 0 -0.7
v 1.7 0 -0.7
v 2.5 0 -0.7
v -2.5 0 -0.9
v -1.7 0 -0.9
v 1.7 0 -0.9
v 2.5 0 -0.9
v -2.5 0 -1.1
v -1.7 0 -1.1
v 1.7 0 -1.1
v 2.5 0 -1.1
v -0.0999999 0 -1.2
v 0.1 0 -1.2
v -2.5 0 -1.3
v -1.7 0 -1.3
v 1.7 0 -1.3
v 2.5 0 -1.3
v -2.5 0 -1.5
v -1.7 0 -1.5
v 1.7 0 -1.5
v 2.5 0 -1.5
v -0.0999999 0 -1.6
v 0.1 0 -1.6
v -0.0999999 0 -2.2
v 0.1 0 -2.2
v -2.5 0 -2.5
v 2.5 0 -2.5
v -1.7 0.1 2.5
v 1.7 0.1 2.5
v -0.0999999 0.1 2.3
v 0.1 0.1 2.3
v -0.0999999 0.1 1.8
v 0.1 0.1 1.8
v -2.5 0.1 1.7
v -1.7 0.1 1.7
v 1.7 0.1 1.7
v 2.5 0.1 1.7
v -2.5 0.1 1.5
v -1.7 0.1 1.5
v 1.7 0.1 1.5
v 2.5 0.1 1.5
v -0.0999999 0.1 1.4
v 0.1 0.1 1.4
v -2.5 0.1 1.3
v -1.7 0.1 1.3
v 1.7 0.1 1.3
v 2.5 0.1 1.3
v -2.5 0.1 1.1
v -1.7 0.1 1.1
v 1.7 0.1 1.1
v 2.5 0.1 1.1
v -2.5 0.1 0.9
v -1.7 0.1 0.9
v 1.7 0.1 0.9
v 2.5 0.1 0.9
v -0.0999999 0.1 0.8
v 0.1 0.1 0.8
v -2.5 0.1 0.7
v -1.7 0.1 0.7
v 1.7 0.1 0.7
v 2.5 0.1 0.7
v -2.5 0.1 0.5
v -1.7 0.1 0.5
v 1.7 0.1 0.5
v 2.5 0.1 0.5
v -0.0999999 0.1 0.4
v 0.1 0.1 0.4
v -2.5 0.1 0.3
v -1.7 0.1 0.3
v 1.7 0.1 0.3
v 2.5 0.1 0.3
v -2.5 0.1 0.0999999
v -1.7 0.1 0.0999999
v 1.7 0.1 0.0999999
v 2.5 0.1 0.0999999
v -2.5 0.1 -0.1
v -1.7 0.1 -0.1
v 1.7 0.1 -0.1
v 2.5 0.1 -0.1
v -0.0999999 0.1 -0.2
v 0.1 0.1 -0.2
v -2.5 0.1 -0.3
v -1.7 0.1 -0.3
v 1.7 0.1 -0.3
v 2.5 0.1 -0.3
v -2.5 0.1 -0.5
v -1.7 0.1 -0.5
v 1.7 0.1 -0.5
v 2.5 0.1 -0.5
v -0.0999999 0.1 -0.6
v 0.1 0.1 -0.6
v -2.5 0.1 -0.7
v -1.7 0.1 -0.7
v 1.7 0.1 -0.7
v 2.5 0.1 -0.7
v -2.5 0.1 -0.9
v -1.7 0.1 -0.9
v 1.7 0.1 -0.9
v 2.5 0.1 -0.9
v -2.5 0.1 -1.1
v -1.7 0.1 -1.1
v 1.7 0.1 -1.1
v 2.5 0.1 -1.1
v -0.0999999 0.1 -1.2
v 0.1 0.1 -1.2
v -2.5 0.1 -1.3
v -1.7 0.1 -1.3
v 1.7 0.1 -1.3
v 2.5 0.1 -1.3
v -2.5 0.1 -1.5
v -1.7 0.1 -1.5
v 1.7 0.1 -1.5
v 2.5 0.1 -1.5
v -0.0999999 0.1 -1.6
v 0.1 0.1 -1.6
v -2.5 0.1 -1.7
v -1.7 0.1 -1.7
v 1.7 0.1 -1.7
v 2.5 0.1 -1.7
v -0.0999999 0.1 -2.2
v 0.1 0.1 -2.2
v -1.7 0.1 -2.5
v 1.7 0.1 -2.5
v -2.5 0.2 2.5
v -1.7 0.2 2.5
v 1.7 0.2 2.5
v 2.5 0.2 2.5
v -2.5 0.2 1.7
v -1.7 0.2 1.7
v 1.7 0.2 1.7
v 2.5 0.2 1.7
v -2.5 0.2 -1.7
v -1.7 0.2 -1.7
v 1.7 0.2 -1.7
v 2.5 0.2 -1.7
v -2.5 0.2 -2.5
v -1.7 0.2 -2.5
v 1.7 0.2 -2.5
v 2.5 0.2 -2.5

# faces
f 19/1/1 2/1/1 1/1/1
f 20/1/1 2/1/1 19/1/1
f 21/3/1 3/3/1 2/3/1
f 21/1/1 2/1/1 20/1/1
f 22/1/1 4/1/1 3/1/1
f 22/3/1 3/3/1 21/3/1
f 23/3/1 5/3/1 4/3/1
f 23/1/1 4/1/1 22/1/1
f 24/1/1 6/1/1 5/1/1
f 24/3/1 5/3/1 23/3/1
f 25/3/1 7/3/1 6/3/1
f 25/1/1 6/1/1 24/1/1
f 26/1/1 8/1/1 7/1/1
f 26/3/1 7/3/1 25/3/1
f 27/3/1 9/3/1 8/3/1
f 27/1/1 8/1/1 26/1/1
f 28/1/1 10/1/1 9/1/1
f 28/3/1 9/3/1 27/3/1
f 29/3/1 11/3/1 10/3/1
f 29/1/1 10/1/1 28/1/1
f 30/1/1 12/1/1 11/1/1
f 30/3/1 11/3/1 29/3/1
f 31/3/1 13/3/1 12/3/1
f 31/1/1 12/1/1 30/1/1
f 32/1/1 14/1/1 13/1/1
f 32/3/1 13/3/1 31/3/1
f 33/3/1 15/3/1 14/3/1
f 33/1/1 14/1/1 32/1/1
f 34/1/1 16/1/1 15/1/1
f 34/3/1 15/3/1 33/3/1
f 35/3/1 17/3/1 16/3/1
f 35/1/1 16/1/1 34/1/1
f 36/1/1 18/1/1 17/1/1
f 36/3/1 17/3/1 35/3/1
f 37/1/1 18/1/1 36/1/1
f 38/1/1 18/1/1 37/1/1
f 39/2/1 20/2/1 19/2/1
f 40/2/1 20/2/1 39/2/1
f 41/2/1 38/2/1 37/2/1
f 42/2/1 38/2/1 41/2/1
f 47/2/1 44/2/1 43/2/1
f 48/2/1 44/2/1 47/2/1
f 49/2/1 46/2/1 45/2/1
f 50/2/1 46/2/1 49/2/1
f 51/2/2 52/2/2 55/2/2
f 55/2/2 52/2/2 56/2/2
f 53/2/2 54/2/2 57/2/2
f 57/2/2 54/2/2 58/2/2
f 59/1/2 60/1/2 77/1/2
f 77/1/2 60/1/2 78/1/2
f 60/3/2 61/3/2 79/3/2
f 78/1/2 60/1/2 79/1/2
f 61/1/2 62/1/2 80/1/2
f 79/3/2 61/3/2 80/3/2
f 62/3/2 63/3/2 81/3/2
f 80/1/2 62/1/2 81/1/2
f 63/1/2 64/1/2 82/1/2
f 81/3/2 63/3/2 82/3/2
f 64/3/2 65/3/2 83/3/2
f 82/1/2 64/1/2 83/1/2
f 65/1/2 66/1/2 84/1/2
f 83/3/2 65/3/2 84/3/2
f 66/3/2 67/3/2 85/3/2
f 84/1/2 66/1/2 85/1/2
f 67/1/2 68/1/2 86/1/2
f 85/3/2 67/3/2 86/3/2
f 68/3/2 69/3/2 87/3/2
f 86/1/2 68/1/2 87/1/2
f 69/1/2 70/1/2 88/1/2
f 87/3/2 69/3/2 88/3/2
f 70/3/2 71/3/2 89/3/2
f 88/1/2 70/1/2 89/1/2
f 71/1/2 72/1/2 90/1/2
f 89/3/2 71/3/2 90/3/2
f 72/3/2 73/3/2 91/3/2
f 90/1/2 72/1/2 91/1/2
f 73/1/2 74/1/2 92/1/2
f 91/3/2 73/3/2 92/3/2
f 74/3/2 75/3/2 93/3/2
f 92/1/2 74/1/2 93/1/2
f 75/1/2 76/1/2 94/1/2
f 93/3/2 75/3/2 94/3/2
f 94/1/2 76/1/2 95/1/2
f 95/1/2 76/1/2 96/1/2
f 77/2/2 78/2/2 97/2/2
f 97/2/2 78/2/2 98/2/2
f 95/2/2 96/2/2 99/2/2
f 99/2/2 96/2/2 100/2/2
f 104/1/3 102/1/3 101/1/3
f 104/2/3 103/2/3 102/2/3
f 105/2/3 103/2/3 104/2/3
f 106/1/3 104/1/3 101/1/3
f 108/1/3 106/1/3 101/1/3
f 109/2/3 107/2/3 106/2/3
f 109/1/3 106/1/3 108/1/3
f 110/2/3 107/2/3 109/2/3
f 113/2/3 112/2/3 111/2/3
f 114/2/3 112/2/3 113/2/3
f 117/2/3 116/2/3 115/2/3
f 118/2/3 116/2/3 117/2/3
f 119/2/4 120/2/4 121/2/4
f 121/2/4 120/2/4 122/2/4
f 123/2/4 124/2/4 125/2/4
f 125/2/4 124/2/4 126/2/4
f 127/1/4 128/1/4 130/1/4
f 128/2/4 129/2/4 130/2/4
f 130/2/4 129/2/4 131/2/4
f 127/1/4 130/1/4 132/1/4
f 127/1/4 132/1/4 134/1/4
f 132/2/4 133/2/4 135/2/4
f 134/1/4 132/1/4 135/1/4
f 135/2/4 133/2/4 136/2/4
f 139/1/5 138/1/5 137/1/5
f 140/1/5 138/1/5 139/1/5
f 141/1/5 139/1/5 137/1/5
f 141/2/5 140/2/5 139/2/5
f 142/1/5 138/1/5 140/1/5
f 142/2/5 140/2/5 141/2/5
f 143/1/5 141/1/5 137/1/5
f 143/1/5 142/1/5 141/1/5
f 144/1/5 142/1/5 143/1/5
f 145/1/5 138/1/5 142/1/5
f 145/1/5 142/1/5 144/1/5
f 146/1/5 138/1/5 145/1/5
f 147/1/5 145/1/5 144/1/5
f 148/1/5 145/1/5 147/1/5
f 149/3/5 144/3/5 143/3/5
f 150/1/5 147/1/5 144/1/5
f 150/3/5 144/3/5 149/3/5
f 151/1/5 145/1/5 148/1/5
f 151/3/5 146/3/5 145/3/5
f 152/3/5 146/3/5 151/3/5
f 153/1/5 150/1/5 149/1/5
f 154/1/5 147/1/5 150/1/5
f 154/1/5 150/1/5 153/1/5
f 155/1/5 151/1/5 148/1/5
f 155/1/5 152/1/5 151/1/5
f 156/1/5 152/1/5 155/1/5
f 157/3/5 154/3/5 153/3/5
f 158/1/5 147/1/5 154/1/5
f 158/3/5 154/3/5 157/3/5
f 159/1/5 155/1/5 148/1/5
f 159/3/5 156/3/5 155/3/5
f 160/3/5 156/3/5 159/3/5
f 161/2/5 148/2/5 147/2/5
f 161/1/5 147/1/5 158/1/5
f 161/1/5 158/1/5 157/1/5
f 162/1/5 160/1/5 159/1/5
f 162/2/5 148/2/5 161/2/5
f 162/1/5 159/1/5 148/1/5
f 163/1/5 161/1/5 157/1/5
f 163/1/5 162/1/5 161/1/5
f 164/1/5 162/1/5 163/1/5
f 165/1/5 160/1/5 162/1/5
f 165/1/5 162/1/5 164/1/5
f 166/1/5 160/1/5 165/1/5
f 167/3/5 164/3/5 163/3/5
f 168/1/5 165/1/5 164/1/5
f 168/3/5 164/3/5 167/3/5
f 169/3/5 166/3/5 165/3/5
f 169/1/5 165/1/5 168/1/5
f 170/3/5 166/3/5 169/3/5
f 171/1/5 168/1/5 167/1/5
f 171/1/5 169/1/5 168/1/5
f 171/1/5 170/1/5 169/1/5
f 172/1/5 170/1/5 171/1/5
f 173/1/5 171/1/5 167/1/5
f 174/1/5 171/1/5 173/1/5
f 175/1/5 170/1/5 172/1/5
f 176/1/5 170/1/5 175/1/5
f 177/3/5 174/3/5 173/3/5
f 178/1/5 171/1/5 174/1/5
f 178/3/5 174/3/5 177/3/5
f 179/1/5 175/1/5 172/1/5
f 179/3/5 176/3/5 175/3/5
f 180/3/5 176/3/5 179/3/5
f 181/1/5 178/1/5 177/1/5
f 182/1/5 171/1/5 178/1/5
f 182/1/5 178/1/5 181/1/5
f 183/1/5 179/1/5 172/1/5
f 183/1/5 180/1/5 179/1/5
f 184/1/5 180/1/5 183/1/5
f 185/2/5 172/2/5 171/2/5
f 185/1/5 171/1/5 182/1/5
f 186/1/5 183/1/5 172/1/5
f 186/2/5 172/2/5 185/2/5
f 187/3/5 182/3/5 181/3/5
f 188/1/5 185/1/5 182/1/5
f 188/3/5 182/3/5 187/3/5
f 188/1/5 186/1/5 185/1/5
f 189/3/5 184/3/5 183/3/5
f 189/1/5 186/1/5 188/1/5
f 189/1/5 183/1/5 186/1/5
f 190/3/5 184/3/5 189/3/5
f 191/1/5 188/1/5 187/1/5
f 191/1/5 189/1/5 188/1/5
f 191/1/5 190/1/5 189/1/5
f 192/1/5 190/1/5 191/1/5
f 193/1/5 190/1/5 192/1/5
f 194/1/5 190/1/5 193/1/5
f 195/1/5 193/1/5 192/1/5
f 196/1/5 193/1/5 195/1/5
f 197/3/5 192/3/5 191/3/5
f 198/1/5 195/1/5 192/1/5
f 198/3/5 192/3/5 197/3/5
f 199/1/5 193/1/5 196/1/5
f 199/3/5 194/3/5 193/3/5
f 200/3/5 194/3/5 199/3/5
f 201/1/5 198/1/5 197/1/5
f 202/1/5 195/1/5 198/1/5
f 202/1/5 198/1/5 201/1/5
f 203/1/5 199/1/5 196/1/5
f 203/1/5 200/1/5 199/1/5
f 204/1/5 200/1/5 203/1/5
f 205/3/5 202/3/5 201/3/5
f 206/1/5 195/1/5 202/1/5
f 206/3/5 202/3/5 205/3/5
f 207/1/5 203/1/5 196/1/5
f 207/3/5 204/3/5 203/3/5
f 208/3/5 204/3/5 207/3/5
f 209/2/5 196/2/5 195/2/5
f 209/1/5 195/1/5 206/1/5
f 209/1/5 206/1/5 205/1/5
f 210/1/5 208/1/5 207/1/5
f 210/2/5 196/2/5 209/2/5
f 210/1/5 207/1/5 196/1/5
f 211/1/5 209/1/5 205/1/5
f 211/1/5 210/1/5 209/1/5
f 212/1/5 210/1/5 211/1/5
f 213/1/5 208/1/5 210/1/5
f 213/1/5 210/1/5 212/1/5
f 214/1/5 208/1/5 213/1/5
f 215/3/5 212/3/5 211/3/5
f 216/1/5 213/1/5 212/1/5
f 216/3/5 212/3/5 215/3/5
f 217/3/5 214/3/5 213/3/5
f 217/1/5 213/1/5 216/1/5
f 218/3/5 214/3/5 217/3/5
f 219/1/5 216/1/5 215/1/5
f 219/1/5 217/1/5 216/1/5
f 219/1/5 218/1/5 217/1/5
f 220/1/5 218/1/5 219/1/5
f 221/1/5 219/1/5 215/1/5
f 221/2/5 220/2/5 219/2/5
f 222/1/5 218/1/5 220/1/5
f 222/2/5 220/2/5 221/2/5
f 223/1/5 221/1/5 215/1/5
f 223/1/5 222/1/5 221/1/5
f 224/1/5 218/1/5 222/1/5
f 224/1/5 222/1/5 223/1/5
f 225/1/6 226/1/6 227/1/6
f 227/1/6 226/1/6 228/1/6
f 225/1/6 227/1/6 229/1/6
f 227/2/6 228/2/6 229/2/6
f 228/1/6 226/1/6 230/1/6
f 229/2/6 228/2/6 230/2/6
f 225/1/6 229/1/6 232/1/6
f 229/1/6 230/1/6 232/1/6
f 230/1/6 226/1/6 233/1/6
f 232/1/6 230/1/6 233/1/6
f 231/1/6 232/1/6 235/1/6
f 233/1/6 234/1/6 235/1/6
f 232/1/6 233/1/6 235/1/6
f 235/1/6 234/1/6 236/1/6
f 236/1/6 234/1/6 237/1/6
f 237/1/6 234/1/6 238/1/6
f 236/1/6 237/1/6 239/1/6
f 239/1/6 237/1/6 240/1/6
f 235/3/6 236/3/6 241/3/6
f 236/1/6 239/1/6 242/1/6
f 241/3/6 236/3/6 242/3/6
f 240/1/6 237/1/6 243/1/6
f 237/3/6 238/3/6 243/3/6
f 243/3/6 238/3/6 244/3/6
f 241/1/6 242/1/6 245/1/6
f 242/1/6 239/1/6 246/1/6
f 245/1/6 242/1/6 246/1/6
f 240/1/6 243/1/6 247/1/6
f 243/1/6 244/1/6 247/1/6
f 247/1/6 244/1/6 248/1/6
f 245/3/6 246/3/6 249/3/6
f 246/1/6 239/1/6 250/1/6
f 249/3/6 246/3/6 250/3/6
f 240/1/6 247/1/6 251/1/6
f 247/3/6 248/3/6 251/3/6
f 251/3/6 248/3/6 252/3/6
f 239/2/6 240/2/6 253/2/6
f 250/1/6 239/1/6 253/1/6
f 249/1/6 250/1/6 253/1/6
f 251/1/6 252/1/6 254/1/6
f 253/2/6 240/2/6 254/2/6
f 240/1/6 251/1/6 254/1/6
f 249/1/6 253/1/6 255/1/6
f 253/1/6 254/1/6 255/1/6
f 255/1/6 254/1/6 256/1/6
f 254/1/6 252/1/6 257/1/6
f 256/1/6 254/1/6 257/1/6
f 257/1/6 252/1/6 258/1/6
f 255/3/6 256/3/6 259/3/6
f 256/1/6 257/1/6 260/1/6
f 259/3/6 256/3/6 260/3/6
f 257/3/6 258/3/6 261/3/6
f 260/1/6 257/1/6 261/1/6
f 261/3/6 258/3/6 262/3/6
f 259/1/6 260/1/6 263/1/6
f 260/1/6 261/1/6 263/1/6
f 261/1/6 262/1/6 263/1/6
f 263/1/6 262/1/6 264/1/6
f 259/1/6 263/1/6 265/1/6
f 265/1/6 263/1/6 266/1/6
f 264/1/6 262/1/6 267/1/6
f 267/1/6 262/1/6 268/1/6
f 265/3/6 266/3/6 269/3/6
f 266/1/6 263/1/6 270/1/6
f 269/3/6 266/3/6 270/3/6
f 264/1/6 267/1/6 271/1/6
f 267/3/6 268/3/6 271/3/6
f 271/3/6 268/3/6 272/3/6
f 269/1/6 270/1/6 273/1/6
f 270/1/6 263/1/6 274/1/6
f 273/1/6 270/1/6 274/1/6
f 264/1/6 271/1/6 275/1/6
f 271/1/6 272/1/6 275/1/6
f 275/1/6 272/1/6 276/1/6
f 263/2/6 264/2/6 277/2/6
f 274/1/6 263/1/6 277/1/6
f 264/1/6 275/1/6 278/1/6
f 277/2/6 264/2/6 278/2/6
f 273/3/6 274/3/6 279/3/6
f 274/1/6 277/1/6 280/1/6
f 279/3/6 274/3/6 280/3/6
f 277/1/6 278/1/6 280/1/6
f 275/3/6 276/3/6 281/3/6
f 280/1/6 278/1/6 281/1/6
f 278/1/6 275/1/6 281/1/6
f 281/3/6 276/3/6 282/3/6
f 279/1/6 280/1/6 283/1/6
f 280/1/6 281/1/6 283/1/6
f 281/1/6 282/1/6 283/1/6
f 283/1/6 282/1/6 284/1/6
f 284/1/6 282/1/6 285/1/6
f 285/1/6 282/1/6 286/1/6
f 284/1/6 285/1/6 287/1/6
f 287/1/6 285/1/6 288/1/6
f 283/3/6 284/3/6 289/3/6
f 284/1/6 287/1/6 290/1/6
f 289/3/6 284/3/6 290/3/6
f 288/1/6 285/1/6 291/1/6
f 285/3/6 286/3/6 291/3/6
f 291/3/6 286/3/6 292/3/6
f 289/1/6 290/1/6 293/1/6
f 290/1/6 287/1/6 294/1/6
f 293/1/6 290/1/6 294/1/6
f 288/1/6 291/1/6 295/1/6
f 291/1/6 292/1/6 295/1/6
f 295/1/6 292/1/6 296/1/6
f 293/3/6 294/3/6 297/3/6
f 294/1/6 287/1/6 298/1/6
f 297/3/6 294/3/6 298/3/6
f 288/1/6 295/1/6 299/1/6
f 295/3/6 296/3/6 299/3/6
f 299/3/6 296/3/6 300/3/6
f 287/2/6 288/2/6 301/2/6
f 298/1/6 287/1/6 301/1/6
f 297/1/6 298/1/6 301/1/6
f 299/1/6 300/1/6 302/1/6
f 301/2/6 288/2/6 302/2/6
f 288/1/6 299/1/6 302/1/6
f 297/1/6 301/1/6 303/1/6
f 301/1/6 302/1/6 303/1/6
f 303/1/6 302/1/6 304/1/6
f 302/1/6 300/1/6 305/1/6
f 304/1/6 302/1/6 305/1/6
f 305/1/6 300/1/6 306/1/6
f 303/3/6 304/3/6 307/3/6
f 304/1/6 305/1/6 308/1/6
f 307/3/6 304/3/6 308/3/6
f 305/3/6 306/3/6 309/3/6
f 308/1/6 305/1/6 309/1/6
f 309/3/6 306/3/6 310/3/6
f 307/1/6 308/1/6 311/1/6
f 308/1/6 309/1/6 311/1/6
f 309/1/6 310/1/6 311/1/6
f 311/1/6 310/1/6 312/1/6
f 307/1/6 311/1/6 313/1/6
f 313/1/6 311/1/6 314/1/6
f 312/1/6 310/1/6 315/1/6
f 315/1/6 310/1/6 316/1/6
f 314/1/6 311/1/6 317/1/6
f 311/2/6 312/2/6 317/2/6
f 312/1/6 315/1/6 318/1/6
f 317/2/6 312/2/6 318/2/6
f 314/1/6 317/1/6 319/1/6
f 317/1/6 318/1/6 319/1/6
f 318/1/6 315/1/6 320/1/6
f 319/1/6 318/1/6 320/1/6
f 321/2/6 322/2/6 325/2/6
f 325/2/6 322/2/6 326/2/6
f 323/2/6 324/2/6 327/2/6
f 327/2/6 324/2/6 328/2/6
f 329/2/6 330/2/6 333/2/6
f 333/2/6 330/2/6 334/2/6
f 331/2/6 332/2/6 335/2/6
f 335/2/6 332/2/6 336/2/6
