# MagicaVoxel @ Ephtracy

# group
o 

# material
mtllib road2.mtl
usemtl palette

# normals
vn -1 0 0
vn 1 0 0
vn 0 0 1
vn 0 0 -1
vn 0 -1 0
vn 0 1 0

# texcoords
vt 0.970703 0.5
vt 0.974609 0.5
vt 0.978516 0.5

# verts
v -2.5 0 2.5
v -2.5 0 1.5
v -2.5 0 1.3
v -2.5 0 1.1
v -2.5 0 0.9
v -2.5 0 0.7
v -2.5 0 0.5
v -2.5 0 0.3
v -2.5 0 0.0999999
v -2.5 0 -0.1
v -2.5 0 -0.3
v -2.5 0 -0.5
v -2.5 0 -0.7
v -2.5 0 -0.9
v -2.5 0 -1.1
v -2.5 0 -1.3
v -2.5 0 -1.5
v -2.5 0 -2.5
v -2.5 0.1 2.5
v -2.5 0.1 1.7
v -2.5 0.1 1.5
v -2.5 0.1 1.3
v -2.5 0.1 1.1
v -2.5 0.1 0.9
v -2.5 0.1 0.7
v -2.5 0.1 0.5
v -2.5 0.1 0.3
v -2.5 0.1 0.0999999
v -2.5 0.1 -0.1
v -2.5 0.1 -0.3
v -2.5 0.1 -0.5
v -2.5 0.1 -0.7
v -2.5 0.1 -0.9
v -2.5 0.1 -1.1
v -2.5 0.1 -1.3
v -2.5 0.1 -1.5
v -2.5 0.1 -1.7
v -2.5 0.1 -2.5
v -2.5 0.2 2.5
v -2.5 0.2 1.7
v -2.5 0.2 -1.7
v -2.5 0.2 -2.5
v 1.7 0.1 2.5
v 1.7 0.1 -2.5
v 1.7 0.2 2.5
v 1.7 0.2 -2.5
v -1.7 0.1 2.5
v -1.7 0.1 1.7
v -1.7 0.1 -1.7
v -1.7 0.1 -2.5
v -1.7 0.2 2.5
v -1.7 0.2 1.7
v -1.7 0.2 -1.7
v -1.7 0.2 -2.5
v 2.5 0 2.5
v 2.5 0 -2.5
v 2.5 0.1 2.5
v 2.5 0.1 -2.5
v 2.5 0.2 2.5
v 2.5 0.2 -2.5
v -2.5 0 2.5
v -2.5 0.1 2.5
v -2.5 0.2 2.5
v -1.7 0.1 2.5
v -1.7 0.2 2.5
v 1.7 0.1 2.5
v 1.7 0.2 2.5
v 2.5 0 2.5
v 2.5 0.1 2.5
v 2.5 0.2 2.5
v -2.5 0.1 -1.7
v -2.5 0.2 -1.7
v -1.7 0.1 -1.7
v -1.7 0.2 -1.7
v -2.5 0.1 1.7
v -2.5 0.2 1.7
v -1.7 0.1 1.7
v -1.7 0.2 1.7
v -2.5 0 -2.5
v -2.5 0.1 -2.5
v -2.5 0.2 -2.5
v -1.7 0.1 -2.5
v -1.7 0.2 -2.5
v 1.7 0.1 -2.5
v 1.7 0.2 -2.5
v 2.5 0 -2.5
v 2.5 0.1 -2.5
v 2.5 0.2 -2.5
v -2.5 0 2.5
v 2.5 0 2.5
v -0.0999999 0 2.3
v 0.1 0 2.3
v -0.0999999 0 1.8
v 0.1 0 1.8
v -2.5 0 1.5
v -1.7 0 1.5
v -0.0999999 0 1.4
v 0.1 0 1.4
v -2.5 0 1.3
v -1.7 0 1.3
v -2.5 0 1.1
v -1.7 0 1.1
v -2.5 0 0.9
v -1.7 0 0.9
v -0.0999999 0 0.8
v 0.1 0 0.8
v -2.5 0 0.7
v -1.7 0 0.7
v -2.5 0 0.5
v -1.7 0 0.5
v -0.0999999 0 0.4
v 0.1 0 0.4
v -2.5 0 0.3
v -1.7 0 0.3
v -2.5 0 0.0999999
v -1.7 0 0.0999999
v -2.5 0 -0.1
v -1.7 0 -0.1
v -0.0999999 0 -0.2
v 0.1 0 -0.2
v -2.5 0 -0.3
v -1.7 0 -0.3
v -2.5 0 -0.5
v -1.7 0 -0.5
v -0.0999999 0 -0.6
v 0.1 0 -0.6
v -2.5 0 -0.7
v -1.7 0 -0.7
v -2.5 0 -0.9
v -1.7 0 -0.9
v -2.5 0 -1.1
v -1.7 0 -1.1
v -0.0999999 0 -1.2
v 0.1 0 -1.2
v -2.5 0 -1.3
v -1.7 0 -1.3
v -2.5 0 -1.5
v -1.7 0 -1.5
v -0.0999999 0 -1.7
v 0.1 0 -1.7
v -0.0999999 0 -2.2
v 0.1 0 -2.2
v -2.5 0 -2.5
v 2.5 0 -2.5
v -1.7 0.1 2.5
v 1.7 0.1 2.5
v -0.0999999 0.1 2.3
v 0.1 0.1 2.3
v -0.0999999 0.1 1.8
v 0.1 0.1 1.8
v -2.5 0.1 1.7
v -1.7 0.1 1.7
v -2.5 0.1 1.5
v -1.7 0.1 1.5
v -0.0999999 0.1 1.4
v 0.1 0.1 1.4
v -2.5 0.1 1.3
v -1.7 0.1 1.3
v -2.5 0.1 1.1
v -1.7 0.1 1.1
v -2.5 0.1 0.9
v -1.7 0.1 0.9
v -0.0999999 0.1 0.8
v 0.1 0.1 0.8
v -2.5 0.1 0.7
v -1.7 0.1 0.7
v -2.5 0.1 0.5
v -1.7 0.1 0.5
v -0.0999999 0.1 0.4
v 0.1 0.1 0.4
v -2.5 0.1 0.3
v -1.7 0.1 0.3
v -2.5 0.1 0.0999999
v -1.7 0.1 0.0999999
v -2.5 0.1 -0.1
v -1.7 0.1 -0.1
v -0.0999999 0.1 -0.2
v 0.1 0.1 -0.2
v -2.5 0.1 -0.3
v -1.7 0.1 -0.3
v -2.5 0.1 -0.5
v -1.7 0.1 -0.5
v -0.0999999 0.1 -0.6
v 0.1 0.1 -0.6
v -2.5 0.1 -0.7
v -1.7 0.1 -0.7
v -2.5 0.1 -0.9
v -1.7 0.1 -0.9
v -2.5 0.1 -1.1
v -1.7 0.1 -1.1
v -0.0999999 0.1 -1.2
v 0.1 0.1 -1.2
v -2.5 0.1 -1.3
v -1.7 0.1 -1.3
v -2.5 0.1 -1.5
v -1.7 0.1 -1.5
v -2.5 0.1 -1.7
v -1.7 0.1 -1.7
v -0.0999999 0.1 -1.7
v 0.1 0.1 -1.7
v -0.0999999 0.1 -2.2
v 0.1 0.1 -2.2
v -1.7 0.1 -2.5
v 1.7 0.1 -2.5
v -2.5 0.2 2.5
v -1.7 0.2 2.5
v 1.7 0.2 2.5
v 2.5 0.2 2.5
v -2.5 0.2 1.7
v -1.7 0.2 1.7
v -2.5 0.2 -1.7
v -1.7 0.2 -1.7
v -2.5 0.2 -2.5
v -1.7 0.2 -2.5
v 1.7 0.2 -2.5
v 2.5 0.2 -2.5

# faces
f 19/1/1 2/1/1 1/1/1
f 20/1/1 2/1/1 19/1/1
f 21/3/1 3/3/1 2/3/1
f 21/1/1 2/1/1 20/1/1
f 22/1/1 4/1/1 3/1/1
f 22/3/1 3/3/1 21/3/1
f 23/3/1 5/3/1 4/3/1
f 23/1/1 4/1/1 22/1/1
f 24/1/1 6/1/1 5/1/1
f 24/3/1 5/3/1 23/3/1
f 25/3/1 7/3/1 6/3/1
f 25/1/1 6/1/1 24/1/1
f 26/1/1 8/1/1 7/1/1
f 26/3/1 7/3/1 25/3/1
f 27/3/1 9/3/1 8/3/1
f 27/1/1 8/1/1 26/1/1
f 28/1/1 10/1/1 9/1/1
f 28/3/1 9/3/1 27/3/1
f 29/3/1 11/3/1 10/3/1
f 29/1/1 10/1/1 28/1/1
f 30/1/1 12/1/1 11/1/1
f 30/3/1 11/3/1 29/3/1
f 31/3/1 13/3/1 12/3/1
f 31/1/1 12/1/1 30/1/1
f 32/1/1 14/1/1 13/1/1
f 32/3/1 13/3/1 31/3/1
f 33/3/1 15/3/1 14/3/1
f 33/1/1 14/1/1 32/1/1
f 34/1/1 16/1/1 15/1/1
f 34/3/1 15/3/1 33/3/1
f 35/3/1 17/3/1 16/3/1
f 35/1/1 16/1/1 34/1/1
f 36/1/1 18/1/1 17/1/1
f 36/3/1 17/3/1 35/3/1
f 37/1/1 18/1/1 36/1/1
f 38/1/1 18/1/1 37/1/1
f 39/2/1 20/2/1 19/2/1
f 40/2/1 20/2/1 39/2/1
f 41/2/1 38/2/1 37/2/1
f 42/2/1 38/2/1 41/2/1
f 45/2/1 44/2/1 43/2/1
f 46/2/1 44/2/1 45/2/1
f 47/2/2 48/2/2 51/2/2
f 51/2/2 48/2/2 52/2/2
f 49/2/2 50/2/2 53/2/2
f 53/2/2 50/2/2 54/2/2
f 55/1/2 56/1/2 57/1/2
f 57/1/2 56/1/2 58/1/2
f 57/2/2 58/2/2 59/2/2
f 59/2/2 58/2/2 60/2/2
f 64/1/3 62/1/3 61/1/3
f 64/2/3 63/2/3 62/2/3
f 65/2/3 63/2/3 64/2/3
f 66/1/3 64/1/3 61/1/3
f 68/1/3 66/1/3 61/1/3
f 69/2/3 67/2/3 66/2/3
f 69/1/3 66/1/3 68/1/3
f 70/2/3 67/2/3 69/2/3
f 73/2/3 72/2/3 71/2/3
f 74/2/3 72/2/3 73/2/3
f 75/2/4 76/2/4 77/2/4
f 77/2/4 76/2/4 78/2/4
f 79/1/4 80/1/4 82/1/4
f 80/2/4 81/2/4 82/2/4
f 82/2/4 81/2/4 83/2/4
f 79/1/4 82/1/4 84/1/4
f 79/1/4 84/1/4 86/1/4
f 84/2/4 85/2/4 87/2/4
f 86/1/4 84/1/4 87/1/4
f 87/2/4 85/2/4 88/2/4
f 91/1/5 90/1/5 89/1/5
f 92/1/5 90/1/5 91/1/5
f 93/1/5 91/1/5 89/1/5
f 93/2/5 92/2/5 91/2/5
f 94/1/5 90/1/5 92/1/5
f 94/2/5 92/2/5 93/2/5
f 95/1/5 93/1/5 89/1/5
f 95/1/5 94/1/5 93/1/5
f 96/1/5 94/1/5 95/1/5
f 97/1/5 94/1/5 96/1/5
f 98/1/5 90/1/5 94/1/5
f 98/1/5 94/1/5 97/1/5
f 99/3/5 96/3/5 95/3/5
f 100/1/5 97/1/5 96/1/5
f 100/3/5 96/3/5 99/3/5
f 101/1/5 100/1/5 99/1/5
f 102/1/5 97/1/5 100/1/5
f 102/1/5 100/1/5 101/1/5
f 103/3/5 102/3/5 101/3/5
f 104/1/5 97/1/5 102/1/5
f 104/3/5 102/3/5 103/3/5
f 105/2/5 98/2/5 97/2/5
f 105/1/5 97/1/5 104/1/5
f 105/1/5 104/1/5 103/1/5
f 106/1/5 90/1/5 98/1/5
f 106/2/5 98/2/5 105/2/5
f 107/1/5 105/1/5 103/1/5
f 107/1/5 106/1/5 105/1/5
f 108/1/5 106/1/5 107/1/5
f 109/3/5 108/3/5 107/3/5
f 110/1/5 106/1/5 108/1/5
f 110/3/5 108/3/5 109/3/5
f 111/1/5 110/1/5 109/1/5
f 111/1/5 106/1/5 110/1/5
f 112/1/5 90/1/5 106/1/5
f 112/1/5 106/1/5 111/1/5
f 113/1/5 111/1/5 109/1/5
f 114/1/5 111/1/5 113/1/5
f 115/3/5 114/3/5 113/3/5
f 116/1/5 111/1/5 114/1/5
f 116/3/5 114/3/5 115/3/5
f 117/1/5 116/1/5 115/1/5
f 118/1/5 111/1/5 116/1/5
f 118/1/5 116/1/5 117/1/5
f 119/2/5 112/2/5 111/2/5
f 119/1/5 111/1/5 118/1/5
f 120/1/5 90/1/5 112/1/5
f 120/2/5 112/2/5 119/2/5
f 121/3/5 118/3/5 117/3/5
f 122/1/5 119/1/5 118/1/5
f 122/3/5 118/3/5 121/3/5
f 122/1/5 120/1/5 119/1/5
f 123/1/5 122/1/5 121/1/5
f 124/1/5 120/1/5 122/1/5
f 124/1/5 122/1/5 123/1/5
f 125/1/5 120/1/5 124/1/5
f 126/1/5 90/1/5 120/1/5
f 126/1/5 120/1/5 125/1/5
f 127/3/5 124/3/5 123/3/5
f 128/1/5 125/1/5 124/1/5
f 128/3/5 124/3/5 127/3/5
f 129/1/5 128/1/5 127/1/5
f 130/1/5 125/1/5 128/1/5
f 130/1/5 128/1/5 129/1/5
f 131/3/5 130/3/5 129/3/5
f 132/1/5 125/1/5 130/1/5
f 132/3/5 130/3/5 131/3/5
f 133/2/5 126/2/5 125/2/5
f 133/1/5 125/1/5 132/1/5
f 133/1/5 132/1/5 131/1/5
f 134/1/5 90/1/5 126/1/5
f 134/2/5 126/2/5 133/2/5
f 135/1/5 133/1/5 131/1/5
f 135/1/5 134/1/5 133/1/5
f 136/1/5 134/1/5 135/1/5
f 137/3/5 136/3/5 135/3/5
f 138/1/5 134/1/5 136/1/5
f 138/3/5 136/3/5 137/3/5
f 139/1/5 138/1/5 137/1/5
f 139/1/5 134/1/5 138/1/5
f 140/1/5 90/1/5 134/1/5
f 140/1/5 134/1/5 139/1/5
f 141/1/5 139/1/5 137/1/5
f 141/2/5 140/2/5 139/2/5
f 142/1/5 90/1/5 140/1/5
f 142/2/5 140/2/5 141/2/5
f 143/1/5 141/1/5 137/1/5
f 143/1/5 142/1/5 141/1/5
f 144/1/5 90/1/5 142/1/5
f 144/1/5 142/1/5 143/1/5
f 145/1/6 146/1/6 147/1/6
f 147/1/6 146/1/6 148/1/6
f 145/1/6 147/1/6 149/1/6
f 147/2/6 148/2/6 149/2/6
f 148/1/6 146/1/6 150/1/6
f 149/2/6 148/2/6 150/2/6
f 145/1/6 149/1/6 152/1/6
f 149/1/6 150/1/6 152/1/6
f 151/1/6 152/1/6 153/1/6
f 152/1/6 150/1/6 154/1/6
f 153/1/6 152/1/6 154/1/6
f 154/1/6 150/1/6 155/1/6
f 150/1/6 146/1/6 156/1/6
f 155/1/6 150/1/6 156/1/6
f 153/3/6 154/3/6 157/3/6
f 154/1/6 155/1/6 158/1/6
f 157/3/6 154/3/6 158/3/6
f 157/1/6 158/1/6 159/1/6
f 158/1/6 155/1/6 160/1/6
f 159/1/6 158/1/6 160/1/6
f 159/3/6 160/3/6 161/3/6
f 160/1/6 155/1/6 162/1/6
f 161/3/6 160/3/6 162/3/6
f 155/2/6 156/2/6 163/2/6
f 162/1/6 155/1/6 163/1/6
f 161/1/6 162/1/6 163/1/6
f 156/1/6 146/1/6 164/1/6
f 163/2/6 156/2/6 164/2/6
f 161/1/6 163/1/6 165/1/6
f 163/1/6 164/1/6 165/1/6
f 165/1/6 164/1/6 166/1/6
f 165/3/6 166/3/6 167/3/6
f 166/1/6 164/1/6 168/1/6
f 167/3/6 166/3/6 168/3/6
f 167/1/6 168/1/6 169/1/6
f 168/1/6 164/1/6 169/1/6
f 164/1/6 146/1/6 170/1/6
f 169/1/6 164/1/6 170/1/6
f 167/1/6 169/1/6 171/1/6
f 171/1/6 169/1/6 172/1/6
f 171/3/6 172/3/6 173/3/6
f 172/1/6 169/1/6 174/1/6
f 173/3/6 172/3/6 174/3/6
f 173/1/6 174/1/6 175/1/6
f 174/1/6 169/1/6 176/1/6
f 175/1/6 174/1/6 176/1/6
f 169/2/6 170/2/6 177/2/6
f 176/1/6 169/1/6 177/1/6
f 170/1/6 146/1/6 178/1/6
f 177/2/6 170/2/6 178/2/6
f 175/3/6 176/3/6 179/3/6
f 176/1/6 177/1/6 180/1/6
f 179/3/6 176/3/6 180/3/6
f 177/1/6 178/1/6 180/1/6
f 179/1/6 180/1/6 181/1/6
f 180/1/6 178/1/6 182/1/6
f 181/1/6 180/1/6 182/1/6
f 182/1/6 178/1/6 183/1/6
f 178/1/6 146/1/6 184/1/6
f 183/1/6 178/1/6 184/1/6
f 181/3/6 182/3/6 185/3/6
f 182/1/6 183/1/6 186/1/6
f 185/3/6 182/3/6 186/3/6
f 185/1/6 186/1/6 187/1/6
f 186/1/6 183/1/6 188/1/6
f 187/1/6 186/1/6 188/1/6
f 187/3/6 188/3/6 189/3/6
f 188/1/6 183/1/6 190/1/6
f 189/3/6 188/3/6 190/3/6
f 183/2/6 184/2/6 191/2/6
f 190/1/6 183/1/6 191/1/6
f 189/1/6 190/1/6 191/1/6
f 184/1/6 146/1/6 192/1/6
f 191/2/6 184/2/6 192/2/6
f 189/1/6 191/1/6 193/1/6
f 191/1/6 192/1/6 193/1/6
f 193/1/6 192/1/6 194/1/6
f 193/3/6 194/3/6 195/3/6
f 194/1/6 192/1/6 196/1/6
f 195/3/6 194/3/6 196/3/6
f 195/1/6 196/1/6 197/1/6
f 196/1/6 192/1/6 198/1/6
f 197/1/6 196/1/6 198/1/6
f 198/1/6 192/1/6 199/1/6
f 192/1/6 146/1/6 200/1/6
f 199/1/6 192/1/6 200/1/6
f 198/1/6 199/1/6 201/1/6
f 199/2/6 200/2/6 201/2/6
f 200/1/6 146/1/6 202/1/6
f 201/2/6 200/2/6 202/2/6
f 198/1/6 201/1/6 203/1/6
f 201/1/6 202/1/6 203/1/6
f 202/1/6 146/1/6 204/1/6
f 203/1/6 202/1/6 204/1/6
f 205/2/6 206/2/6 209/2/6
f 209/2/6 206/2/6 210/2/6
f 211/2/6 212/2/6 213/2/6
f 213/2/6 212/2/6 214/2/6
f 207/2/6 208/2/6 215/2/6
f 215/2/6 208/2/6 216/2/6
