# MagicaVoxel @ Ephtracy

# group
o 

# material
mtllib house3.mtl
usemtl palette

# normals
vn -1 0 0
vn 1 0 0
vn 0 0 1
vn 0 0 -1
vn 0 -1 0
vn 0 1 0

# texcoords
vt 0.970703 0.5
vt 0.974609 0.5
vt 0.978516 0.5
vt 0.986328 0.5

# verts
v -1.5 2.9 1.2
v -1.5 2.9 -2.3
v -1.5 3.2 1.2
v -1.5 3.2 -2.3
v -1.3 0 0.9
v -1.3 0 -2.1
v -1.3 2.9 0.9
v -1.3 2.9 -2.1
v -1.1 1.2 1
v -1.1 1.2 0.9
v -1.1 2.3 1
v -1.1 2.3 0.9
v -0.9 3.2 0.9
v -0.9 3.2 -2.1
v -0.9 3.5 0.9
v -0.9 3.5 -2.1
v -0.2 1.4 1
v -0.2 1.4 0.9
v -0.2 2.1 1
v -0.2 2.1 0.9
v -0.2 3.5 0.7
v -0.2 3.5 -1.9
v -0.2 3.8 0.7
v -0.2 3.8 -1.9
v 0.6 3.8 0.5
v 0.6 3.8 -1.7
v 0.6 4.1 0.5
v 0.6 4.1 -1.7
v 1.4 4.1 0.3
v 1.4 4.1 -1.5
v 1.4 4.4 0.3
v 1.4 4.4 -1.5
v 2.9 1.4 0.9
v 2.9 1.4 0.8
v 2.9 2.1 0.9
v 2.9 2.1 0.8
v -0.9 1.4 1
v -0.9 1.4 0.9
v -0.9 2.1 1
v -0.9 2.1 0.9
v 1.19209e-07 1.2 1
v 1.19209e-07 1.2 0.9
v 1.19209e-07 2.3 1
v 1.19209e-07 2.3 0.9
v 2.2 1.4 0.9
v 2.2 1.4 0.8
v 2.2 2.1 0.9
v 2.2 2.1 0.8
v 3.2 4.1 0.3
v 3.2 4.1 -1.5
v 3.2 4.4 0.3
v 3.2 4.4 -1.5
v 3.3 3.8 0.5
v 3.3 3.8 -1.7
v 3.3 4.1 0.5
v 3.3 4.1 -1.7
v 3.4 0 0.9
v 3.4 0 -2.1
v 3.4 2.9 0.9
v 3.4 2.9 -2.1
v 3.4 3.5 0.7
v 3.4 3.5 -1.9
v 3.4 3.8 0.7
v 3.4 3.8 -1.9
v 3.5 3.2 0.9
v 3.5 3.2 -2.1
v 3.5 3.5 0.9
v 3.5 3.5 -2.1
v 3.6 2.9 1.2
v 3.6 2.9 -2.3
v 3.6 3.2 1.2
v 3.6 3.2 -2.3
v -1.5 2.9 1.2
v -1.5 3.2 1.2
v 3.6 2.9 1.2
v 3.6 3.2 1.2
v -1.1 1.2 1
v -1.1 2.3 1
v -0.9 1.4 1
v -0.9 2.1 1
v -0.2 1.4 1
v -0.2 2.1 1
v 1.19209e-07 1.2 1
v 1.19209e-07 2.3 1
v -1.3 0 0.9
v -1.3 2.9 0.9
v -1.1 1.2 0.9
v -1.1 2.3 0.9
v -0.9 1.4 0.9
v -0.9 2.1 0.9
v -0.9 3.2 0.9
v -0.9 3.5 0.9
v -0.2 1.4 0.9
v -0.2 2.1 0.9
v 1.19209e-07 1.2 0.9
v 1.19209e-07 2.3 0.9
v 0.5 0 0.9
v 0.5 1.4 0.9
v 1.4 0 0.9
v 1.4 1.4 0.9
v 2 1.2 0.9
v 2 2.3 0.9
v 2.2 1.4 0.9
v 2.2 2.1 0.9
v 2.9 1.4 0.9
v 2.9 2.1 0.9
v 3.1 1.2 0.9
v 3.1 2.3 0.9
v 3.4 0 0.9
v 3.4 2.9 0.9
v 3.5 3.2 0.9
v 3.5 3.5 0.9
v 2.2 1.4 0.8
v 2.2 2.1 0.8
v 2.9 1.4 0.8
v 2.9 2.1 0.8
v -0.2 3.5 0.7
v -0.2 3.8 0.7
v 3.4 3.5 0.7
v 3.4 3.8 0.7
v 0.6 3.8 0.5
v 0.6 4.1 0.5
v 3.3 3.8 0.5
v 3.3 4.1 0.5
v 1.4 4.1 0.3
v 1.4 4.4 0.3
v 3.2 4.1 0.3
v 3.2 4.4 0.3
v 1.4 4.1 -1.5
v 1.4 4.4 -1.5
v 3.2 4.1 -1.5
v 3.2 4.4 -1.5
v 0.6 3.8 -1.7
v 0.6 4.1 -1.7
v 3.3 3.8 -1.7
v 3.3 4.1 -1.7
v -0.2 3.5 -1.9
v -0.2 3.8 -1.9
v 3.4 3.5 -1.9
v 3.4 3.8 -1.9
v -1.3 0 -2.1
v -1.3 2.9 -2.1
v -0.9 3.2 -2.1
v -0.9 3.5 -2.1
v 3.4 0 -2.1
v 3.4 2.9 -2.1
v 3.5 3.2 -2.1
v 3.5 3.5 -2.1
v -1.5 2.9 -2.3
v -1.5 3.2 -2.3
v 3.6 2.9 -2.3
v 3.6 3.2 -2.3
v -1.3 0 0.9
v 0.5 0 0.9
v 1.4 0 0.9
v 3.4 0 0.9
v 0.5 0 0.8
v 1.4 0 0.8
v -1.3 0 -2.1
v 3.4 0 -2.1
v -1.1 1.2 1
v 1.19209e-07 1.2 1
v -1.1 1.2 0.9
v 1.19209e-07 1.2 0.9
v -0.9 2.1 1
v -0.2 2.1 1
v -0.9 2.1 0.9
v -0.2 2.1 0.9
v 2.2 2.1 0.9
v 2.9 2.1 0.9
v 2.2 2.1 0.8
v 2.9 2.1 0.8
v -1.5 2.9 1.2
v 3.6 2.9 1.2
v -1.3 2.9 0.9
v 3.4 2.9 0.9
v -1.3 2.9 -2.1
v 3.4 2.9 -2.1
v -1.5 2.9 -2.3
v 3.6 2.9 -2.3
v -0.9 1.4 1
v -0.2 1.4 1
v -0.9 1.4 0.9
v -0.2 1.4 0.9
v 2.2 1.4 0.9
v 2.9 1.4 0.9
v 2.2 1.4 0.8
v 2.9 1.4 0.8
v -1.1 2.3 1
v 1.19209e-07 2.3 1
v -1.1 2.3 0.9
v 1.19209e-07 2.3 0.9
v -1.5 3.2 1.2
v 3.6 3.2 1.2
v -0.9 3.2 0.9
v 3.5 3.2 0.9
v -0.9 3.2 -2.1
v 3.5 3.2 -2.1
v -1.5 3.2 -2.3
v 3.6 3.2 -2.3
v -0.9 3.5 0.9
v 3.5 3.5 0.9
v -0.2 3.5 0.7
v 3.4 3.5 0.7
v -0.2 3.5 -1.9
v 3.4 3.5 -1.9
v -0.9 3.5 -2.1
v 3.5 3.5 -2.1
v -0.2 3.8 0.7
v 3.4 3.8 0.7
v 0.6 3.8 0.5
v 3.3 3.8 0.5
v 0.6 3.8 -1.7
v 3.3 3.8 -1.7
v -0.2 3.8 -1.9
v 3.4 3.8 -1.9
v 0.6 4.1 0.5
v 3.3 4.1 0.5
v 1.4 4.1 0.3
v 3.2 4.1 0.3
v 1.4 4.1 -1.5
v 3.2 4.1 -1.5
v 0.6 4.1 -1.7
v 3.3 4.1 -1.7
v 1.4 4.4 0.3
v 3.2 4.4 0.3
v 1.4 4.4 -1.5
v 3.2 4.4 -1.5

# faces
f 3/2/1 2/2/1 1/2/1
f 4/2/1 2/2/1 3/2/1
f 7/1/1 6/1/1 5/1/1
f 8/1/1 6/1/1 7/1/1
f 11/3/1 10/3/1 9/3/1
f 12/3/1 10/3/1 11/3/1
f 15/2/1 14/2/1 13/2/1
f 16/2/1 14/2/1 15/2/1
f 19/3/1 18/3/1 17/3/1
f 20/3/1 18/3/1 19/3/1
f 23/2/1 22/2/1 21/2/1
f 24/2/1 22/2/1 23/2/1
f 27/2/1 26/2/1 25/2/1
f 28/2/1 26/2/1 27/2/1
f 31/2/1 30/2/1 29/2/1
f 32/2/1 30/2/1 31/2/1
f 35/3/1 34/3/1 33/3/1
f 36/3/1 34/3/1 35/3/1
f 37/3/2 38/3/2 39/3/2
f 39/3/2 38/3/2 40/3/2
f 41/3/2 42/3/2 43/3/2
f 43/3/2 42/3/2 44/3/2
f 45/3/2 46/3/2 47/3/2
f 47/3/2 46/3/2 48/3/2
f 49/2/2 50/2/2 51/2/2
f 51/2/2 50/2/2 52/2/2
f 53/2/2 54/2/2 55/2/2
f 55/2/2 54/2/2 56/2/2
f 57/1/2 58/1/2 59/1/2
f 59/1/2 58/1/2 60/1/2
f 61/2/2 62/2/2 63/2/2
f 63/2/2 62/2/2 64/2/2
f 65/2/2 66/2/2 67/2/2
f 67/2/2 66/2/2 68/2/2
f 69/2/2 70/2/2 71/2/2
f 71/2/2 70/2/2 72/2/2
f 75/2/3 74/2/3 73/2/3
f 76/2/3 74/2/3 75/2/3
f 79/3/3 78/3/3 77/3/3
f 80/3/3 78/3/3 79/3/3
f 81/3/3 79/3/3 77/3/3
f 82/3/3 78/3/3 80/3/3
f 83/3/3 81/3/3 77/3/3
f 83/3/3 82/3/3 81/3/3
f 84/3/3 78/3/3 82/3/3
f 84/3/3 82/3/3 83/3/3
f 87/1/3 86/1/3 85/1/3
f 88/1/3 86/1/3 87/1/3
f 93/4/3 90/4/3 89/4/3
f 94/4/3 90/4/3 93/4/3
f 95/1/3 87/1/3 85/1/3
f 96/1/3 86/1/3 88/1/3
f 97/1/3 95/1/3 85/1/3
f 97/1/3 96/1/3 95/1/3
f 98/1/3 96/1/3 97/1/3
f 99/3/3 98/3/3 97/3/3
f 100/1/3 96/1/3 98/1/3
f 100/3/3 98/3/3 99/3/3
f 101/1/3 100/1/3 99/1/3
f 102/1/3 86/1/3 96/1/3
f 102/1/3 100/1/3 101/1/3
f 102/1/3 96/1/3 100/1/3
f 103/3/3 102/3/3 101/3/3
f 104/3/3 102/3/3 103/3/3
f 105/3/3 103/3/3 101/3/3
f 106/3/3 102/3/3 104/3/3
f 107/1/3 101/1/3 99/1/3
f 107/3/3 106/3/3 105/3/3
f 107/3/3 105/3/3 101/3/3
f 108/3/3 102/3/3 106/3/3
f 108/3/3 106/3/3 107/3/3
f 108/1/3 86/1/3 102/1/3
f 109/1/3 107/1/3 99/1/3
f 109/1/3 108/1/3 107/1/3
f 110/1/3 86/1/3 108/1/3
f 110/1/3 108/1/3 109/1/3
f 111/2/3 92/2/3 91/2/3
f 112/2/3 92/2/3 111/2/3
f 115/4/3 114/4/3 113/4/3
f 116/4/3 114/4/3 115/4/3
f 119/2/3 118/2/3 117/2/3
f 120/2/3 118/2/3 119/2/3
f 123/2/3 122/2/3 121/2/3
f 124/2/3 122/2/3 123/2/3
f 127/2/3 126/2/3 125/2/3
f 128/2/3 126/2/3 127/2/3
f 129/2/4 130/2/4 131/2/4
f 131/2/4 130/2/4 132/2/4
f 133/2/4 134/2/4 135/2/4
f 135/2/4 134/2/4 136/2/4
f 137/2/4 138/2/4 139/2/4
f 139/2/4 138/2/4 140/2/4
f 141/1/4 142/1/4 145/1/4
f 145/1/4 142/1/4 146/1/4
f 143/2/4 144/2/4 147/2/4
f 147/2/4 144/2/4 148/2/4
f 149/2/4 150/2/4 151/2/4
f 151/2/4 150/2/4 152/2/4
f 157/1/5 154/1/5 153/1/5
f 157/3/5 155/3/5 154/3/5
f 158/1/5 156/1/5 155/1/5
f 158/3/5 155/3/5 157/3/5
f 159/1/5 157/1/5 153/1/5
f 159/1/5 158/1/5 157/1/5
f 160/1/5 156/1/5 158/1/5
f 160/1/5 158/1/5 159/1/5
f 163/3/5 162/3/5 161/3/5
f 164/3/5 162/3/5 163/3/5
f 167/3/5 166/3/5 165/3/5
f 168/3/5 166/3/5 167/3/5
f 171/3/5 170/3/5 169/3/5
f 172/3/5 170/3/5 171/3/5
f 175/2/5 174/2/5 173/2/5
f 176/2/5 174/2/5 175/2/5
f 177/2/5 175/2/5 173/2/5
f 178/2/5 174/2/5 176/2/5
f 179/2/5 177/2/5 173/2/5
f 179/2/5 178/2/5 177/2/5
f 180/2/5 174/2/5 178/2/5
f 180/2/5 178/2/5 179/2/5
f 181/3/6 182/3/6 183/3/6
f 183/3/6 182/3/6 184/3/6
f 185/3/6 186/3/6 187/3/6
f 187/3/6 186/3/6 188/3/6
f 189/3/6 190/3/6 191/3/6
f 191/3/6 190/3/6 192/3/6
f 193/2/6 194/2/6 195/2/6
f 195/2/6 194/2/6 196/2/6
f 193/2/6 195/2/6 197/2/6
f 196/2/6 194/2/6 198/2/6
f 193/2/6 197/2/6 199/2/6
f 197/2/6 198/2/6 199/2/6
f 198/2/6 194/2/6 200/2/6
f 199/2/6 198/2/6 200/2/6
f 201/2/6 202/2/6 203/2/6
f 203/2/6 202/2/6 204/2/6
f 201/2/6 203/2/6 205/2/6
f 204/2/6 202/2/6 206/2/6
f 201/2/6 205/2/6 207/2/6
f 205/2/6 206/2/6 207/2/6
f 206/2/6 202/2/6 208/2/6
f 207/2/6 206/2/6 208/2/6
f 209/2/6 210/2/6 211/2/6
f 211/2/6 210/2/6 212/2/6
f 209/2/6 211/2/6 213/2/6
f 212/2/6 210/2/6 214/2/6
f 209/2/6 213/2/6 215/2/6
f 213/2/6 214/2/6 215/2/6
f 214/2/6 210/2/6 216/2/6
f 215/2/6 214/2/6 216/2/6
f 217/2/6 218/2/6 219/2/6
f 219/2/6 218/2/6 220/2/6
f 217/2/6 219/2/6 221/2/6
f 220/2/6 218/2/6 222/2/6
f 217/2/6 221/2/6 223/2/6
f 221/2/6 222/2/6 223/2/6
f 222/2/6 218/2/6 224/2/6
f 223/2/6 222/2/6 224/2/6
f 225/2/6 226/2/6 227/2/6
f 227/2/6 226/2/6 228/2/6
