# MagicaVoxel @ Ephtracy

# group
o 

# material
mtllib grass3.mtl
usemtl palette

# normals
vn -1 0 0
vn 1 0 0
vn 0 0 1
vn 0 0 -1
vn 0 -1 0
vn 0 1 0

# texcoords
vt 0.970703 0.5
vt 0.974609 0.5
vt 0.978516 0.5

# verts
v -2.5 0 2.5
v -2.5 0 -2.5
v -2.5 0.1 2.5
v -2.5 0.1 -2.5
v -1.6 0.1 1.2
v -1.6 0.1 1.1
v -1.6 0.2 1.2
v -1.6 0.2 1.1
v -1.5 0.1 -2.38419e-07
v -1.5 0.1 -0.1
v -1.5 0.2 -2.38419e-07
v -1.5 0.2 -0.1
v -1.4 0.1 -1.3
v -1.4 0.1 -1.4
v -1.4 0.2 -1.3
v -1.4 0.2 -1.4
v -0.8 0.1 -0.1
v -0.8 0.1 -0.2
v -0.8 0.2 -0.1
v -0.8 0.2 -0.2
v -0.5 0.1 0.9
v -0.5 0.1 0.8
v -0.5 0.3 0.9
v -0.5 0.3 0.8
v -0.4 0.1 1.9
v -0.4 0.1 1.8
v -0.4 0.2 1.9
v -0.4 0.2 1.8
v -0.0999999 0.1 -0.6
v -0.0999999 0.1 -0.7
v -0.0999999 0.2 -0.6
v -0.0999999 0.2 -0.7
v 2.38419e-07 0.2 -0.6
v 2.38419e-07 0.2 -0.7
v 2.38419e-07 0.3 -0.6
v 2.38419e-07 0.3 -0.7
v 0.4 0.1 1.5
v 0.4 0.1 1.4
v 0.4 0.2 1.5
v 0.4 0.2 1.4
v 0.8 0.1 -1
v 0.8 0.1 -1.1
v 0.8 0.2 -1
v 0.8 0.2 -1.1
v 0.9 0.1 0.4
v 0.9 0.1 0.3
v 0.9 0.2 0.4
v 0.9 0.2 0.3
v 1.1 0.1 1.6
v 1.1 0.1 1.5
v 1.1 0.2 1.6
v 1.1 0.2 1.5
v 1.5 0.1 -0.5
v 1.5 0.1 -0.6
v 1.5 0.3 -0.5
v 1.5 0.3 -0.6
v 1.8 0.1 1.1
v 1.8 0.1 1
v 1.8 0.2 1.1
v 1.8 0.2 1
v -1.5 0.1 1.2
v -1.5 0.1 1.1
v -1.5 0.2 1.2
v -1.5 0.2 1.1
v -1.4 0.1 -2.38419e-07
v -1.4 0.1 -0.1
v -1.4 0.2 -2.38419e-07
v -1.4 0.2 -0.1
v -1.3 0.1 -1.3
v -1.3 0.1 -1.4
v -1.3 0.2 -1.3
v -1.3 0.2 -1.4
v -0.7 0.1 -0.1
v -0.7 0.1 -0.2
v -0.7 0.2 -0.1
v -0.7 0.2 -0.2
v -0.4 0.2 0.9
v -0.4 0.2 0.8
v -0.4 0.3 0.9
v -0.4 0.3 0.8
v -0.3 0.1 1.9
v -0.3 0.1 1.8
v -0.3 0.1 0.9
v -0.3 0.1 0.8
v -0.3 0.2 1.9
v -0.3 0.2 1.8
v -0.3 0.2 0.9
v -0.3 0.2 0.8
v 0.1 0.1 -0.6
v 0.1 0.1 -0.7
v 0.1 0.3 -0.6
v 0.1 0.3 -0.7
v 0.5 0.1 1.5
v 0.5 0.1 1.4
v 0.5 0.2 1.5
v 0.5 0.2 1.4
v 0.9 0.1 -1
v 0.9 0.1 -1.1
v 0.9 0.2 -1
v 0.9 0.2 -1.1
v 1 0.1 0.4
v 1 0.1 0.3
v 1 0.2 0.4
v 1 0.2 0.3
v 1.2 0.1 1.6
v 1.2 0.1 1.5
v 1.2 0.2 1.6
v 1.2 0.2 1.5
v 1.6 0.1 -0.5
v 1.6 0.1 -0.6
v 1.6 0.3 -0.5
v 1.6 0.3 -0.6
v 1.9 0.1 1.1
v 1.9 0.1 1
v 1.9 0.2 1.1
v 1.9 0.2 1
v 2.5 0 2.5
v 2.5 0 -2.5
v 2.5 0.1 2.5
v 2.5 0.1 -2.5
v -2.5 0 2.5
v -2.5 0.1 2.5
v 2.5 0 2.5
v 2.5 0.1 2.5
v -0.4 0.1 1.9
v -0.4 0.2 1.9
v -0.3 0.1 1.9
v -0.3 0.2 1.9
v 1.1 0.1 1.6
v 1.1 0.2 1.6
v 1.2 0.1 1.6
v 1.2 0.2 1.6
v 0.4 0.1 1.5
v 0.4 0.2 1.5
v 0.5 0.1 1.5
v 0.5 0.2 1.5
v -1.6 0.1 1.2
v -1.6 0.2 1.2
v -1.5 0.1 1.2
v -1.5 0.2 1.2
v 1.8 0.1 1.1
v 1.8 0.2 1.1
v 1.9 0.1 1.1
v 1.9 0.2 1.1
v -0.5 0.1 0.9
v -0.5 0.3 0.9
v -0.4 0.2 0.9
v -0.4 0.3 0.9
v -0.3 0.1 0.9
v -0.3 0.2 0.9
v 0.9 0.1 0.4
v 0.9 0.2 0.4
v 1 0.1 0.4
v 1 0.2 0.4
v -1.5 0.1 -2.38419e-07
v -1.5 0.2 -2.38419e-07
v -1.4 0.1 -2.38419e-07
v -1.4 0.2 -2.38419e-07
v -0.8 0.1 -0.1
v -0.8 0.2 -0.1
v -0.7 0.1 -0.1
v -0.7 0.2 -0.1
v 1.5 0.1 -0.5
v 1.5 0.3 -0.5
v 1.6 0.1 -0.5
v 1.6 0.3 -0.5
v -0.0999999 0.1 -0.6
v -0.0999999 0.2 -0.6
v 2.38419e-07 0.2 -0.6
v 2.38419e-07 0.3 -0.6
v 0.1 0.1 -0.6
v 0.1 0.3 -0.6
v 0.8 0.1 -1
v 0.8 0.2 -1
v 0.9 0.1 -1
v 0.9 0.2 -1
v -1.4 0.1 -1.3
v -1.4 0.2 -1.3
v -1.3 0.1 -1.3
v -1.3 0.2 -1.3
v -0.4 0.1 1.8
v -0.4 0.2 1.8
v -0.3 0.1 1.8
v -0.3 0.2 1.8
v 1.1 0.1 1.5
v 1.1 0.2 1.5
v 1.2 0.1 1.5
v 1.2 0.2 1.5
v 0.4 0.1 1.4
v 0.4 0.2 1.4
v 0.5 0.1 1.4
v 0.5 0.2 1.4
v -1.6 0.1 1.1
v -1.6 0.2 1.1
v -1.5 0.1 1.1
v -1.5 0.2 1.1
v 1.8 0.1 1
v 1.8 0.2 1
v 1.9 0.1 1
v 1.9 0.2 1
v -0.5 0.1 0.8
v -0.5 0.3 0.8
v -0.4 0.2 0.8
v -0.4 0.3 0.8
v -0.3 0.1 0.8
v -0.3 0.2 0.8
v 0.9 0.1 0.3
v 0.9 0.2 0.3
v 1 0.1 0.3
v 1 0.2 0.3
v -1.5 0.1 -0.1
v -1.5 0.2 -0.1
v -1.4 0.1 -0.1
v -1.4 0.2 -0.1
v -0.8 0.1 -0.2
v -0.8 0.2 -0.2
v -0.7 0.1 -0.2
v -0.7 0.2 -0.2
v 1.5 0.1 -0.6
v 1.5 0.3 -0.6
v 1.6 0.1 -0.6
v 1.6 0.3 -0.6
v -0.0999999 0.1 -0.7
v -0.0999999 0.2 -0.7
v 2.38419e-07 0.2 -0.7
v 2.38419e-07 0.3 -0.7
v 0.1 0.1 -0.7
v 0.1 0.3 -0.7
v 0.8 0.1 -1.1
v 0.8 0.2 -1.1
v 0.9 0.1 -1.1
v 0.9 0.2 -1.1
v -1.4 0.1 -1.4
v -1.4 0.2 -1.4
v -1.3 0.1 -1.4
v -1.3 0.2 -1.4
v -2.5 0 -2.5
v -2.5 0.1 -2.5
v 2.5 0 -2.5
v 2.5 0.1 -2.5
v -2.5 0 2.5
v 2.5 0 2.5
v -2.5 0 -2.5
v 2.5 0 -2.5
v -2.5 0.1 2.5
v 2.5 0.1 2.5
v -0.4 0.1 1.9
v -0.3 0.1 1.9
v -0.4 0.1 1.8
v -0.3 0.1 1.8
v 1.1 0.1 1.6
v 1.2 0.1 1.6
v 0.4 0.1 1.5
v 0.5 0.1 1.5
v 1.1 0.1 1.5
v 1.2 0.1 1.5
v 0.4 0.1 1.4
v 0.5 0.1 1.4
v -1.6 0.1 1.2
v -1.5 0.1 1.2
v -1.6 0.1 1.1
v -1.5 0.1 1.1
v 1.8 0.1 1.1
v 1.9 0.1 1.1
v 1.8 0.1 1
v 1.9 0.1 1
v -0.5 0.1 0.9
v -0.3 0.1 0.9
v -0.5 0.1 0.8
v -0.3 0.1 0.8
v 0.9 0.1 0.4
v 1 0.1 0.4
v 0.9 0.1 0.3
v 1 0.1 0.3
v -1.5 0.1 -2.38419e-07
v -1.4 0.1 -2.38419e-07
v -1.5 0.1 -0.1
v -1.4 0.1 -0.1
v -0.8 0.1 -0.1
v -0.7 0.1 -0.1
v -0.8 0.1 -0.2
v -0.7 0.1 -0.2
v 1.5 0.1 -0.5
v 1.6 0.1 -0.5
v -0.0999999 0.1 -0.6
v 0.1 0.1 -0.6
v 1.5 0.1 -0.6
v 1.6 0.1 -0.6
v -0.0999999 0.1 -0.7
v 0.1 0.1 -0.7
v 0.8 0.1 -1
v 0.9 0.1 -1
v 0.8 0.1 -1.1
v 0.9 0.1 -1.1
v -1.4 0.1 -1.3
v -1.3 0.1 -1.3
v -1.4 0.1 -1.4
v -1.3 0.1 -1.4
v -2.5 0.1 -2.5
v 2.5 0.1 -2.5
v -0.4 0.2 1.9
v -0.3 0.2 1.9
v -0.4 0.2 1.8
v -0.3 0.2 1.8
v 1.1 0.2 1.6
v 1.2 0.2 1.6
v 0.4 0.2 1.5
v 0.5 0.2 1.5
v 1.1 0.2 1.5
v 1.2 0.2 1.5
v 0.4 0.2 1.4
v 0.5 0.2 1.4
v -1.6 0.2 1.2
v -1.5 0.2 1.2
v -1.6 0.2 1.1
v -1.5 0.2 1.1
v 1.8 0.2 1.1
v 1.9 0.2 1.1
v 1.8 0.2 1
v 1.9 0.2 1
v -0.4 0.2 0.9
v -0.3 0.2 0.9
v -0.4 0.2 0.8
v -0.3 0.2 0.8
v 0.9 0.2 0.4
v 1 0.2 0.4
v 0.9 0.2 0.3
v 1 0.2 0.3
v -1.5 0.2 -2.38419e-07
v -1.4 0.2 -2.38419e-07
v -1.5 0.2 -0.1
v -1.4 0.2 -0.1
v -0.8 0.2 -0.1
v -0.7 0.2 -0.1
v -0.8 0.2 -0.2
v -0.7 0.2 -0.2
v -0.0999999 0.2 -0.6
v 2.38419e-07 0.2 -0.6
v -0.0999999 0.2 -0.7
v 2.38419e-07 0.2 -0.7
v 0.8 0.2 -1
v 0.9 0.2 -1
v 0.8 0.2 -1.1
v 0.9 0.2 -1.1
v -1.4 0.2 -1.3
v -1.3 0.2 -1.3
v -1.4 0.2 -1.4
v -1.3 0.2 -1.4
v -0.5 0.3 0.9
v -0.4 0.3 0.9
v -0.5 0.3 0.8
v -0.4 0.3 0.8
v 1.5 0.3 -0.5
v 1.6 0.3 -0.5
v 2.38419e-07 0.3 -0.6
v 0.1 0.3 -0.6
v 1.5 0.3 -0.6
v 1.6 0.3 -0.6
v 2.38419e-07 0.3 -0.7
v 0.1 0.3 -0.7

# faces
f 3/1/1 2/1/1 1/1/1
f 4/1/1 2/1/1 3/1/1
f 7/2/1 6/2/1 5/2/1
f 8/2/1 6/2/1 7/2/1
f 11/2/1 10/2/1 9/2/1
f 12/2/1 10/2/1 11/2/1
f 15/3/1 14/3/1 13/3/1
f 16/3/1 14/3/1 15/3/1
f 19/3/1 18/3/1 17/3/1
f 20/3/1 18/3/1 19/3/1
f 23/3/1 22/3/1 21/3/1
f 24/3/1 22/3/1 23/3/1
f 27/2/1 26/2/1 25/2/1
f 28/2/1 26/2/1 27/2/1
f 31/2/1 30/2/1 29/2/1
f 32/2/1 30/2/1 31/2/1
f 35/2/1 34/2/1 33/2/1
f 36/2/1 34/2/1 35/2/1
f 39/3/1 38/3/1 37/3/1
f 40/3/1 38/3/1 39/3/1
f 43/3/1 42/3/1 41/3/1
f 44/3/1 42/3/1 43/3/1
f 47/2/1 46/2/1 45/2/1
f 48/2/1 46/2/1 47/2/1
f 51/2/1 50/2/1 49/2/1
f 52/2/1 50/2/1 51/2/1
f 55/3/1 54/3/1 53/3/1
f 56/3/1 54/3/1 55/3/1
f 59/3/1 58/3/1 57/3/1
f 60/3/1 58/3/1 59/3/1
f 61/2/2 62/2/2 63/2/2
f 63/2/2 62/2/2 64/2/2
f 65/2/2 66/2/2 67/2/2
f 67/2/2 66/2/2 68/2/2
f 69/3/2 70/3/2 71/3/2
f 71/3/2 70/3/2 72/3/2
f 73/3/2 74/3/2 75/3/2
f 75/3/2 74/3/2 76/3/2
f 77/3/2 78/3/2 79/3/2
f 79/3/2 78/3/2 80/3/2
f 81/2/2 82/2/2 85/2/2
f 85/2/2 82/2/2 86/2/2
f 83/3/2 84/3/2 87/3/2
f 87/3/2 84/3/2 88/3/2
f 89/2/2 90/2/2 91/2/2
f 91/2/2 90/2/2 92/2/2
f 93/3/2 94/3/2 95/3/2
f 95/3/2 94/3/2 96/3/2
f 97/3/2 98/3/2 99/3/2
f 99/3/2 98/3/2 100/3/2
f 101/2/2 102/2/2 103/2/2
f 103/2/2 102/2/2 104/2/2
f 105/2/2 106/2/2 107/2/2
f 107/2/2 106/2/2 108/2/2
f 109/3/2 110/3/2 111/3/2
f 111/3/2 110/3/2 112/3/2
f 113/3/2 114/3/2 115/3/2
f 115/3/2 114/3/2 116/3/2
f 117/1/2 118/1/2 119/1/2
f 119/1/2 118/1/2 120/1/2
f 123/1/3 122/1/3 121/1/3
f 124/1/3 122/1/3 123/1/3
f 127/2/3 126/2/3 125/2/3
f 128/2/3 126/2/3 127/2/3
f 131/2/3 130/2/3 129/2/3
f 132/2/3 130/2/3 131/2/3
f 135/3/3 134/3/3 133/3/3
f 136/3/3 134/3/3 135/3/3
f 139/2/3 138/2/3 137/2/3
f 140/2/3 138/2/3 139/2/3
f 143/3/3 142/3/3 141/3/3
f 144/3/3 142/3/3 143/3/3
f 147/3/3 146/3/3 145/3/3
f 148/3/3 146/3/3 147/3/3
f 149/3/3 147/3/3 145/3/3
f 150/3/3 147/3/3 149/3/3
f 153/2/3 152/2/3 151/2/3
f 154/2/3 152/2/3 153/2/3
f 157/2/3 156/2/3 155/2/3
f 158/2/3 156/2/3 157/2/3
f 161/3/3 160/3/3 159/3/3
f 162/3/3 160/3/3 161/3/3
f 165/3/3 164/3/3 163/3/3
f 166/3/3 164/3/3 165/3/3
f 169/2/3 168/2/3 167/2/3
f 171/2/3 169/2/3 167/2/3
f 171/2/3 170/2/3 169/2/3
f 172/2/3 170/2/3 171/2/3
f 175/3/3 174/3/3 173/3/3
f 176/3/3 174/3/3 175/3/3
f 179/3/3 178/3/3 177/3/3
f 180/3/3 178/3/3 179/3/3
f 181/2/4 182/2/4 183/2/4
f 183/2/4 182/2/4 184/2/4
f 185/2/4 186/2/4 187/2/4
f 187/2/4 186/2/4 188/2/4
f 189/3/4 190/3/4 191/3/4
f 191/3/4 190/3/4 192/3/4
f 193/2/4 194/2/4 195/2/4
f 195/2/4 194/2/4 196/2/4
f 197/3/4 198/3/4 199/3/4
f 199/3/4 198/3/4 200/3/4
f 201/3/4 202/3/4 203/3/4
f 203/3/4 202/3/4 204/3/4
f 201/3/4 203/3/4 205/3/4
f 205/3/4 203/3/4 206/3/4
f 207/2/4 208/2/4 209/2/4
f 209/2/4 208/2/4 210/2/4
f 211/2/4 212/2/4 213/2/4
f 213/2/4 212/2/4 214/2/4
f 215/3/4 216/3/4 217/3/4
f 217/3/4 216/3/4 218/3/4
f 219/3/4 220/3/4 221/3/4
f 221/3/4 220/3/4 222/3/4
f 223/2/4 224/2/4 225/2/4
f 223/2/4 225/2/4 227/2/4
f 225/2/4 226/2/4 227/2/4
f 227/2/4 226/2/4 228/2/4
f 229/3/4 230/3/4 231/3/4
f 231/3/4 230/3/4 232/3/4
f 233/3/4 234/3/4 235/3/4
f 235/3/4 234/3/4 236/3/4
f 237/1/4 238/1/4 239/1/4
f 239/1/4 238/1/4 240/1/4
f 243/1/5 242/1/5 241/1/5
f 244/1/5 242/1/5 243/1/5
f 245/1/6 246/1/6 247/1/6
f 247/1/6 246/1/6 248/1/6
f 245/1/6 247/1/6 249/1/6
f 248/1/6 246/1/6 250/1/6
f 250/1/6 246/1/6 251/1/6
f 249/1/6 250/1/6 251/1/6
f 251/1/6 246/1/6 252/1/6
f 249/1/6 251/1/6 253/1/6
f 253/1/6 251/1/6 254/1/6
f 254/1/6 251/1/6 255/1/6
f 252/1/6 246/1/6 256/1/6
f 249/1/6 253/1/6 257/1/6
f 254/1/6 255/1/6 258/1/6
f 255/1/6 256/1/6 258/1/6
f 245/1/6 249/1/6 259/1/6
f 257/1/6 258/1/6 259/1/6
f 249/1/6 257/1/6 259/1/6
f 259/1/6 258/1/6 260/1/6
f 245/1/6 259/1/6 261/1/6
f 260/1/6 258/1/6 262/1/6
f 258/1/6 256/1/6 263/1/6
f 256/1/6 246/1/6 263/1/6
f 262/1/6 258/1/6 263/1/6
f 263/1/6 246/1/6 264/1/6
f 261/1/6 262/1/6 265/1/6
f 262/1/6 263/1/6 265/1/6
f 264/1/6 246/1/6 266/1/6
f 261/1/6 265/1/6 267/1/6
f 265/1/6 266/1/6 267/1/6
f 267/1/6 266/1/6 268/1/6
f 261/1/6 267/1/6 269/1/6
f 268/1/6 266/1/6 270/1/6
f 270/1/6 266/1/6 271/1/6
f 269/1/6 270/1/6 271/1/6
f 271/1/6 266/1/6 272/1/6
f 269/1/6 271/1/6 273/1/6
f 272/1/6 266/1/6 274/1/6
f 261/1/6 269/1/6 275/1/6
f 273/1/6 274/1/6 275/1/6
f 269/1/6 273/1/6 275/1/6
f 275/1/6 274/1/6 276/1/6
f 261/1/6 275/1/6 277/1/6
f 276/1/6 274/1/6 278/1/6
f 278/1/6 274/1/6 279/1/6
f 279/1/6 274/1/6 280/1/6
f 277/1/6 278/1/6 281/1/6
f 278/1/6 279/1/6 281/1/6
f 280/1/6 274/1/6 282/1/6
f 274/1/6 266/1/6 283/1/6
f 281/1/6 282/1/6 283/1/6
f 282/1/6 274/1/6 283/1/6
f 283/1/6 266/1/6 284/1/6
f 281/1/6 283/1/6 285/1/6
f 285/1/6 283/1/6 286/1/6
f 286/1/6 283/1/6 287/1/6
f 284/1/6 266/1/6 288/1/6
f 281/1/6 285/1/6 289/1/6
f 286/1/6 287/1/6 290/1/6
f 287/1/6 288/1/6 290/1/6
f 290/1/6 288/1/6 291/1/6
f 289/1/6 290/1/6 291/1/6
f 291/1/6 288/1/6 292/1/6
f 289/1/6 291/1/6 293/1/6
f 292/1/6 288/1/6 294/1/6
f 277/1/6 281/1/6 295/1/6
f 293/1/6 294/1/6 295/1/6
f 281/1/6 289/1/6 295/1/6
f 289/1/6 293/1/6 295/1/6
f 295/1/6 294/1/6 296/1/6
f 277/1/6 295/1/6 297/1/6
f 296/1/6 294/1/6 298/1/6
f 245/1/6 261/1/6 299/1/6
f 297/1/6 298/1/6 299/1/6
f 261/1/6 277/1/6 299/1/6
f 277/1/6 297/1/6 299/1/6
f 266/1/6 246/1/6 300/1/6
f 299/1/6 298/1/6 300/1/6
f 298/1/6 294/1/6 300/1/6
f 294/1/6 288/1/6 300/1/6
f 288/1/6 266/1/6 300/1/6
f 301/2/6 302/2/6 303/2/6
f 303/2/6 302/2/6 304/2/6
f 305/2/6 306/2/6 309/2/6
f 309/2/6 306/2/6 310/2/6
f 307/3/6 308/3/6 311/3/6
f 311/3/6 308/3/6 312/3/6
f 313/2/6 314/2/6 315/2/6
f 315/2/6 314/2/6 316/2/6
f 317/3/6 318/3/6 319/3/6
f 319/3/6 318/3/6 320/3/6
f 321/3/6 322/3/6 323/3/6
f 323/3/6 322/3/6 324/3/6
f 325/2/6 326/2/6 327/2/6
f 327/2/6 326/2/6 328/2/6
f 329/2/6 330/2/6 331/2/6
f 331/2/6 330/2/6 332/2/6
f 333/3/6 334/3/6 335/3/6
f 335/3/6 334/3/6 336/3/6
f 337/2/6 338/2/6 339/2/6
f 339/2/6 338/2/6 340/2/6
f 341/3/6 342/3/6 343/3/6
f 343/3/6 342/3/6 344/3/6
f 345/3/6 346/3/6 347/3/6
f 347/3/6 346/3/6 348/3/6
f 349/3/6 350/3/6 351/3/6
f 351/3/6 350/3/6 352/3/6
f 353/3/6 354/3/6 357/3/6
f 357/3/6 354/3/6 358/3/6
f 355/2/6 356/2/6 359/2/6
f 359/2/6 356/2/6 360/2/6
